G04 #@! TF.GenerationSoftware,KiCad,Pcbnew,(7.0.0-0)*
G04 #@! TF.CreationDate,2023-03-11T20:23:52-05:00*
G04 #@! TF.ProjectId,corne-ultralight,636f726e-652d-4756-9c74-72616c696768,2.0*
G04 #@! TF.SameCoordinates,Original*
G04 #@! TF.FileFunction,Paste,Bot*
G04 #@! TF.FilePolarity,Positive*
%FSLAX46Y46*%
G04 Gerber Fmt 4.6, Leading zero omitted, Abs format (unit mm)*
G04 Created by KiCad (PCBNEW (7.0.0-0)) date 2023-03-11 20:23:52*
%MOMM*%
%LPD*%
G01*
G04 APERTURE LIST*
G04 Aperture macros list*
%AMRotRect*
0 Rectangle, with rotation*
0 The origin of the aperture is its center*
0 $1 length*
0 $2 width*
0 $3 Rotation angle, in degrees counterclockwise*
0 Add horizontal line*
21,1,$1,$2,0,0,$3*%
G04 Aperture macros list end*
%ADD10R,1.900000X2.000000*%
%ADD11R,2.000000X2.000000*%
%ADD12RotRect,1.900000X2.000000X195.000000*%
%ADD13RotRect,2.000000X2.000000X195.000000*%
%ADD14RotRect,1.500000X2.000000X240.000000*%
%ADD15RotRect,1.900000X2.000000X165.000000*%
%ADD16RotRect,2.000000X2.000000X165.000000*%
%ADD17RotRect,1.500000X2.000000X300.000000*%
%ADD18R,1.300000X1.400000*%
%ADD19RotRect,1.400000X1.300000X15.000000*%
%ADD20RotRect,1.400000X1.300000X255.000000*%
%ADD21R,1.400000X1.300000*%
G04 APERTURE END LIST*
D10*
X281484846Y-51820431D03*
D11*
X284284846Y-40840431D03*
X270584846Y-49620431D03*
X271784846Y-43380431D03*
D10*
X262484846Y-51820431D03*
D11*
X265284846Y-40840431D03*
X251584846Y-49620431D03*
X252784846Y-43380431D03*
D10*
X243484846Y-47070431D03*
D11*
X246284846Y-36090431D03*
X232584846Y-44870431D03*
X233784846Y-38630431D03*
D10*
X224484846Y-44695431D03*
D11*
X227284846Y-33715431D03*
X213584846Y-42495431D03*
X214784846Y-36255431D03*
D10*
X205484846Y-47070431D03*
D11*
X208284846Y-36090431D03*
X194584846Y-44870431D03*
X195784846Y-38630431D03*
D10*
X186484846Y-49445431D03*
D11*
X189284846Y-38465431D03*
X175584846Y-47245431D03*
X176784846Y-41005431D03*
D10*
X281484846Y-70820431D03*
D11*
X284284846Y-59840431D03*
X270584846Y-68620431D03*
X271784846Y-62380431D03*
D10*
X262484846Y-70820431D03*
D11*
X265284846Y-59840431D03*
X251584846Y-68620431D03*
X252784846Y-62380431D03*
D10*
X243484846Y-66070431D03*
D11*
X246284846Y-55090431D03*
X232584846Y-63870431D03*
X233784846Y-57630431D03*
D10*
X224484846Y-63695431D03*
D11*
X227284846Y-52715431D03*
X213584846Y-61495431D03*
X214784846Y-55255431D03*
D10*
X205484846Y-66070431D03*
D11*
X208284846Y-55090431D03*
X194584846Y-63870431D03*
X195784846Y-57630431D03*
D10*
X186484846Y-68445431D03*
D11*
X189284846Y-57465431D03*
X175584846Y-66245431D03*
X176784846Y-60005431D03*
D10*
X281484846Y-89820431D03*
D11*
X284284846Y-78840431D03*
X270584846Y-87620431D03*
X271784846Y-81380431D03*
D10*
X262484846Y-89820431D03*
D11*
X265284846Y-78840431D03*
X251584846Y-87620431D03*
X252784846Y-81380431D03*
D10*
X243484846Y-85070431D03*
D11*
X246284846Y-74090431D03*
X232584846Y-82870431D03*
X233784846Y-76630431D03*
D10*
X224484846Y-82695431D03*
D11*
X227284846Y-71715431D03*
X213584846Y-80495431D03*
X214784846Y-74255431D03*
D10*
X205484846Y-85070431D03*
D11*
X208284846Y-74090431D03*
X194584846Y-82870431D03*
X195784846Y-76630431D03*
D10*
X214984846Y-104695431D03*
D11*
X217784846Y-93715431D03*
X204084846Y-102495431D03*
X205284846Y-96255431D03*
D12*
X195416471Y-106519700D03*
D13*
X195279230Y-95189141D03*
X184318477Y-107215791D03*
X183862557Y-100877831D03*
D10*
X186484846Y-87445431D03*
D11*
X189284846Y-76465431D03*
X175584846Y-85245431D03*
X176784846Y-79005431D03*
D10*
X119987499Y-49444999D03*
D11*
X122787499Y-38464999D03*
X109087499Y-47244999D03*
X110287499Y-41004999D03*
D10*
X100987499Y-47069999D03*
D11*
X103787499Y-36089999D03*
X90087499Y-44869999D03*
X91287499Y-38629999D03*
D10*
X81987499Y-44694999D03*
D11*
X84787499Y-33714999D03*
X71087499Y-42494999D03*
X72287499Y-36254999D03*
D10*
X62987499Y-47069999D03*
D11*
X65787499Y-36089999D03*
X52087499Y-44869999D03*
X53287499Y-38629999D03*
D10*
X43987499Y-51819999D03*
D11*
X46787499Y-40839999D03*
X33087499Y-49619999D03*
X34287499Y-43379999D03*
D10*
X119987499Y-87444999D03*
D11*
X122787499Y-76464999D03*
X109087499Y-85244999D03*
X110287499Y-79004999D03*
D14*
X130288090Y-97991859D03*
X138547049Y-105646923D03*
X126337794Y-109913972D03*
X131141793Y-114073202D03*
D10*
X24987499Y-89819999D03*
D11*
X27787499Y-78839999D03*
X14087499Y-87619999D03*
X15287499Y-81379999D03*
D15*
X110865059Y-107968655D03*
D16*
X116411484Y-98087482D03*
X100905869Y-103022490D03*
X103680011Y-97305696D03*
D10*
X91487499Y-104694999D03*
D11*
X94287499Y-93714999D03*
X80587499Y-102494999D03*
X81787499Y-96254999D03*
D10*
X100987499Y-85069999D03*
D11*
X103787499Y-74089999D03*
X90087499Y-82869999D03*
X91287499Y-76629999D03*
D10*
X81987499Y-82694999D03*
D11*
X84787499Y-71714999D03*
X71087499Y-80494999D03*
X72287499Y-74254999D03*
D10*
X62987499Y-85069999D03*
D11*
X65787499Y-74089999D03*
X52087499Y-82869999D03*
X53287499Y-76629999D03*
D10*
X43987499Y-89819999D03*
D11*
X46787499Y-78839999D03*
X33087499Y-87619999D03*
X34287499Y-81379999D03*
D10*
X119987499Y-68444999D03*
D11*
X122787499Y-57464999D03*
X109087499Y-66244999D03*
X110287499Y-60004999D03*
D10*
X100987499Y-66069999D03*
D11*
X103787499Y-55089999D03*
X90087499Y-63869999D03*
X91287499Y-57629999D03*
D10*
X81987499Y-63694999D03*
D11*
X84787499Y-52714999D03*
X71087499Y-61494999D03*
X72287499Y-55254999D03*
D10*
X62987499Y-66069999D03*
D11*
X65787499Y-55089999D03*
X52087499Y-63869999D03*
X53287499Y-57629999D03*
D10*
X43987499Y-70819999D03*
D11*
X46787499Y-59839999D03*
X33087499Y-68619999D03*
X34287499Y-62379999D03*
D10*
X24987499Y-70819999D03*
D11*
X27787499Y-59839999D03*
X14087499Y-68619999D03*
X15287499Y-62379999D03*
D10*
X24987499Y-51819999D03*
D11*
X27787499Y-40839999D03*
X14087499Y-49619999D03*
X15287499Y-43379999D03*
D17*
X161785437Y-103072291D03*
X172544396Y-99747355D03*
X170135141Y-112454404D03*
X176139140Y-110373634D03*
D18*
X286347499Y-87014999D03*
X286347499Y-83464999D03*
X248882499Y-83839999D03*
X248882499Y-80289999D03*
X229832499Y-79394999D03*
X229832499Y-75844999D03*
X210782499Y-80945431D03*
X210782499Y-77395431D03*
X191732499Y-83320431D03*
X191732499Y-79770431D03*
X221831499Y-98317999D03*
X221831499Y-94767999D03*
X202527499Y-97174999D03*
X202527499Y-93624999D03*
D19*
X189637017Y-91130595D03*
X186207981Y-92049403D03*
D18*
X286184846Y-48395431D03*
X286184846Y-44845431D03*
X267297499Y-48279999D03*
X267297499Y-44729999D03*
X248882499Y-43199999D03*
X248882499Y-39649999D03*
X229582499Y-41044999D03*
X229582499Y-37494999D03*
X210782499Y-43199999D03*
X210782499Y-39649999D03*
X192367499Y-44469999D03*
X192367499Y-40919999D03*
X286347499Y-66564999D03*
X286347499Y-63014999D03*
X267297499Y-66684999D03*
X267297499Y-63134999D03*
X248882499Y-64154999D03*
X248882499Y-60604999D03*
X229697499Y-60270431D03*
X229697499Y-56720431D03*
X210782499Y-61215431D03*
X210782499Y-57665431D03*
X50000499Y-84093999D03*
X50000499Y-80543999D03*
X50000499Y-65297999D03*
X50000499Y-61747999D03*
X49746499Y-45485999D03*
X49746499Y-41935999D03*
X192367499Y-62884999D03*
X192367499Y-59334999D03*
D20*
X115835095Y-108925517D03*
X116753903Y-105496481D03*
D18*
X96687499Y-100679999D03*
X96687499Y-97129999D03*
X77940499Y-100349999D03*
X77940499Y-96799999D03*
D21*
X115783499Y-73682999D03*
X112233499Y-73682999D03*
D18*
X106187499Y-80694999D03*
X106187499Y-77144999D03*
X87592499Y-77235999D03*
X87592499Y-73685999D03*
X68187499Y-80694999D03*
X68187499Y-77144999D03*
X30187499Y-85691874D03*
X30187499Y-82141874D03*
D21*
X115529499Y-54378999D03*
X111979499Y-54378999D03*
D18*
X106187499Y-61694999D03*
X106187499Y-58144999D03*
X87592499Y-58185999D03*
X87592499Y-54635999D03*
X68187499Y-61694999D03*
X68187499Y-58144999D03*
X30187499Y-66691874D03*
X30187499Y-63141874D03*
D21*
X115275499Y-35582999D03*
X111725499Y-35582999D03*
D18*
X106187499Y-42694999D03*
X106187499Y-39144999D03*
X87084499Y-39135999D03*
X87084499Y-35585999D03*
X68187499Y-42694999D03*
X68187499Y-39144999D03*
X30187499Y-47691874D03*
X30187499Y-44141874D03*
X267297499Y-86684999D03*
X267297499Y-83134999D03*
M02*
