G04 #@! TF.GenerationSoftware,KiCad,Pcbnew,(7.0.0-0)*
G04 #@! TF.CreationDate,2023-03-11T20:23:52-05:00*
G04 #@! TF.ProjectId,corne-ultralight,636f726e-652d-4756-9c74-72616c696768,2.0*
G04 #@! TF.SameCoordinates,Original*
G04 #@! TF.FileFunction,Copper,L1,Top*
G04 #@! TF.FilePolarity,Positive*
%FSLAX46Y46*%
G04 Gerber Fmt 4.6, Leading zero omitted, Abs format (unit mm)*
G04 Created by KiCad (PCBNEW (7.0.0-0)) date 2023-03-11 20:23:52*
%MOMM*%
%LPD*%
G01*
G04 APERTURE LIST*
G04 Aperture macros list*
%AMRoundRect*
0 Rectangle with rounded corners*
0 $1 Rounding radius*
0 $2 $3 $4 $5 $6 $7 $8 $9 X,Y pos of 4 corners*
0 Add a 4 corners polygon primitive as box body*
4,1,4,$2,$3,$4,$5,$6,$7,$8,$9,$2,$3,0*
0 Add four circle primitives for the rounded corners*
1,1,$1+$1,$2,$3*
1,1,$1+$1,$4,$5*
1,1,$1+$1,$6,$7*
1,1,$1+$1,$8,$9*
0 Add four rect primitives between the rounded corners*
20,1,$1+$1,$2,$3,$4,$5,0*
20,1,$1+$1,$4,$5,$6,$7,0*
20,1,$1+$1,$6,$7,$8,$9,0*
20,1,$1+$1,$8,$9,$2,$3,0*%
%AMHorizOval*
0 Thick line with rounded ends*
0 $1 width*
0 $2 $3 position (X,Y) of the first rounded end (center of the circle)*
0 $4 $5 position (X,Y) of the second rounded end (center of the circle)*
0 Add line between two ends*
20,1,$1,$2,$3,$4,$5,0*
0 Add two circle primitives to create the rounded ends*
1,1,$1,$2,$3*
1,1,$1,$4,$5*%
%AMRotRect*
0 Rectangle, with rotation*
0 The origin of the aperture is its center*
0 $1 length*
0 $2 width*
0 $3 Rotation angle, in degrees counterclockwise*
0 Add horizontal line*
21,1,$1,$2,0,0,$3*%
G04 Aperture macros list end*
G04 #@! TA.AperFunction,ComponentPad*
%ADD10C,2.000000*%
G04 #@! TD*
G04 #@! TA.AperFunction,ComponentPad*
%ADD11O,1.397000X1.778000*%
G04 #@! TD*
G04 #@! TA.AperFunction,SMDPad,CuDef*
%ADD12R,0.800000X1.000000*%
G04 #@! TD*
G04 #@! TA.AperFunction,SMDPad,CuDef*
%ADD13R,1.500000X0.700000*%
G04 #@! TD*
G04 #@! TA.AperFunction,ComponentPad*
%ADD14O,2.750000X1.800000*%
G04 #@! TD*
G04 #@! TA.AperFunction,ComponentPad*
%ADD15C,1.397000*%
G04 #@! TD*
G04 #@! TA.AperFunction,SMDPad,CuDef*
%ADD16C,1.500000*%
G04 #@! TD*
G04 #@! TA.AperFunction,ComponentPad*
%ADD17RoundRect,0.250000X0.625000X-0.350000X0.625000X0.350000X-0.625000X0.350000X-0.625000X-0.350000X0*%
G04 #@! TD*
G04 #@! TA.AperFunction,ComponentPad*
%ADD18O,1.750000X1.200000*%
G04 #@! TD*
G04 #@! TA.AperFunction,ComponentPad*
%ADD19R,1.700000X1.700000*%
G04 #@! TD*
G04 #@! TA.AperFunction,ComponentPad*
%ADD20O,1.700000X1.700000*%
G04 #@! TD*
G04 #@! TA.AperFunction,ComponentPad*
%ADD21RoundRect,0.250000X-0.625000X0.350000X-0.625000X-0.350000X0.625000X-0.350000X0.625000X0.350000X0*%
G04 #@! TD*
G04 #@! TA.AperFunction,ComponentPad*
%ADD22R,1.300000X1.778000*%
G04 #@! TD*
G04 #@! TA.AperFunction,ComponentPad*
%ADD23O,1.300000X1.778000*%
G04 #@! TD*
G04 #@! TA.AperFunction,ComponentPad*
%ADD24RotRect,1.778000X1.300000X195.000000*%
G04 #@! TD*
G04 #@! TA.AperFunction,ComponentPad*
%ADD25HorizOval,1.300000X-0.230856X-0.061858X0.230856X0.061858X0*%
G04 #@! TD*
G04 #@! TA.AperFunction,ComponentPad*
%ADD26RotRect,1.778000X1.300000X75.000000*%
G04 #@! TD*
G04 #@! TA.AperFunction,ComponentPad*
%ADD27HorizOval,1.300000X0.061858X0.230856X-0.061858X-0.230856X0*%
G04 #@! TD*
G04 #@! TA.AperFunction,ComponentPad*
%ADD28R,1.778000X1.300000*%
G04 #@! TD*
G04 #@! TA.AperFunction,ComponentPad*
%ADD29O,1.778000X1.300000*%
G04 #@! TD*
G04 #@! TA.AperFunction,ViaPad*
%ADD30C,0.600000*%
G04 #@! TD*
G04 #@! TA.AperFunction,ViaPad*
%ADD31C,0.800000*%
G04 #@! TD*
G04 #@! TA.AperFunction,Conductor*
%ADD32C,0.250000*%
G04 #@! TD*
G04 #@! TA.AperFunction,Conductor*
%ADD33C,0.500000*%
G04 #@! TD*
G04 #@! TA.AperFunction,Conductor*
%ADD34C,0.254000*%
G04 #@! TD*
G04 #@! TA.AperFunction,Conductor*
%ADD35C,0.203200*%
G04 #@! TD*
G04 APERTURE END LIST*
D10*
X156012500Y-80067432D03*
X156012500Y-73567432D03*
D11*
X131758499Y-77167999D03*
X134298499Y-77167999D03*
X136838499Y-77167999D03*
X139378499Y-77167999D03*
X141918499Y-77167999D03*
D10*
X144862500Y-79921000D03*
X144862500Y-73421000D03*
D11*
X158987499Y-77309999D03*
X161527499Y-77309999D03*
X164067499Y-77309999D03*
X166607499Y-77309999D03*
X169147499Y-77309999D03*
D12*
X156912499Y-82094999D03*
X154702499Y-82094999D03*
X156912499Y-89394999D03*
X154702499Y-89394999D03*
D13*
X157562499Y-83494999D03*
X157562499Y-86494999D03*
X157562499Y-87994999D03*
D14*
X128798899Y-42085399D03*
X128798899Y-44625399D03*
X128798899Y-47165399D03*
X128798899Y-49705399D03*
X128798899Y-52245399D03*
X128798899Y-54785399D03*
X128798899Y-57325399D03*
X144988899Y-57325399D03*
X144988899Y-54785399D03*
X144988899Y-52245399D03*
X144988899Y-49705399D03*
X144988899Y-47165399D03*
X144988899Y-44625399D03*
X144988899Y-42085399D03*
D15*
X135623900Y-41133400D03*
X138163900Y-41133400D03*
X135623900Y-43673400D03*
X138163900Y-43673400D03*
X132448900Y-49388400D03*
X132448900Y-47483400D03*
X140703900Y-58913400D03*
X142608900Y-58913400D03*
D16*
X1275000Y-1275000D03*
D14*
X155951499Y-42212399D03*
X155951499Y-44752399D03*
X155951499Y-47292399D03*
X155951499Y-49832399D03*
X155951499Y-52372399D03*
X155951499Y-54912399D03*
X155951499Y-57452399D03*
X172141499Y-57452399D03*
X172141499Y-54912399D03*
X172141499Y-52372399D03*
X172141499Y-49832399D03*
X172141499Y-47292399D03*
X172141499Y-44752399D03*
X172141499Y-42212399D03*
D15*
X162776500Y-41260400D03*
X165316500Y-41260400D03*
X162776500Y-43800400D03*
X165316500Y-43800400D03*
X159601500Y-49515400D03*
X159601500Y-47610400D03*
X167856500Y-59040400D03*
X169761500Y-59040400D03*
D17*
X160537500Y-83045000D03*
D18*
X160537499Y-81044999D03*
D19*
X165512499Y-72594999D03*
D20*
X162972499Y-72594999D03*
D19*
X135472499Y-72594999D03*
D20*
X138012499Y-72594999D03*
D12*
X144007499Y-89394999D03*
X146217499Y-89394999D03*
X144007499Y-82094999D03*
X146217499Y-82094999D03*
D13*
X143357499Y-87994999D03*
X143357499Y-84994999D03*
X143357499Y-83494999D03*
D21*
X140387500Y-80845000D03*
D18*
X140387499Y-82844999D03*
D22*
X286347499Y-88239999D03*
D23*
X286347499Y-82239999D03*
D22*
X248882499Y-85064999D03*
D23*
X248882499Y-79064999D03*
D22*
X229832499Y-80619999D03*
D23*
X229832499Y-74619999D03*
D22*
X210782499Y-82170431D03*
D23*
X210782499Y-76170431D03*
D22*
X191732499Y-84545431D03*
D23*
X191732499Y-78545431D03*
D22*
X221831499Y-99542999D03*
D23*
X221831499Y-93542999D03*
D22*
X202527499Y-98399999D03*
D23*
X202527499Y-92399999D03*
D24*
X190820276Y-90813542D03*
D25*
X185024722Y-92366456D03*
D22*
X286184846Y-49620431D03*
D23*
X286184846Y-43620431D03*
D22*
X267297499Y-49504999D03*
D23*
X267297499Y-43504999D03*
D22*
X248882499Y-44424999D03*
D23*
X248882499Y-38424999D03*
D22*
X229582499Y-42269999D03*
D23*
X229582499Y-36269999D03*
D22*
X210782499Y-44424999D03*
D23*
X210782499Y-38424999D03*
D22*
X192367499Y-45694999D03*
D23*
X192367499Y-39694999D03*
D22*
X286347499Y-67789999D03*
D23*
X286347499Y-61789999D03*
D22*
X267297499Y-67909999D03*
D23*
X267297499Y-61909999D03*
D22*
X248882499Y-65379999D03*
D23*
X248882499Y-59379999D03*
D22*
X229697499Y-61495431D03*
D23*
X229697499Y-55495431D03*
D22*
X210782499Y-62440431D03*
D23*
X210782499Y-56440431D03*
D22*
X50000499Y-85318999D03*
D23*
X50000499Y-79318999D03*
D22*
X50000499Y-66522999D03*
D23*
X50000499Y-60522999D03*
D22*
X49746499Y-46710999D03*
D23*
X49746499Y-40710999D03*
D22*
X192367499Y-64109999D03*
D23*
X192367499Y-58109999D03*
D26*
X115518042Y-110108776D03*
D27*
X117070956Y-104313222D03*
D22*
X96687499Y-101904999D03*
D23*
X96687499Y-95904999D03*
D22*
X77940499Y-101574999D03*
D23*
X77940499Y-95574999D03*
D28*
X117008499Y-73682999D03*
D29*
X111008499Y-73682999D03*
D22*
X106187499Y-81919999D03*
D23*
X106187499Y-75919999D03*
D22*
X87592499Y-78460999D03*
D23*
X87592499Y-72460999D03*
D22*
X68187499Y-81919999D03*
D23*
X68187499Y-75919999D03*
D22*
X30187499Y-86916874D03*
D23*
X30187499Y-80916874D03*
D28*
X116754499Y-54378999D03*
D29*
X110754499Y-54378999D03*
D22*
X106187499Y-62919999D03*
D23*
X106187499Y-56919999D03*
D22*
X87592499Y-59410999D03*
D23*
X87592499Y-53410999D03*
D22*
X68187499Y-62919999D03*
D23*
X68187499Y-56919999D03*
D22*
X30187499Y-67916874D03*
D23*
X30187499Y-61916874D03*
D28*
X116500499Y-35582999D03*
D29*
X110500499Y-35582999D03*
D22*
X106187499Y-43919999D03*
D23*
X106187499Y-37919999D03*
D22*
X87084499Y-40360999D03*
D23*
X87084499Y-34360999D03*
D22*
X68187499Y-43919999D03*
D23*
X68187499Y-37919999D03*
D22*
X30187499Y-48916874D03*
D23*
X30187499Y-42916874D03*
D22*
X267297499Y-87909999D03*
D23*
X267297499Y-81909999D03*
D30*
X108928500Y-45235000D03*
X113496599Y-45582474D03*
X40094500Y-68857000D03*
X37300500Y-70635000D03*
D31*
X160387500Y-86445000D03*
D30*
X158636300Y-80922000D03*
X123939900Y-83004800D03*
X126046369Y-68423469D03*
X90894500Y-40155000D03*
X88354500Y-43711000D03*
X90894500Y-59459000D03*
X88608500Y-66063000D03*
X88354500Y-82827000D03*
X90894500Y-78763000D03*
X110198500Y-81049000D03*
X108674500Y-83335000D03*
D31*
X132677500Y-72794000D03*
D30*
X138748100Y-85621000D03*
X27902500Y-80541000D03*
X27648500Y-76985000D03*
X128916569Y-65553269D03*
X135115900Y-65453400D03*
X26886500Y-88415000D03*
X26632500Y-51839000D03*
X26886500Y-70889000D03*
X33998500Y-66825000D03*
X27902500Y-61491000D03*
X27902500Y-42695000D03*
X127035459Y-63697560D03*
X46952500Y-42949000D03*
X45936500Y-52347000D03*
X45682500Y-70889000D03*
X129589669Y-64880169D03*
X48222500Y-79525000D03*
X128042285Y-63332786D03*
X47222500Y-72945000D03*
X141095110Y-61988790D03*
X46698500Y-61745000D03*
X45682500Y-88719989D03*
X63112500Y-69658478D03*
X133427000Y-61468872D03*
X65748500Y-72413000D03*
X64732500Y-64539000D03*
X66002500Y-37869000D03*
X64478500Y-84859000D03*
X64732500Y-46505000D03*
X65748500Y-53617000D03*
X133427000Y-62581226D03*
X84290500Y-73429000D03*
X93942500Y-95527000D03*
X85052500Y-35583000D03*
X83274500Y-81303000D03*
X84798500Y-54633000D03*
X93180500Y-105179000D03*
X82258500Y-43203000D03*
X83274500Y-61999000D03*
X133450000Y-63461904D03*
X102578500Y-65809000D03*
X111976500Y-106449000D03*
X104102500Y-37869000D03*
X102832500Y-47013000D03*
X103086500Y-70635000D03*
X102324500Y-84859000D03*
X113754500Y-100353000D03*
X103848500Y-57173000D03*
X125311500Y-71955800D03*
X122898500Y-55903000D03*
X121628500Y-87399000D03*
X121628500Y-67079000D03*
X145326700Y-66698000D03*
X123388000Y-72184400D03*
X123152500Y-40155000D03*
X131813900Y-70482600D03*
X122390500Y-78763000D03*
X130264500Y-96289000D03*
X121882500Y-49553000D03*
X120262500Y-73008042D03*
X142215000Y-57015400D03*
X129902528Y-70647032D03*
X129104150Y-70689418D03*
D31*
X141186500Y-84859000D03*
D30*
X187287500Y-52855000D03*
X192367500Y-48410000D03*
X267297500Y-52855000D03*
X212687500Y-44600000D03*
X283172500Y-54760000D03*
X231102500Y-41425000D03*
X245072500Y-44600000D03*
X264122500Y-48410000D03*
X206337500Y-44600000D03*
X250152500Y-43965000D03*
X225387500Y-42695000D03*
X187922500Y-60475000D03*
X265392500Y-67460000D03*
X210782500Y-64920000D03*
X283807500Y-69365000D03*
X169427377Y-62303800D03*
X250152500Y-64285000D03*
X273455268Y-60829528D03*
X283172500Y-56665000D03*
X251422500Y-65555000D03*
X250152500Y-68095000D03*
X245707500Y-57935000D03*
X242532500Y-57300000D03*
X222047323Y-52594644D03*
X226022500Y-56030000D03*
X169058342Y-63013037D03*
X226657500Y-79525000D03*
X189827500Y-54760000D03*
X185872752Y-54789290D03*
X283172500Y-82065000D03*
X279362500Y-81430000D03*
X264757500Y-75715000D03*
X253962500Y-79525000D03*
X196812500Y-75080000D03*
X179032500Y-87780000D03*
X187287500Y-85240000D03*
X160363500Y-46327200D03*
X181572500Y-90955000D03*
X183477500Y-75715000D03*
X182207500Y-70000000D03*
X162293900Y-48054400D03*
X161684300Y-56614200D03*
X159957100Y-61541800D03*
X157036100Y-62024400D03*
X263487500Y-68730000D03*
X262852500Y-62272779D03*
X243559368Y-70045000D03*
X245072500Y-66825000D03*
X162446300Y-57477800D03*
X246977500Y-71905000D03*
X229197500Y-71270000D03*
X227292500Y-83335000D03*
X162547900Y-58925600D03*
X227927500Y-64285000D03*
X225387500Y-85358500D03*
X208242500Y-71270000D03*
X161963700Y-60551200D03*
X206972500Y-66190000D03*
X189192500Y-73227080D03*
X188557500Y-69365000D03*
X141418823Y-74067723D03*
X130699211Y-70714111D03*
X162522500Y-82700000D03*
X157798100Y-64666000D03*
X159804700Y-64666000D03*
D32*
X113149125Y-45235000D02*
X113496599Y-45582474D01*
X108928500Y-45235000D02*
X113149125Y-45235000D01*
D33*
X140387500Y-80845000D02*
X140770000Y-80462500D01*
X140647500Y-81145000D02*
X142837500Y-83335000D01*
X140087500Y-81145000D02*
X140387500Y-80845000D01*
X140770000Y-80462500D02*
X140770000Y-75352500D01*
X140770000Y-75352500D02*
X138012500Y-72595000D01*
D32*
X37300500Y-70635000D02*
X39078500Y-68857000D01*
X39078500Y-68857000D02*
X40094500Y-68857000D01*
D33*
X158636300Y-80922000D02*
X160379000Y-79179300D01*
X160379000Y-75188500D02*
X162972500Y-72595000D01*
X160337500Y-86495000D02*
X157562500Y-86495000D01*
X160379000Y-79179300D02*
X160379000Y-75188500D01*
X160387500Y-86445000D02*
X160337500Y-86495000D01*
D32*
X129131488Y-47165400D02*
X124012500Y-52284388D01*
X129273900Y-47165400D02*
X129131488Y-47165400D01*
X124012500Y-82932200D02*
X123939900Y-83004800D01*
X124012500Y-52284388D02*
X124012500Y-82932200D01*
D34*
X126046369Y-52787691D02*
X129128660Y-49705400D01*
X126046369Y-68423469D02*
X126046369Y-52787691D01*
X129128660Y-49705400D02*
X129273900Y-49705400D01*
D32*
X88354500Y-43711000D02*
X90894500Y-41171000D01*
X90894500Y-41171000D02*
X90894500Y-40155000D01*
X88608500Y-61745000D02*
X88608500Y-66063000D01*
X90894500Y-59459000D02*
X88608500Y-61745000D01*
X90894500Y-78763000D02*
X88354500Y-81303000D01*
X88354500Y-81303000D02*
X88354500Y-82827000D01*
X108674500Y-83335000D02*
X110198500Y-81811000D01*
X110198500Y-81811000D02*
X110198500Y-81049000D01*
D33*
X144513900Y-44625400D02*
X143425439Y-44625400D01*
X143425439Y-44625400D02*
X132677500Y-55373339D01*
X132677500Y-55373339D02*
X132677500Y-72794000D01*
X139378500Y-77168000D02*
X139378500Y-76501000D01*
X139378500Y-76501000D02*
X135472500Y-72595000D01*
D32*
X136838500Y-83711400D02*
X136838500Y-77168000D01*
X138748100Y-85621000D02*
X136838500Y-83711400D01*
D34*
X128816699Y-65478800D02*
X128842100Y-65478800D01*
D32*
X27648500Y-71904508D02*
X27140746Y-71396754D01*
X26042499Y-44555001D02*
X27902500Y-42695000D01*
X26042499Y-87570999D02*
X26042499Y-82401001D01*
D34*
X127035459Y-63697560D02*
X128816699Y-65478800D01*
D32*
X34162011Y-66988511D02*
X34162011Y-69288305D01*
X27902500Y-61491000D02*
X27902500Y-53109000D01*
X26886500Y-70889000D02*
X25934161Y-69936661D01*
D34*
X135115900Y-65453400D02*
X135115900Y-64501400D01*
D32*
X27140746Y-71143246D02*
X26886500Y-70889000D01*
X26886500Y-88415000D02*
X26042499Y-87570999D01*
X25934161Y-69936661D02*
X25934161Y-63459339D01*
X33998500Y-66825000D02*
X34162011Y-66988511D01*
D34*
X128842100Y-65478800D02*
X128916569Y-65553269D01*
X135115900Y-64501400D02*
X140703900Y-58913400D01*
D32*
X26042499Y-51248999D02*
X26042499Y-44555001D01*
X34162011Y-69288305D02*
X32053562Y-71396754D01*
X26632500Y-51839000D02*
X26042499Y-51248999D01*
X26042499Y-82401001D02*
X27902500Y-80541000D01*
X25934161Y-63459339D02*
X27902500Y-61491000D01*
X27902500Y-53109000D02*
X26632500Y-51839000D01*
X32053562Y-71396754D02*
X27140746Y-71396754D01*
X27648500Y-76985000D02*
X27648500Y-71904508D01*
X27140746Y-71396754D02*
X27140746Y-71143246D01*
X45936500Y-55395000D02*
X48984500Y-58443000D01*
X45682500Y-88669000D02*
X44504151Y-87490651D01*
X45760087Y-82694999D02*
X45814501Y-82694999D01*
X46372501Y-63594999D02*
X45860087Y-63594999D01*
D34*
X141095110Y-61988790D02*
X142608900Y-60475000D01*
D32*
X45936500Y-70635000D02*
X45682500Y-70889000D01*
X45936500Y-52347000D02*
X45936500Y-55395000D01*
X48187499Y-75490890D02*
X48187499Y-73909999D01*
D34*
X142608900Y-60475000D02*
X142608900Y-58913400D01*
D32*
X47460500Y-60983000D02*
X46698500Y-61745000D01*
X45860087Y-63594999D02*
X43787500Y-65667586D01*
X45042499Y-51452999D02*
X45936500Y-52347000D01*
X48984500Y-58443000D02*
X48984500Y-60983000D01*
X46952500Y-42949000D02*
X45042499Y-44859001D01*
D34*
X128042286Y-63332786D02*
X129589669Y-64880169D01*
X128042285Y-63332786D02*
X128042286Y-63332786D01*
D32*
X45682500Y-70889000D02*
X47222500Y-72429000D01*
X44504151Y-83950935D02*
X45760087Y-82694999D01*
X44504151Y-87490651D02*
X44504151Y-83950935D01*
X48476500Y-79525000D02*
X48222500Y-79525000D01*
X45682500Y-88669000D02*
X45682500Y-88719989D01*
X48984500Y-60983000D02*
X46372501Y-63594999D01*
X45042499Y-44859001D02*
X45042499Y-51452999D01*
X47222500Y-72429000D02*
X47222500Y-72945000D01*
X43787500Y-67724000D02*
X45936500Y-69873000D01*
X48730500Y-79779000D02*
X48730500Y-76033891D01*
X45814501Y-82694999D02*
X48730500Y-79779000D01*
X48730500Y-76033891D02*
X48187499Y-75490890D01*
X48730500Y-79779000D02*
X48476500Y-79525000D01*
X48187499Y-73909999D02*
X47222500Y-72945000D01*
X43787500Y-65667586D02*
X43787500Y-67724000D01*
X45936500Y-69873000D02*
X45936500Y-70635000D01*
X48984500Y-60983000D02*
X47460500Y-60983000D01*
X64732500Y-55736652D02*
X64732500Y-53617000D01*
D34*
X144285300Y-49934000D02*
X144513900Y-49705400D01*
D32*
X63997500Y-45008000D02*
X64478500Y-45489000D01*
X64732500Y-72413000D02*
X65748500Y-72413000D01*
X63504151Y-82254651D02*
X63504151Y-75965001D01*
X64690849Y-64497349D02*
X64732500Y-64539000D01*
X63504151Y-72214999D02*
X63504151Y-64497349D01*
X64217326Y-72928174D02*
X64732500Y-72413000D01*
X63997500Y-39874000D02*
X63997500Y-45008000D01*
X64217326Y-72928174D02*
X63504151Y-72214999D01*
X64602501Y-73313349D02*
X64217326Y-72928174D01*
D34*
X133427000Y-61468872D02*
X133427000Y-61300300D01*
D32*
X63504151Y-75965001D02*
X64602501Y-74866651D01*
D34*
X133427000Y-61300300D02*
X140966000Y-53761300D01*
D32*
X64478500Y-45489000D02*
X64732500Y-45743000D01*
X64732500Y-53617000D02*
X64732500Y-46505000D01*
X63504151Y-64497349D02*
X63504151Y-56965001D01*
X64732500Y-45743000D02*
X64732500Y-46505000D01*
X64478500Y-83229000D02*
X63504151Y-82254651D01*
X66002500Y-37869000D02*
X63997500Y-39874000D01*
X64602501Y-74866651D02*
X64602501Y-73313349D01*
X63504151Y-56965001D02*
X64732500Y-55736652D01*
X63504151Y-64497349D02*
X64690849Y-64497349D01*
D34*
X140966000Y-53761300D02*
X140966000Y-49934000D01*
X140966000Y-49934000D02*
X144285300Y-49934000D01*
D32*
X64478500Y-83229000D02*
X64478500Y-84859000D01*
X64732500Y-53617000D02*
X65748500Y-53617000D01*
X82504151Y-81057349D02*
X82504151Y-73590001D01*
X83602501Y-53491651D02*
X83602501Y-43128999D01*
X82997500Y-41335000D02*
X82997500Y-37638000D01*
D34*
X133427000Y-62354877D02*
X143536477Y-52245400D01*
D32*
X83028849Y-81057349D02*
X83274500Y-81303000D01*
X82994826Y-54099326D02*
X83528500Y-54633000D01*
X82504151Y-62007349D02*
X82504151Y-54590001D01*
X83602501Y-70938349D02*
X82504151Y-69839999D01*
X83223826Y-72870326D02*
X83602501Y-72491651D01*
X93823501Y-95645999D02*
X93942500Y-95527000D01*
X83602501Y-43128999D02*
X83528500Y-43203000D01*
X82994826Y-54099326D02*
X83602501Y-53491651D01*
X82504151Y-82310651D02*
X82504151Y-81057349D01*
X83266151Y-62007349D02*
X83274500Y-61999000D01*
X82504151Y-69839999D02*
X82504151Y-62007349D01*
X93102501Y-94491651D02*
X93102501Y-92909001D01*
X82504151Y-73590001D02*
X83223826Y-72870326D01*
X82504151Y-81057349D02*
X83028849Y-81057349D01*
X93102501Y-92909001D02*
X82504151Y-82310651D01*
X92537499Y-95645999D02*
X92537499Y-95056653D01*
X83602501Y-41940001D02*
X82997500Y-41335000D01*
X82504151Y-62007349D02*
X83266151Y-62007349D01*
X83602501Y-72491651D02*
X83602501Y-70938349D01*
X83782500Y-73429000D02*
X84290500Y-73429000D01*
X83528500Y-54633000D02*
X84798500Y-54633000D01*
X83223826Y-72870326D02*
X83782500Y-73429000D01*
X93180500Y-103938002D02*
X92537499Y-103295001D01*
X83602501Y-43128999D02*
X83602501Y-41940001D01*
X82504151Y-54590001D02*
X82994826Y-54099326D01*
X92537499Y-95645999D02*
X93823501Y-95645999D01*
X92537499Y-95056653D02*
X93102501Y-94491651D01*
X82997500Y-37638000D02*
X85052500Y-35583000D01*
X83528500Y-43203000D02*
X82258500Y-43203000D01*
D34*
X133427000Y-62581226D02*
X133427000Y-62354877D01*
D32*
X93180500Y-105179000D02*
X93180500Y-103938002D01*
D34*
X143536477Y-52245400D02*
X144513900Y-52245400D01*
D32*
X92537499Y-103295001D02*
X92537499Y-95645999D01*
D34*
X133450000Y-63444231D02*
X140966000Y-55928231D01*
D32*
X103086500Y-65809000D02*
X103086500Y-61721414D01*
X101112500Y-82631000D02*
X101112500Y-75965001D01*
D34*
X112064501Y-106360999D02*
X111976500Y-106449000D01*
D32*
X101997500Y-43710000D02*
X101997500Y-39974000D01*
X104102500Y-47013000D02*
X104102500Y-45815000D01*
D34*
X111857088Y-100353000D02*
X112064501Y-100560413D01*
D32*
X103086500Y-65809000D02*
X102578500Y-65809000D01*
X101504151Y-57739349D02*
X103282151Y-57739349D01*
X102324500Y-59380586D02*
X102324500Y-58559698D01*
X103086500Y-61721414D02*
X102042499Y-60677413D01*
X101112500Y-75965001D02*
X101504151Y-75965001D01*
X103340500Y-84859000D02*
X101112500Y-82631000D01*
X104102500Y-45815000D02*
X101997500Y-43710000D01*
D34*
X112064501Y-100560413D02*
X112064501Y-106360999D01*
X100787500Y-90865554D02*
X100787500Y-87412000D01*
D32*
X103282151Y-57739349D02*
X103848500Y-57173000D01*
D34*
X100787500Y-90865554D02*
X102369642Y-90865554D01*
D32*
X103279500Y-84920000D02*
X103340500Y-84859000D01*
X101504151Y-57739349D02*
X101504151Y-56965001D01*
X102042499Y-60677413D02*
X102042499Y-59662587D01*
D34*
X133450000Y-63461904D02*
X133450000Y-63444231D01*
D32*
X101504151Y-75965001D02*
X102602501Y-74866651D01*
X104102500Y-54366652D02*
X104102500Y-47013000D01*
D34*
X102369642Y-90865554D02*
X111857088Y-100353000D01*
X140966000Y-55928231D02*
X140966000Y-55775059D01*
D32*
X104102500Y-47013000D02*
X102832500Y-47013000D01*
X102042499Y-59662587D02*
X102324500Y-59380586D01*
X102602501Y-74866651D02*
X102602501Y-73313349D01*
X103340500Y-84859000D02*
X102324500Y-84859000D01*
D34*
X141955659Y-54785400D02*
X144513900Y-54785400D01*
D32*
X103086500Y-72829350D02*
X103086500Y-65809000D01*
X102324500Y-58559698D02*
X101504151Y-57739349D01*
X102602501Y-73313349D02*
X103086500Y-72829350D01*
D34*
X140966000Y-55775059D02*
X141955659Y-54785400D01*
D32*
X101997500Y-39974000D02*
X104102500Y-37869000D01*
D34*
X111857088Y-100353000D02*
X113754500Y-100353000D01*
X100787500Y-87412000D02*
X103279500Y-84920000D01*
D32*
X101504151Y-56965001D02*
X104102500Y-54366652D01*
X121882500Y-49553000D02*
X121882500Y-54887000D01*
X130340700Y-71955800D02*
X131813900Y-70482600D01*
X120997500Y-48085000D02*
X121882500Y-48970000D01*
X122644500Y-87399000D02*
X120262500Y-85017000D01*
X120262500Y-85017000D02*
X120262500Y-78340001D01*
X123152500Y-40155000D02*
X120997500Y-42310000D01*
X122898500Y-55903000D02*
X122898500Y-56945652D01*
X121628500Y-77215652D02*
X121628500Y-73708400D01*
X121628500Y-78763000D02*
X122390500Y-78763000D01*
X125311500Y-71955800D02*
X130340700Y-71955800D01*
X145326700Y-58138200D02*
X144513900Y-57325400D01*
X119787500Y-91534704D02*
X124541796Y-96289000D01*
X121628500Y-73708400D02*
X121864000Y-73708400D01*
X122898500Y-56945652D02*
X121042499Y-58801653D01*
X120262500Y-78340001D02*
X120504151Y-78340001D01*
X124541796Y-96289000D02*
X130264500Y-96289000D01*
X121864000Y-73708400D02*
X123388000Y-72184400D01*
X120854826Y-77989326D02*
X121628500Y-77215652D01*
X121042499Y-58801653D02*
X121042499Y-66492999D01*
X119787500Y-91534704D02*
X119787500Y-90256000D01*
X145326700Y-66698000D02*
X145326700Y-58138200D01*
X121882500Y-48970000D02*
X121882500Y-49553000D01*
X121628500Y-73708400D02*
X121628500Y-67079000D01*
X119787500Y-90256000D02*
X122644500Y-87399000D01*
X120997500Y-42310000D02*
X120997500Y-48085000D01*
X121042499Y-66492999D02*
X121628500Y-67079000D01*
X120504151Y-78340001D02*
X120854826Y-77989326D01*
X121882500Y-54887000D02*
X122898500Y-55903000D01*
X122644500Y-87399000D02*
X121628500Y-87399000D01*
X120854826Y-77989326D02*
X121628500Y-78763000D01*
X143632400Y-58432800D02*
X142215000Y-57015400D01*
X143537500Y-59752600D02*
X143632400Y-59657700D01*
X143537500Y-78596000D02*
X143537500Y-59752600D01*
X143632400Y-59657700D02*
X143632400Y-58432800D01*
X144862500Y-79921000D02*
X143537500Y-78596000D01*
X129273900Y-54785400D02*
X127343500Y-54785400D01*
X128052686Y-58786598D02*
X130098702Y-58786598D01*
X127098900Y-55030000D02*
X127098900Y-57832812D01*
X130098702Y-58786598D02*
X131652500Y-60340396D01*
X131520038Y-69009400D02*
X129902528Y-70626910D01*
X131652500Y-69009400D02*
X131520038Y-69009400D01*
X129902528Y-70626910D02*
X129902528Y-70647032D01*
X131652500Y-60340396D02*
X131652500Y-69009400D01*
X127343500Y-54785400D02*
X127098900Y-55030000D01*
X127098900Y-57832812D02*
X128052686Y-58786598D01*
X126648900Y-58019208D02*
X127885492Y-59255800D01*
X127885492Y-59255800D02*
X129858100Y-59255800D01*
X131202500Y-60600200D02*
X131202500Y-68653800D01*
X129104324Y-70689244D02*
X129104150Y-70689418D01*
X131011876Y-68653800D02*
X129104324Y-70561352D01*
X129131488Y-52245400D02*
X126648900Y-54727988D01*
X129858100Y-59255800D02*
X131202500Y-60600200D01*
X129273900Y-52245400D02*
X129131488Y-52245400D01*
X131202500Y-68653800D02*
X131011876Y-68653800D01*
X129104324Y-70561352D02*
X129104324Y-70689244D01*
X126648900Y-54727988D02*
X126648900Y-58019208D01*
D33*
X143357500Y-84995000D02*
X141322500Y-84995000D01*
X141322500Y-84995000D02*
X141186500Y-84859000D01*
D32*
X200850656Y-42695000D02*
X197208627Y-42695000D01*
X175400300Y-52855000D02*
X175400300Y-43263788D01*
D35*
X253409533Y-47222033D02*
X250152500Y-43965000D01*
D32*
X175400300Y-43263788D02*
X170996112Y-38859600D01*
D35*
X270161714Y-52855000D02*
X267297500Y-52855000D01*
D32*
X170996112Y-38859600D02*
X155867700Y-38859600D01*
X155867700Y-41653600D02*
X156426500Y-42212400D01*
D35*
X256092975Y-48410000D02*
X254905008Y-47222033D01*
D32*
X225387500Y-42695000D02*
X221033627Y-42695000D01*
X245072500Y-44600000D02*
X238066067Y-44600000D01*
D35*
X283172500Y-54760000D02*
X272066714Y-54760000D01*
D32*
X238066067Y-44600000D02*
X235961500Y-42495433D01*
X221033627Y-42695000D02*
X219128627Y-44600000D01*
X155867700Y-38859600D02*
X155867700Y-41653600D01*
X232172933Y-42495433D02*
X231102500Y-41425000D01*
D35*
X272066714Y-54760000D02*
X270161714Y-52855000D01*
D32*
X192367500Y-47536127D02*
X192367500Y-48410000D01*
X235961500Y-42495433D02*
X232172933Y-42495433D01*
X219128627Y-44600000D02*
X212687500Y-44600000D01*
X187287500Y-52855000D02*
X175400300Y-52855000D01*
D35*
X264122500Y-48410000D02*
X256092975Y-48410000D01*
D32*
X197208627Y-42695000D02*
X192367500Y-47536127D01*
X206337500Y-44600000D02*
X202755656Y-44600000D01*
X202755656Y-44600000D02*
X200850656Y-42695000D01*
D35*
X254905008Y-47222033D02*
X253409533Y-47222033D01*
D32*
X169427377Y-62303800D02*
X175615868Y-62303800D01*
D34*
X194447500Y-66190000D02*
X192367500Y-64110000D01*
D35*
X282295973Y-67853473D02*
X275536448Y-67853473D01*
D32*
X187287500Y-59840000D02*
X182842500Y-59840000D01*
X265392500Y-67460000D02*
X265392500Y-67708884D01*
D34*
X210782500Y-64920000D02*
X210055931Y-64193431D01*
D35*
X269222831Y-71925331D02*
X267297500Y-70000000D01*
D32*
X176546000Y-63233932D02*
X175857500Y-62545432D01*
D35*
X283807500Y-69365000D02*
X282295973Y-67853473D01*
X267297500Y-70000000D02*
X267297500Y-67910000D01*
D32*
X258877933Y-67295433D02*
X256337933Y-67295433D01*
X263736384Y-69365000D02*
X260947500Y-69365000D01*
X253259582Y-66508198D02*
X251036384Y-64285000D01*
X182842500Y-59840000D02*
X180302500Y-62380000D01*
X180302500Y-63015000D02*
X179032500Y-64285000D01*
X255550698Y-66508198D02*
X253259582Y-66508198D01*
D35*
X272495269Y-66768831D02*
X271107500Y-68156600D01*
X271107500Y-71270000D02*
X270452169Y-71925331D01*
D34*
X198019760Y-66190000D02*
X194447500Y-66190000D01*
D35*
X271107500Y-68156600D02*
X271107500Y-71270000D01*
X275536448Y-67853473D02*
X274451806Y-66768831D01*
X274451806Y-66768831D02*
X272495269Y-66768831D01*
D32*
X256337933Y-67295433D02*
X255550698Y-66508198D01*
X251036384Y-64285000D02*
X250152500Y-64285000D01*
X175615868Y-62303800D02*
X175857500Y-62545432D01*
X187922500Y-60475000D02*
X187287500Y-59840000D01*
X179032500Y-64285000D02*
X176546000Y-64285000D01*
D35*
X270452169Y-71925331D02*
X269222831Y-71925331D01*
D34*
X210055931Y-64193431D02*
X200016329Y-64193431D01*
D32*
X180302500Y-62380000D02*
X180302500Y-63015000D01*
X260947500Y-69365000D02*
X258877933Y-67295433D01*
D34*
X200016329Y-64193431D02*
X198019760Y-66190000D01*
D32*
X265392500Y-67708884D02*
X263736384Y-69365000D01*
X176546000Y-64285000D02*
X176546000Y-63233932D01*
D35*
X283172500Y-56665000D02*
X277619796Y-56665000D01*
X277619796Y-56665000D02*
X273455268Y-60829528D01*
D32*
X250152500Y-66825000D02*
X250152500Y-68095000D01*
X251422500Y-65555000D02*
X250152500Y-66825000D01*
X242532500Y-57300000D02*
X243167500Y-57935000D01*
X243167500Y-57935000D02*
X245707500Y-57935000D01*
X224887763Y-56030000D02*
X222047323Y-53189560D01*
X226022500Y-56030000D02*
X224887763Y-56030000D01*
X222047323Y-53189560D02*
X222047323Y-52594644D01*
X210982501Y-82370433D02*
X210782500Y-82170432D01*
D34*
X175514847Y-64577347D02*
X175222500Y-64285000D01*
X175034847Y-74530432D02*
X175034847Y-68680433D01*
D32*
X191932501Y-84745433D02*
X191732500Y-84545432D01*
X186059848Y-79567348D02*
X181502932Y-75010432D01*
X191732500Y-84545432D02*
X188076090Y-84545432D01*
X181502932Y-75010432D02*
X175514847Y-75010432D01*
X217461498Y-82370433D02*
X210982501Y-82370433D01*
X201036499Y-82170432D02*
X198461498Y-84745433D01*
D34*
X175514847Y-68200433D02*
X175514847Y-64577347D01*
D32*
X188076090Y-84545432D02*
X186059848Y-82529190D01*
D34*
X175514847Y-75010432D02*
X175034847Y-74530432D01*
D32*
X186059848Y-82529190D02*
X186059848Y-79567348D01*
D34*
X175034847Y-68680433D02*
X175514847Y-68200433D01*
X173950537Y-63013037D02*
X169058342Y-63013037D01*
D32*
X210782500Y-82170432D02*
X201036499Y-82170432D01*
X220306931Y-79525000D02*
X217461498Y-82370433D01*
X226657500Y-79525000D02*
X220306931Y-79525000D01*
D34*
X175222500Y-64285000D02*
X173950537Y-63013037D01*
D32*
X198461498Y-84745433D02*
X191932501Y-84745433D01*
D35*
X185872752Y-54789290D02*
X189798210Y-54789290D01*
X189798210Y-54789290D02*
X189827500Y-54760000D01*
X282537500Y-81430000D02*
X279362500Y-81430000D01*
X283172500Y-82065000D02*
X282537500Y-81430000D01*
D32*
X264757500Y-75715000D02*
X257772500Y-75715000D01*
X257772500Y-75715000D02*
X253962500Y-79525000D01*
X199651498Y-74755431D02*
X197137069Y-74755431D01*
X201066499Y-76170432D02*
X199651498Y-74755431D01*
X210782500Y-76170432D02*
X201066499Y-76170432D01*
X197137069Y-74755431D02*
X196812500Y-75080000D01*
X181572500Y-85240000D02*
X179032500Y-87780000D01*
X187287500Y-85240000D02*
X181572500Y-85240000D01*
D34*
X183477500Y-71270000D02*
X183477500Y-75715000D01*
D32*
X204247933Y-100120433D02*
X202527500Y-98400000D01*
X202527500Y-98400000D02*
X198406734Y-98400000D01*
D34*
X182207500Y-70000000D02*
X183477500Y-71270000D01*
X181713957Y-90813543D02*
X190820277Y-90813543D01*
D32*
X209567933Y-101170433D02*
X208517933Y-100120433D01*
X156426500Y-49337952D02*
X159437252Y-46327200D01*
D34*
X181572500Y-90955000D02*
X181713957Y-90813543D01*
D32*
X159437252Y-46327200D02*
X160363500Y-46327200D01*
X220204067Y-101170433D02*
X209567933Y-101170433D01*
X221831500Y-99543000D02*
X220204067Y-101170433D01*
X208517933Y-100120433D02*
X204247933Y-100120433D01*
X156426500Y-49832400D02*
X156426500Y-49337952D01*
X198406734Y-98400000D02*
X190820277Y-90813543D01*
X159474500Y-62024400D02*
X159957100Y-61541800D01*
X161684300Y-48664000D02*
X162293900Y-48054400D01*
X157036100Y-62024400D02*
X159474500Y-62024400D01*
X161684300Y-56614200D02*
X161684300Y-48664000D01*
X262852500Y-62272779D02*
X262852500Y-68095000D01*
X262852500Y-68095000D02*
X263487500Y-68730000D01*
D34*
X170091700Y-49832400D02*
X171666500Y-49832400D01*
D32*
X245072500Y-66825000D02*
X246977500Y-68730000D01*
X246977500Y-68730000D02*
X246977500Y-71905000D01*
D34*
X162446300Y-57477800D02*
X170091700Y-49832400D01*
X169101100Y-52372400D02*
X171666500Y-52372400D01*
X162547900Y-58925600D02*
X169101100Y-52372400D01*
D32*
X225387500Y-85240000D02*
X225387500Y-85358500D01*
X227927500Y-64285000D02*
X227927500Y-70000000D01*
X227292500Y-83335000D02*
X225387500Y-85240000D01*
X227927500Y-70000000D02*
X229197500Y-71270000D01*
X206972500Y-70000000D02*
X208242500Y-71270000D01*
D34*
X167602500Y-54912400D02*
X171666500Y-54912400D01*
X161963700Y-60551200D02*
X167602500Y-54912400D01*
D32*
X206972500Y-66190000D02*
X206972500Y-70000000D01*
X188557500Y-72592080D02*
X189192500Y-73227080D01*
X188557500Y-69365000D02*
X188557500Y-72592080D01*
X132102500Y-69310116D02*
X131397358Y-70015258D01*
X131397358Y-70015964D02*
X130699211Y-70714111D01*
X131397358Y-70015258D02*
X131397358Y-70015964D01*
X141918500Y-74567400D02*
X141918500Y-77168000D01*
X141418823Y-74067723D02*
X141918500Y-74567400D01*
X132102500Y-60154000D02*
X132102500Y-69272600D01*
X129273900Y-57325400D02*
X132102500Y-60154000D01*
X132102500Y-69272600D02*
X132102500Y-69310116D01*
X162522500Y-80160000D02*
X161870000Y-79507500D01*
X162522500Y-82700000D02*
X162522500Y-80160000D01*
D33*
X164067500Y-77310000D02*
X161870000Y-79507500D01*
X155323100Y-69836400D02*
X155323100Y-61577750D01*
X160750000Y-56150850D02*
X160750000Y-48758900D01*
X164009700Y-71092200D02*
X156578900Y-71092200D01*
X165512500Y-72595000D02*
X164009700Y-71092200D01*
X156578900Y-71092200D02*
X155323100Y-69836400D01*
X155323100Y-61577750D02*
X160750000Y-56150850D01*
X160750000Y-48758900D02*
X160585500Y-48594400D01*
X160585500Y-48594400D02*
X159601500Y-47610400D01*
X160585500Y-48531400D02*
X165316500Y-43800400D01*
X160585500Y-48594400D02*
X160585500Y-48531400D01*
X166607500Y-77310000D02*
X166947500Y-77310000D01*
D32*
X159804700Y-64666000D02*
X157798100Y-64666000D01*
D33*
X157562500Y-83495000D02*
X157762500Y-83295000D01*
X154623100Y-61287800D02*
X159601500Y-56309400D01*
X157762500Y-73266822D02*
X154623100Y-70127422D01*
X157762500Y-83295000D02*
X157762500Y-73266822D01*
X154623100Y-70127422D02*
X154623100Y-61287800D01*
X159601500Y-56309400D02*
X159601500Y-49515400D01*
D32*
X134353900Y-47483400D02*
X132448900Y-47483400D01*
X138163900Y-43673400D02*
X134353900Y-47483400D01*
X144158300Y-47521000D02*
X144513900Y-47165400D01*
M02*
