M48
; DRILL file {KiCad (7.0.0-0)} date Saturday, March 11, 2023 at 08:20:33 PM
; FORMAT={-:-/ absolute / inch / decimal}
; #@! TF.CreationDate,2023-03-11T20:20:33-05:00
; #@! TF.GenerationSoftware,Kicad,Pcbnew,(7.0.0-0)
; #@! TF.FileFunction,NonPlated,1,2,NPTH
FMAT,2
INCH
; #@! TA.AperFunction,NonPlated,NPTH,ComponentDrill
T1C0.0039
; #@! TA.AperFunction,NonPlated,NPTH,ComponentDrill
T2C0.0118
; #@! TA.AperFunction,NonPlated,NPTH,ComponentDrill
T3C0.0354
; #@! TA.AperFunction,NonPlated,NPTH,ComponentDrill
T4C0.0669
; #@! TA.AperFunction,NonPlated,NPTH,ComponentDrill
T5C0.0748
; #@! TA.AperFunction,NonPlated,NPTH,ComponentDrill
T6C0.0906
; #@! TA.AperFunction,NonPlated,NPTH,ComponentDrill
T7C0.1181
; #@! TA.AperFunction,NonPlated,NPTH,ComponentDrill
T8C0.1575
; #@! TA.AperFunction,NonPlated,NPTH,ComponentDrill
T9C0.1693
%
G90
G05
T1
X5.0311Y-4.2251
X6.6383Y-4.3267
T2
X0.7804Y-3.6764
X0.8037Y-3.6764
X0.8271Y-3.6764
X0.8505Y-3.6764
X0.8739Y-3.6764
X0.8972Y-3.6764
X0.9206Y-3.6764
X0.944Y-3.6764
X0.9674Y-3.6764
X2.276Y-3.6764
X2.28Y-1.2587
X2.2993Y-3.6764
X2.3034Y-1.2587
X2.3227Y-3.6764
X2.3268Y-1.2587
X2.3461Y-3.6764
X2.3501Y-1.2587
X2.3695Y-3.6764
X2.3735Y-1.2587
X2.3928Y-3.6764
X2.3969Y-1.2587
X2.4162Y-3.6764
X2.4203Y-1.2587
X2.4396Y-3.6764
X2.4437Y-1.2587
X2.463Y-3.6764
X2.467Y-1.2587
X3.7749Y-1.2587
X3.7983Y-1.2587
X3.8217Y-1.2587
X3.845Y-1.2587
X3.8684Y-1.2587
X3.8918Y-1.2587
X3.9152Y-1.2587
X3.9385Y-1.2587
X3.9619Y-1.2587
X7.8899Y-1.2591
X7.9132Y-1.2591
X7.9366Y-1.2591
X7.96Y-1.2591
X7.9834Y-1.2591
X8.0067Y-1.2591
X8.0301Y-1.2591
X8.0535Y-1.2591
X8.0769Y-1.2591
X9.3867Y-1.2587
X9.3879Y-3.6768
X9.4101Y-1.2587
X9.4113Y-3.6768
X9.4335Y-1.2587
X9.4346Y-3.6768
X9.4568Y-1.2587
X9.458Y-3.6768
X9.4802Y-1.2587
X9.4814Y-3.6768
X9.5036Y-1.2587
X9.5048Y-3.6768
X9.527Y-1.2587
X9.5281Y-3.6768
X9.5503Y-1.2587
X9.5515Y-3.6768
X9.5737Y-1.2587
X9.5749Y-3.6768
X10.884Y-3.6768
X10.9073Y-3.6768
X10.9307Y-3.6768
X10.9541Y-3.6768
X10.9775Y-3.6768
X11.0008Y-3.6768
X11.0242Y-3.6768
X11.0476Y-3.6768
X11.071Y-3.6768
T3
X5.7133Y-3.3167
X5.7133Y-3.4348
X6.134Y-3.3167
X6.134Y-3.4348
T4
X0.6735Y-1.8079
X0.6735Y-2.5559
X0.6735Y-3.3039
X1.0735Y-1.8079
X1.0735Y-2.5559
X1.0735Y-3.3039
X1.4216Y-1.8079
X1.4216Y-2.5559
X1.4216Y-3.3039
X1.8216Y-1.8079
X1.8216Y-2.5559
X1.8216Y-3.3039
X2.1696Y-1.6209
X2.1696Y-2.3689
X2.1696Y-3.1169
X2.5696Y-1.6209
X2.5696Y-2.3689
X2.5696Y-3.1169
X2.9176Y-1.5274
X2.9176Y-2.2754
X2.9176Y-3.0234
X3.2916Y-3.8896
X3.3176Y-1.5274
X3.3176Y-2.2754
X3.3176Y-3.0234
X3.6656Y-1.6209
X3.6656Y-2.3689
X3.6656Y-3.1169
X3.6916Y-3.8896
X4.0656Y-1.6209
X4.0656Y-2.3689
X4.0656Y-3.1169
X4.1252Y-3.9461
X4.4137Y-1.7144
X4.4137Y-2.4624
X4.4137Y-3.2104
X4.5116Y-4.0496
X4.8137Y-1.7144
X4.8137Y-2.4624
X4.8137Y-3.2104
X5.0944Y-4.3187
X5.2944Y-3.9723
X6.551Y-3.9723
X6.751Y-4.3187
X7.0317Y-1.7144
X7.0317Y-2.4624
X7.0317Y-3.2105
X7.3338Y-4.0496
X7.4317Y-1.7144
X7.4317Y-2.4624
X7.4317Y-3.2105
X7.7201Y-3.9461
X7.7797Y-1.6209
X7.7797Y-2.3689
X7.7797Y-3.1169
X8.1537Y-3.8896
X8.1797Y-1.6209
X8.1797Y-2.3689
X8.1797Y-3.1169
X8.5277Y-1.5274
X8.5277Y-2.2754
X8.5277Y-3.0234
X8.5537Y-3.8896
X8.9277Y-1.5274
X8.9277Y-2.2754
X8.9277Y-3.0234
X9.2758Y-1.6209
X9.2758Y-2.3689
X9.2758Y-3.1169
X9.6758Y-1.6209
X9.6758Y-2.3689
X9.6758Y-3.1169
X10.0238Y-1.8079
X10.0238Y-2.5559
X10.0238Y-3.304
X10.4238Y-1.8079
X10.4238Y-2.5559
X10.4238Y-3.304
X10.7718Y-1.8079
X10.7718Y-2.5559
X10.7718Y-3.304
X11.1718Y-1.8079
X11.1718Y-2.5559
X11.1718Y-3.304
T5
X0.657Y-1.8079
X0.657Y-2.5559
X0.657Y-3.3039
X1.0901Y-1.8079
X1.0901Y-2.5559
X1.0901Y-3.3039
X1.405Y-1.8079
X1.405Y-2.5559
X1.405Y-3.3039
X1.8381Y-1.8079
X1.8381Y-2.5559
X1.8381Y-3.3039
X2.1531Y-1.6209
X2.1531Y-2.3689
X2.1531Y-3.1169
X2.5861Y-1.6209
X2.5861Y-2.3689
X2.5861Y-3.1169
X2.9011Y-1.5274
X2.9011Y-2.2754
X2.9011Y-3.0234
X3.2751Y-3.8896
X3.3342Y-1.5274
X3.3342Y-2.2754
X3.3342Y-3.0234
X3.6491Y-1.6209
X3.6491Y-2.3689
X3.6491Y-3.1169
X3.7082Y-3.8896
X4.0822Y-1.6209
X4.0822Y-2.3689
X4.0822Y-3.1169
X4.1092Y-3.9418
X4.3971Y-1.7144
X4.3971Y-2.4624
X4.3971Y-3.2104
X4.5276Y-4.0539
X4.8302Y-1.7144
X4.8302Y-2.4624
X4.8302Y-3.2104
X5.0861Y-4.333
X5.3027Y-3.9579
X6.5427Y-3.958
X6.7592Y-4.333
X7.0152Y-1.7144
X7.0152Y-2.4624
X7.0152Y-3.2105
X7.3178Y-4.0539
X7.4482Y-1.7144
X7.4482Y-2.4624
X7.4482Y-3.2105
X7.7361Y-3.9418
X7.7632Y-1.6209
X7.7632Y-2.3689
X7.7632Y-3.1169
X8.1372Y-3.8896
X8.1963Y-1.6209
X8.1963Y-2.3689
X8.1963Y-3.1169
X8.5112Y-1.5274
X8.5112Y-2.2754
X8.5112Y-3.0234
X8.5703Y-3.8896
X8.9443Y-1.5274
X8.9443Y-2.2754
X8.9443Y-3.0234
X9.2592Y-1.6209
X9.2592Y-2.3689
X9.2592Y-3.1169
X9.6923Y-1.6209
X9.6923Y-2.3689
X9.6923Y-3.1169
X10.0073Y-1.8079
X10.0073Y-2.5559
X10.0073Y-3.304
X10.4403Y-1.8079
X10.4403Y-2.5559
X10.4403Y-3.304
X10.7553Y-1.8079
X10.7553Y-2.5559
X10.7553Y-3.304
X11.1884Y-1.8079
X11.1884Y-2.5559
X11.1884Y-3.304
T6
X5.1159Y-3.3236
X5.6841Y-3.6591
X6.1548Y-3.6648
X6.7279Y-3.3284
T7
X0.6767Y-1.9535
X0.6767Y-2.7016
X0.6767Y-3.4496
X0.7235Y-1.7079
X0.7235Y-2.4559
X0.7235Y-3.2039
X0.8735Y-2.0402
X0.8735Y-2.7882
X0.8735Y-3.5362
X0.9735Y-1.6079
X0.9735Y-2.3559
X0.9735Y-3.1039
X1.4247Y-1.9535
X1.4247Y-2.7016
X1.4247Y-3.4496
X1.4716Y-1.7079
X1.4716Y-2.4559
X1.4716Y-3.2039
X1.6216Y-2.0402
X1.6216Y-2.7882
X1.6216Y-3.5362
X1.7216Y-1.6079
X1.7216Y-2.3559
X1.7216Y-3.1039
X2.1727Y-1.7665
X2.1727Y-2.5146
X2.1727Y-3.2626
X2.2196Y-1.5209
X2.2196Y-2.2689
X2.2196Y-3.0169
X2.3696Y-1.8531
X2.3696Y-2.6012
X2.3696Y-3.3492
X2.4696Y-1.4209
X2.4696Y-2.1689
X2.4696Y-2.9169
X2.9208Y-1.673
X2.9208Y-2.4211
X2.9208Y-3.1691
X2.9676Y-1.4274
X2.9676Y-2.1754
X2.9676Y-2.9234
X3.1176Y-1.7596
X3.1176Y-2.5077
X3.1176Y-3.2557
X3.2176Y-1.3274
X3.2176Y-2.0754
X3.2176Y-2.8234
X3.2948Y-4.0352
X3.3416Y-3.7896
X3.4916Y-4.1219
X3.5916Y-3.6896
X3.6688Y-1.7665
X3.6688Y-2.5146
X3.6688Y-3.2626
X3.7156Y-1.5209
X3.7156Y-2.2689
X3.7156Y-3.0169
X3.8656Y-1.8531
X3.8656Y-2.6012
X3.8656Y-3.3492
X3.9656Y-1.4209
X3.9656Y-2.1689
X3.9656Y-2.9169
X4.0906Y-4.0876
X4.1994Y-3.8624
X4.2583Y-4.2222
X4.4168Y-1.86
X4.4168Y-2.6081
X4.4168Y-3.3561
X4.4637Y-1.6144
X4.4637Y-2.3624
X4.4637Y-3.1104
X4.4668Y-3.8305
X4.6137Y-1.9467
X4.6137Y-2.6947
X4.6137Y-3.4427
X4.7137Y-1.5144
X4.7137Y-2.2624
X4.7137Y-3.0104
X5.0328Y-4.2254
X5.0712Y-3.9589
X5.2221Y-4.3888
X5.3956Y-4.2616
X6.4278Y-4.1589
X6.6394Y-4.3254
X6.8521Y-4.0293
X6.8756Y-4.2431
X7.0348Y-1.8601
X7.0348Y-2.6081
X7.0348Y-3.3561
X7.0817Y-1.6144
X7.0817Y-2.3624
X7.0817Y-3.1105
X7.2317Y-1.9467
X7.2317Y-2.6947
X7.2317Y-3.4427
X7.3317Y-1.5144
X7.3317Y-2.2624
X7.3317Y-3.0105
X7.3562Y-3.9401
X7.3745Y-4.1895
X7.5718Y-3.7788
X7.5871Y-4.2222
X7.7829Y-1.7666
X7.7829Y-2.5146
X7.7829Y-3.2626
X7.8297Y-1.5209
X7.8297Y-2.2689
X7.8297Y-3.0169
X7.9797Y-1.8532
X7.9797Y-2.6012
X7.9797Y-3.3492
X8.0797Y-1.4209
X8.0797Y-2.1689
X8.0797Y-2.9169
X8.1569Y-4.0353
X8.2037Y-3.7896
X8.3537Y-4.1219
X8.4537Y-3.6896
X8.5309Y-1.673
X8.5309Y-2.4211
X8.5309Y-3.1691
X8.5777Y-1.4274
X8.5777Y-2.1754
X8.5777Y-2.9234
X8.7277Y-1.7597
X8.7277Y-2.5077
X8.7277Y-3.2557
X8.8277Y-1.3274
X8.8277Y-2.0754
X8.8277Y-2.8234
X9.2789Y-1.7666
X9.2789Y-2.5146
X9.2789Y-3.2626
X9.3258Y-1.5209
X9.3258Y-2.2689
X9.3258Y-3.0169
X9.4758Y-1.8532
X9.4758Y-2.6012
X9.4758Y-3.3492
X9.5758Y-1.4209
X9.5758Y-2.1689
X9.5758Y-2.9169
X10.027Y-1.9536
X10.027Y-2.7016
X10.027Y-3.4496
X10.0738Y-1.7079
X10.0738Y-2.4559
X10.0738Y-3.204
X10.2238Y-2.0402
X10.2238Y-2.7882
X10.2238Y-3.5362
X10.3238Y-1.6079
X10.3238Y-2.3559
X10.3238Y-3.104
X10.775Y-1.9536
X10.775Y-2.7016
X10.775Y-3.4496
X10.8218Y-1.7079
X10.8218Y-2.4559
X10.8218Y-3.204
X10.9718Y-2.0402
X10.9718Y-2.7882
X10.9718Y-3.5362
X11.0718Y-1.6079
X11.0718Y-2.3559
X11.0718Y-3.104
T8
X0.8735Y-1.8079
X0.8735Y-2.5559
X0.8735Y-3.3039
X1.6216Y-1.8079
X1.6216Y-2.5559
X1.6216Y-3.3039
X2.3696Y-1.6209
X2.3696Y-2.3689
X2.3696Y-3.1169
X3.1176Y-1.5274
X3.1176Y-2.2754
X3.1176Y-3.0234
X3.4916Y-3.8896
X3.8656Y-1.6209
X3.8656Y-2.3689
X3.8656Y-3.1169
X4.3184Y-3.9978
X4.6137Y-1.7144
X4.6137Y-2.4624
X4.6137Y-3.2104
X5.1944Y-4.1455
X6.651Y-4.1455
X7.2317Y-1.7144
X7.2317Y-2.4624
X7.2317Y-3.2105
X7.527Y-3.9979
X7.9797Y-1.6209
X7.9797Y-2.3689
X7.9797Y-3.1169
X8.3537Y-3.8896
X8.7277Y-1.5274
X8.7277Y-2.2754
X8.7277Y-3.0234
X9.4758Y-1.6209
X9.4758Y-2.3689
X9.4758Y-3.1169
X10.2238Y-1.8079
X10.2238Y-2.5559
X10.2238Y-3.304
X10.9718Y-1.8079
X10.9718Y-2.5559
X10.9718Y-3.304
T9
X1.2479Y-2.1819
X1.2479Y-2.9299
X1.9966Y-2.1829
X1.9966Y-2.9309
X2.9464Y-3.6097
X4.2382Y-2.0445
X4.7797Y-3.9094
X7.0664Y-3.9152
X7.6077Y-2.0448
X8.8998Y-3.6101
X9.8509Y-2.1822
X9.8509Y-2.9302
X10.5983Y-2.1822
X10.5983Y-2.9302
T0
M30
