G04 #@! TF.GenerationSoftware,KiCad,Pcbnew,(7.0.0-0)*
G04 #@! TF.CreationDate,2023-03-11T20:23:52-05:00*
G04 #@! TF.ProjectId,corne-ultralight,636f726e-652d-4756-9c74-72616c696768,2.0*
G04 #@! TF.SameCoordinates,Original*
G04 #@! TF.FileFunction,AssemblyDrawing,Bot*
%FSLAX46Y46*%
G04 Gerber Fmt 4.6, Leading zero omitted, Abs format (unit mm)*
G04 Created by KiCad (PCBNEW (7.0.0-0)) date 2023-03-11 20:23:52*
%MOMM*%
%LPD*%
G01*
G04 APERTURE LIST*
%ADD10C,0.150000*%
G04 APERTURE END LIST*
D10*
X141661004Y-94897380D02*
X141089576Y-94897380D01*
X141375290Y-95897380D02*
X141375290Y-94897380D01*
X140756242Y-95897380D02*
X140756242Y-94897380D01*
X140756242Y-94897380D02*
X140375290Y-94897380D01*
X140375290Y-94897380D02*
X140280052Y-94945000D01*
X140280052Y-94945000D02*
X140232433Y-94992619D01*
X140232433Y-94992619D02*
X140184814Y-95087857D01*
X140184814Y-95087857D02*
X140184814Y-95230714D01*
X140184814Y-95230714D02*
X140232433Y-95325952D01*
X140232433Y-95325952D02*
X140280052Y-95373571D01*
X140280052Y-95373571D02*
X140375290Y-95421190D01*
X140375290Y-95421190D02*
X140756242Y-95421190D01*
X139803861Y-94992619D02*
X139756242Y-94945000D01*
X139756242Y-94945000D02*
X139661004Y-94897380D01*
X139661004Y-94897380D02*
X139422909Y-94897380D01*
X139422909Y-94897380D02*
X139327671Y-94945000D01*
X139327671Y-94945000D02*
X139280052Y-94992619D01*
X139280052Y-94992619D02*
X139232433Y-95087857D01*
X139232433Y-95087857D02*
X139232433Y-95183095D01*
X139232433Y-95183095D02*
X139280052Y-95325952D01*
X139280052Y-95325952D02*
X139851480Y-95897380D01*
X139851480Y-95897380D02*
X139232433Y-95897380D01*
X141661004Y-94895380D02*
X141089576Y-94895380D01*
X141375290Y-95895380D02*
X141375290Y-94895380D01*
X140756242Y-95895380D02*
X140756242Y-94895380D01*
X140756242Y-94895380D02*
X140375290Y-94895380D01*
X140375290Y-94895380D02*
X140280052Y-94943000D01*
X140280052Y-94943000D02*
X140232433Y-94990619D01*
X140232433Y-94990619D02*
X140184814Y-95085857D01*
X140184814Y-95085857D02*
X140184814Y-95228714D01*
X140184814Y-95228714D02*
X140232433Y-95323952D01*
X140232433Y-95323952D02*
X140280052Y-95371571D01*
X140280052Y-95371571D02*
X140375290Y-95419190D01*
X140375290Y-95419190D02*
X140756242Y-95419190D01*
X139803861Y-94990619D02*
X139756242Y-94943000D01*
X139756242Y-94943000D02*
X139661004Y-94895380D01*
X139661004Y-94895380D02*
X139422909Y-94895380D01*
X139422909Y-94895380D02*
X139327671Y-94943000D01*
X139327671Y-94943000D02*
X139280052Y-94990619D01*
X139280052Y-94990619D02*
X139232433Y-95085857D01*
X139232433Y-95085857D02*
X139232433Y-95181095D01*
X139232433Y-95181095D02*
X139280052Y-95323952D01*
X139280052Y-95323952D02*
X139851480Y-95895380D01*
X139851480Y-95895380D02*
X139232433Y-95895380D01*
X163784404Y-93754380D02*
X163212976Y-93754380D01*
X163498690Y-94754380D02*
X163498690Y-93754380D01*
X162879642Y-94754380D02*
X162879642Y-93754380D01*
X162879642Y-93754380D02*
X162498690Y-93754380D01*
X162498690Y-93754380D02*
X162403452Y-93802000D01*
X162403452Y-93802000D02*
X162355833Y-93849619D01*
X162355833Y-93849619D02*
X162308214Y-93944857D01*
X162308214Y-93944857D02*
X162308214Y-94087714D01*
X162308214Y-94087714D02*
X162355833Y-94182952D01*
X162355833Y-94182952D02*
X162403452Y-94230571D01*
X162403452Y-94230571D02*
X162498690Y-94278190D01*
X162498690Y-94278190D02*
X162879642Y-94278190D01*
X161403452Y-93754380D02*
X161879642Y-93754380D01*
X161879642Y-93754380D02*
X161927261Y-94230571D01*
X161927261Y-94230571D02*
X161879642Y-94182952D01*
X161879642Y-94182952D02*
X161784404Y-94135333D01*
X161784404Y-94135333D02*
X161546309Y-94135333D01*
X161546309Y-94135333D02*
X161451071Y-94182952D01*
X161451071Y-94182952D02*
X161403452Y-94230571D01*
X161403452Y-94230571D02*
X161355833Y-94325809D01*
X161355833Y-94325809D02*
X161355833Y-94563904D01*
X161355833Y-94563904D02*
X161403452Y-94659142D01*
X161403452Y-94659142D02*
X161451071Y-94706761D01*
X161451071Y-94706761D02*
X161546309Y-94754380D01*
X161546309Y-94754380D02*
X161784404Y-94754380D01*
X161784404Y-94754380D02*
X161879642Y-94706761D01*
X161879642Y-94706761D02*
X161927261Y-94659142D01*
X163784404Y-93752380D02*
X163212976Y-93752380D01*
X163498690Y-94752380D02*
X163498690Y-93752380D01*
X162879642Y-94752380D02*
X162879642Y-93752380D01*
X162879642Y-93752380D02*
X162498690Y-93752380D01*
X162498690Y-93752380D02*
X162403452Y-93800000D01*
X162403452Y-93800000D02*
X162355833Y-93847619D01*
X162355833Y-93847619D02*
X162308214Y-93942857D01*
X162308214Y-93942857D02*
X162308214Y-94085714D01*
X162308214Y-94085714D02*
X162355833Y-94180952D01*
X162355833Y-94180952D02*
X162403452Y-94228571D01*
X162403452Y-94228571D02*
X162498690Y-94276190D01*
X162498690Y-94276190D02*
X162879642Y-94276190D01*
X161403452Y-93752380D02*
X161879642Y-93752380D01*
X161879642Y-93752380D02*
X161927261Y-94228571D01*
X161927261Y-94228571D02*
X161879642Y-94180952D01*
X161879642Y-94180952D02*
X161784404Y-94133333D01*
X161784404Y-94133333D02*
X161546309Y-94133333D01*
X161546309Y-94133333D02*
X161451071Y-94180952D01*
X161451071Y-94180952D02*
X161403452Y-94228571D01*
X161403452Y-94228571D02*
X161355833Y-94323809D01*
X161355833Y-94323809D02*
X161355833Y-94561904D01*
X161355833Y-94561904D02*
X161403452Y-94657142D01*
X161403452Y-94657142D02*
X161451071Y-94704761D01*
X161451071Y-94704761D02*
X161546309Y-94752380D01*
X161546309Y-94752380D02*
X161784404Y-94752380D01*
X161784404Y-94752380D02*
X161879642Y-94704761D01*
X161879642Y-94704761D02*
X161927261Y-94657142D01*
X167594404Y-91849380D02*
X167022976Y-91849380D01*
X167308690Y-92849380D02*
X167308690Y-91849380D01*
X166689642Y-92849380D02*
X166689642Y-91849380D01*
X166689642Y-91849380D02*
X166308690Y-91849380D01*
X166308690Y-91849380D02*
X166213452Y-91897000D01*
X166213452Y-91897000D02*
X166165833Y-91944619D01*
X166165833Y-91944619D02*
X166118214Y-92039857D01*
X166118214Y-92039857D02*
X166118214Y-92182714D01*
X166118214Y-92182714D02*
X166165833Y-92277952D01*
X166165833Y-92277952D02*
X166213452Y-92325571D01*
X166213452Y-92325571D02*
X166308690Y-92373190D01*
X166308690Y-92373190D02*
X166689642Y-92373190D01*
X165261071Y-91849380D02*
X165451547Y-91849380D01*
X165451547Y-91849380D02*
X165546785Y-91897000D01*
X165546785Y-91897000D02*
X165594404Y-91944619D01*
X165594404Y-91944619D02*
X165689642Y-92087476D01*
X165689642Y-92087476D02*
X165737261Y-92277952D01*
X165737261Y-92277952D02*
X165737261Y-92658904D01*
X165737261Y-92658904D02*
X165689642Y-92754142D01*
X165689642Y-92754142D02*
X165642023Y-92801761D01*
X165642023Y-92801761D02*
X165546785Y-92849380D01*
X165546785Y-92849380D02*
X165356309Y-92849380D01*
X165356309Y-92849380D02*
X165261071Y-92801761D01*
X165261071Y-92801761D02*
X165213452Y-92754142D01*
X165213452Y-92754142D02*
X165165833Y-92658904D01*
X165165833Y-92658904D02*
X165165833Y-92420809D01*
X165165833Y-92420809D02*
X165213452Y-92325571D01*
X165213452Y-92325571D02*
X165261071Y-92277952D01*
X165261071Y-92277952D02*
X165356309Y-92230333D01*
X165356309Y-92230333D02*
X165546785Y-92230333D01*
X165546785Y-92230333D02*
X165642023Y-92277952D01*
X165642023Y-92277952D02*
X165689642Y-92325571D01*
X165689642Y-92325571D02*
X165737261Y-92420809D01*
X167594404Y-91847380D02*
X167022976Y-91847380D01*
X167308690Y-92847380D02*
X167308690Y-91847380D01*
X166689642Y-92847380D02*
X166689642Y-91847380D01*
X166689642Y-91847380D02*
X166308690Y-91847380D01*
X166308690Y-91847380D02*
X166213452Y-91895000D01*
X166213452Y-91895000D02*
X166165833Y-91942619D01*
X166165833Y-91942619D02*
X166118214Y-92037857D01*
X166118214Y-92037857D02*
X166118214Y-92180714D01*
X166118214Y-92180714D02*
X166165833Y-92275952D01*
X166165833Y-92275952D02*
X166213452Y-92323571D01*
X166213452Y-92323571D02*
X166308690Y-92371190D01*
X166308690Y-92371190D02*
X166689642Y-92371190D01*
X165261071Y-91847380D02*
X165451547Y-91847380D01*
X165451547Y-91847380D02*
X165546785Y-91895000D01*
X165546785Y-91895000D02*
X165594404Y-91942619D01*
X165594404Y-91942619D02*
X165689642Y-92085476D01*
X165689642Y-92085476D02*
X165737261Y-92275952D01*
X165737261Y-92275952D02*
X165737261Y-92656904D01*
X165737261Y-92656904D02*
X165689642Y-92752142D01*
X165689642Y-92752142D02*
X165642023Y-92799761D01*
X165642023Y-92799761D02*
X165546785Y-92847380D01*
X165546785Y-92847380D02*
X165356309Y-92847380D01*
X165356309Y-92847380D02*
X165261071Y-92799761D01*
X165261071Y-92799761D02*
X165213452Y-92752142D01*
X165213452Y-92752142D02*
X165165833Y-92656904D01*
X165165833Y-92656904D02*
X165165833Y-92418809D01*
X165165833Y-92418809D02*
X165213452Y-92323571D01*
X165213452Y-92323571D02*
X165261071Y-92275952D01*
X165261071Y-92275952D02*
X165356309Y-92228333D01*
X165356309Y-92228333D02*
X165546785Y-92228333D01*
X165546785Y-92228333D02*
X165642023Y-92275952D01*
X165642023Y-92275952D02*
X165689642Y-92323571D01*
X165689642Y-92323571D02*
X165737261Y-92418809D01*
X138206604Y-93474980D02*
X137635176Y-93474980D01*
X137920890Y-94474980D02*
X137920890Y-93474980D01*
X137301842Y-94474980D02*
X137301842Y-93474980D01*
X137301842Y-93474980D02*
X136920890Y-93474980D01*
X136920890Y-93474980D02*
X136825652Y-93522600D01*
X136825652Y-93522600D02*
X136778033Y-93570219D01*
X136778033Y-93570219D02*
X136730414Y-93665457D01*
X136730414Y-93665457D02*
X136730414Y-93808314D01*
X136730414Y-93808314D02*
X136778033Y-93903552D01*
X136778033Y-93903552D02*
X136825652Y-93951171D01*
X136825652Y-93951171D02*
X136920890Y-93998790D01*
X136920890Y-93998790D02*
X137301842Y-93998790D01*
X136397080Y-93474980D02*
X135778033Y-93474980D01*
X135778033Y-93474980D02*
X136111366Y-93855933D01*
X136111366Y-93855933D02*
X135968509Y-93855933D01*
X135968509Y-93855933D02*
X135873271Y-93903552D01*
X135873271Y-93903552D02*
X135825652Y-93951171D01*
X135825652Y-93951171D02*
X135778033Y-94046409D01*
X135778033Y-94046409D02*
X135778033Y-94284504D01*
X135778033Y-94284504D02*
X135825652Y-94379742D01*
X135825652Y-94379742D02*
X135873271Y-94427361D01*
X135873271Y-94427361D02*
X135968509Y-94474980D01*
X135968509Y-94474980D02*
X136254223Y-94474980D01*
X136254223Y-94474980D02*
X136349461Y-94427361D01*
X136349461Y-94427361D02*
X136397080Y-94379742D01*
X138206604Y-93472980D02*
X137635176Y-93472980D01*
X137920890Y-94472980D02*
X137920890Y-93472980D01*
X137301842Y-94472980D02*
X137301842Y-93472980D01*
X137301842Y-93472980D02*
X136920890Y-93472980D01*
X136920890Y-93472980D02*
X136825652Y-93520600D01*
X136825652Y-93520600D02*
X136778033Y-93568219D01*
X136778033Y-93568219D02*
X136730414Y-93663457D01*
X136730414Y-93663457D02*
X136730414Y-93806314D01*
X136730414Y-93806314D02*
X136778033Y-93901552D01*
X136778033Y-93901552D02*
X136825652Y-93949171D01*
X136825652Y-93949171D02*
X136920890Y-93996790D01*
X136920890Y-93996790D02*
X137301842Y-93996790D01*
X136397080Y-93472980D02*
X135778033Y-93472980D01*
X135778033Y-93472980D02*
X136111366Y-93853933D01*
X136111366Y-93853933D02*
X135968509Y-93853933D01*
X135968509Y-93853933D02*
X135873271Y-93901552D01*
X135873271Y-93901552D02*
X135825652Y-93949171D01*
X135825652Y-93949171D02*
X135778033Y-94044409D01*
X135778033Y-94044409D02*
X135778033Y-94282504D01*
X135778033Y-94282504D02*
X135825652Y-94377742D01*
X135825652Y-94377742D02*
X135873271Y-94425361D01*
X135873271Y-94425361D02*
X135968509Y-94472980D01*
X135968509Y-94472980D02*
X136254223Y-94472980D01*
X136254223Y-94472980D02*
X136349461Y-94425361D01*
X136349461Y-94425361D02*
X136397080Y-94377742D01*
M02*
