G04 #@! TF.GenerationSoftware,KiCad,Pcbnew,(7.0.0-0)*
G04 #@! TF.CreationDate,2023-03-11T20:23:52-05:00*
G04 #@! TF.ProjectId,corne-ultralight,636f726e-652d-4756-9c74-72616c696768,2.0*
G04 #@! TF.SameCoordinates,Original*
G04 #@! TF.FileFunction,Soldermask,Bot*
G04 #@! TF.FilePolarity,Negative*
%FSLAX46Y46*%
G04 Gerber Fmt 4.6, Leading zero omitted, Abs format (unit mm)*
G04 Created by KiCad (PCBNEW (7.0.0-0)) date 2023-03-11 20:23:52*
%MOMM*%
%LPD*%
G01*
G04 APERTURE LIST*
G04 Aperture macros list*
%AMRoundRect*
0 Rectangle with rounded corners*
0 $1 Rounding radius*
0 $2 $3 $4 $5 $6 $7 $8 $9 X,Y pos of 4 corners*
0 Add a 4 corners polygon primitive as box body*
4,1,4,$2,$3,$4,$5,$6,$7,$8,$9,$2,$3,0*
0 Add four circle primitives for the rounded corners*
1,1,$1+$1,$2,$3*
1,1,$1+$1,$4,$5*
1,1,$1+$1,$6,$7*
1,1,$1+$1,$8,$9*
0 Add four rect primitives between the rounded corners*
20,1,$1+$1,$2,$3,$4,$5,0*
20,1,$1+$1,$4,$5,$6,$7,0*
20,1,$1+$1,$6,$7,$8,$9,0*
20,1,$1+$1,$8,$9,$2,$3,0*%
%AMRotRect*
0 Rectangle, with rotation*
0 The origin of the aperture is its center*
0 $1 length*
0 $2 width*
0 $3 Rotation angle, in degrees counterclockwise*
0 Add horizontal line*
21,1,$1,$2,0,0,$3*%
G04 Aperture macros list end*
%ADD10C,2.000000*%
%ADD11C,1.900000*%
%ADD12C,1.700000*%
%ADD13C,3.000000*%
%ADD14C,4.000000*%
%ADD15R,1.900000X2.000000*%
%ADD16R,2.000000X2.000000*%
%ADD17RotRect,1.900000X2.000000X195.000000*%
%ADD18RotRect,2.000000X2.000000X195.000000*%
%ADD19C,0.100000*%
%ADD20RotRect,1.500000X2.000000X240.000000*%
%ADD21RotRect,1.900000X2.000000X165.000000*%
%ADD22RotRect,2.000000X2.000000X165.000000*%
%ADD23C,2.300000*%
%ADD24RotRect,1.500000X2.000000X300.000000*%
%ADD25O,1.397000X1.778000*%
%ADD26C,0.300000*%
%ADD27C,0.900000*%
%ADD28O,2.750000X1.800000*%
%ADD29C,1.397000*%
%ADD30RoundRect,0.250000X0.625000X-0.350000X0.625000X0.350000X-0.625000X0.350000X-0.625000X-0.350000X0*%
%ADD31O,1.750000X1.200000*%
%ADD32R,1.700000X1.700000*%
%ADD33O,1.700000X1.700000*%
%ADD34RoundRect,0.250000X-0.625000X0.350000X-0.625000X-0.350000X0.625000X-0.350000X0.625000X0.350000X0*%
%ADD35R,1.300000X1.400000*%
%ADD36RotRect,1.400000X1.300000X15.000000*%
%ADD37RotRect,1.400000X1.300000X255.000000*%
%ADD38R,1.400000X1.300000*%
%ADD39C,4.300000*%
%ADD40C,1.500000*%
G04 APERTURE END LIST*
D10*
X156012500Y-80067432D03*
X156012500Y-73567432D03*
D11*
X273184847Y-45920432D03*
D12*
X273604847Y-45920432D03*
D13*
X273684847Y-49620432D03*
X274874847Y-43380432D03*
D14*
X278684847Y-45920432D03*
D13*
X278684847Y-51820432D03*
X281224847Y-40840432D03*
D12*
X283764847Y-45920432D03*
D11*
X284184847Y-45920432D03*
D15*
X281484846Y-51820431D03*
D16*
X284284846Y-40840431D03*
X270584846Y-49620431D03*
X271784846Y-43380431D03*
D11*
X254184847Y-45920432D03*
D12*
X254604847Y-45920432D03*
D13*
X254684847Y-49620432D03*
X255874847Y-43380432D03*
D14*
X259684847Y-45920432D03*
D13*
X259684847Y-51820432D03*
X262224847Y-40840432D03*
D12*
X264764847Y-45920432D03*
D11*
X265184847Y-45920432D03*
D15*
X262484846Y-51820431D03*
D16*
X265284846Y-40840431D03*
X251584846Y-49620431D03*
X252784846Y-43380431D03*
D11*
X235184847Y-41170432D03*
D12*
X235604847Y-41170432D03*
D13*
X235684847Y-44870432D03*
X236874847Y-38630432D03*
D14*
X240684847Y-41170432D03*
D13*
X240684847Y-47070432D03*
X243224847Y-36090432D03*
D12*
X245764847Y-41170432D03*
D11*
X246184847Y-41170432D03*
D15*
X243484846Y-47070431D03*
D16*
X246284846Y-36090431D03*
X232584846Y-44870431D03*
X233784846Y-38630431D03*
D11*
X216184847Y-38795432D03*
D12*
X216604847Y-38795432D03*
D13*
X216684847Y-42495432D03*
X217874847Y-36255432D03*
D14*
X221684847Y-38795432D03*
D13*
X221684847Y-44695432D03*
X224224847Y-33715432D03*
D12*
X226764847Y-38795432D03*
D11*
X227184847Y-38795432D03*
D15*
X224484846Y-44695431D03*
D16*
X227284846Y-33715431D03*
X213584846Y-42495431D03*
X214784846Y-36255431D03*
D11*
X197184847Y-41170432D03*
D12*
X197604847Y-41170432D03*
D13*
X197684847Y-44870432D03*
X198874847Y-38630432D03*
D14*
X202684847Y-41170432D03*
D13*
X202684847Y-47070432D03*
X205224847Y-36090432D03*
D12*
X207764847Y-41170432D03*
D11*
X208184847Y-41170432D03*
D15*
X205484846Y-47070431D03*
D16*
X208284846Y-36090431D03*
X194584846Y-44870431D03*
X195784846Y-38630431D03*
D11*
X178184847Y-43545432D03*
D12*
X178604847Y-43545432D03*
D13*
X178684847Y-47245432D03*
X179874847Y-41005432D03*
D14*
X183684847Y-43545432D03*
D13*
X183684847Y-49445432D03*
X186224847Y-38465432D03*
D12*
X188764847Y-43545432D03*
D11*
X189184847Y-43545432D03*
D15*
X186484846Y-49445431D03*
D16*
X189284846Y-38465431D03*
X175584846Y-47245431D03*
X176784846Y-41005431D03*
D11*
X273184847Y-64920432D03*
D12*
X273604847Y-64920432D03*
D13*
X273684847Y-68620432D03*
X274874847Y-62380432D03*
D14*
X278684847Y-64920432D03*
D13*
X278684847Y-70820432D03*
X281224847Y-59840432D03*
D12*
X283764847Y-64920432D03*
D11*
X284184847Y-64920432D03*
D15*
X281484846Y-70820431D03*
D16*
X284284846Y-59840431D03*
X270584846Y-68620431D03*
X271784846Y-62380431D03*
D11*
X254184847Y-64920432D03*
D12*
X254604847Y-64920432D03*
D13*
X254684847Y-68620432D03*
X255874847Y-62380432D03*
D14*
X259684847Y-64920432D03*
D13*
X259684847Y-70820432D03*
X262224847Y-59840432D03*
D12*
X264764847Y-64920432D03*
D11*
X265184847Y-64920432D03*
D15*
X262484846Y-70820431D03*
D16*
X265284846Y-59840431D03*
X251584846Y-68620431D03*
X252784846Y-62380431D03*
D11*
X235184847Y-60170432D03*
D12*
X235604847Y-60170432D03*
D13*
X235684847Y-63870432D03*
X236874847Y-57630432D03*
D14*
X240684847Y-60170432D03*
D13*
X240684847Y-66070432D03*
X243224847Y-55090432D03*
D12*
X245764847Y-60170432D03*
D11*
X246184847Y-60170432D03*
D15*
X243484846Y-66070431D03*
D16*
X246284846Y-55090431D03*
X232584846Y-63870431D03*
X233784846Y-57630431D03*
D11*
X216184847Y-57795432D03*
D12*
X216604847Y-57795432D03*
D13*
X216684847Y-61495432D03*
X217874847Y-55255432D03*
D14*
X221684847Y-57795432D03*
D13*
X221684847Y-63695432D03*
X224224847Y-52715432D03*
D12*
X226764847Y-57795432D03*
D11*
X227184847Y-57795432D03*
D15*
X224484846Y-63695431D03*
D16*
X227284846Y-52715431D03*
X213584846Y-61495431D03*
X214784846Y-55255431D03*
D11*
X197184847Y-60170432D03*
D12*
X197604847Y-60170432D03*
D13*
X197684847Y-63870432D03*
X198874847Y-57630432D03*
D14*
X202684847Y-60170432D03*
D13*
X202684847Y-66070432D03*
X205224847Y-55090432D03*
D12*
X207764847Y-60170432D03*
D11*
X208184847Y-60170432D03*
D15*
X205484846Y-66070431D03*
D16*
X208284846Y-55090431D03*
X194584846Y-63870431D03*
X195784846Y-57630431D03*
D11*
X178184847Y-62545432D03*
D12*
X178604847Y-62545432D03*
D13*
X178684847Y-66245432D03*
X179874847Y-60005432D03*
D14*
X183684847Y-62545432D03*
D13*
X183684847Y-68445432D03*
X186224847Y-57465432D03*
D12*
X188764847Y-62545432D03*
D11*
X189184847Y-62545432D03*
D15*
X186484846Y-68445431D03*
D16*
X189284846Y-57465431D03*
X175584846Y-66245431D03*
X176784846Y-60005431D03*
D11*
X273184847Y-83920432D03*
D12*
X273604847Y-83920432D03*
D13*
X273684847Y-87620432D03*
X274874847Y-81380432D03*
D14*
X278684847Y-83920432D03*
D13*
X278684847Y-89820432D03*
X281224847Y-78840432D03*
D12*
X283764847Y-83920432D03*
D11*
X284184847Y-83920432D03*
D15*
X281484846Y-89820431D03*
D16*
X284284846Y-78840431D03*
X270584846Y-87620431D03*
X271784846Y-81380431D03*
D11*
X254184847Y-83920432D03*
D12*
X254604847Y-83920432D03*
D13*
X254684847Y-87620432D03*
X255874847Y-81380432D03*
D14*
X259684847Y-83920432D03*
D13*
X259684847Y-89820432D03*
X262224847Y-78840432D03*
D12*
X264764847Y-83920432D03*
D11*
X265184847Y-83920432D03*
D15*
X262484846Y-89820431D03*
D16*
X265284846Y-78840431D03*
X251584846Y-87620431D03*
X252784846Y-81380431D03*
D11*
X235184847Y-79170432D03*
D12*
X235604847Y-79170432D03*
D13*
X235684847Y-82870432D03*
X236874847Y-76630432D03*
D14*
X240684847Y-79170432D03*
D13*
X240684847Y-85070432D03*
X243224847Y-74090432D03*
D12*
X245764847Y-79170432D03*
D11*
X246184847Y-79170432D03*
D15*
X243484846Y-85070431D03*
D16*
X246284846Y-74090431D03*
X232584846Y-82870431D03*
X233784846Y-76630431D03*
D11*
X216184847Y-76795432D03*
D12*
X216604847Y-76795432D03*
D13*
X216684847Y-80495432D03*
X217874847Y-74255432D03*
D14*
X221684847Y-76795432D03*
D13*
X221684847Y-82695432D03*
X224224847Y-71715432D03*
D12*
X226764847Y-76795432D03*
D11*
X227184847Y-76795432D03*
D15*
X224484846Y-82695431D03*
D16*
X227284846Y-71715431D03*
X213584846Y-80495431D03*
X214784846Y-74255431D03*
D11*
X197184847Y-79170432D03*
D12*
X197604847Y-79170432D03*
D13*
X197684847Y-82870432D03*
X198874847Y-76630432D03*
D14*
X202684847Y-79170432D03*
D13*
X202684847Y-85070432D03*
X205224847Y-74090432D03*
D12*
X207764847Y-79170432D03*
D11*
X208184847Y-79170432D03*
D15*
X205484846Y-85070431D03*
D16*
X208284846Y-74090431D03*
X194584846Y-82870431D03*
X195784846Y-76630431D03*
D11*
X206684847Y-98795432D03*
D12*
X207104847Y-98795432D03*
D13*
X207184847Y-102495432D03*
X208374847Y-96255432D03*
D14*
X212184847Y-98795432D03*
D13*
X212184847Y-104695432D03*
X214724847Y-93715432D03*
D12*
X217264847Y-98795432D03*
D11*
X217684847Y-98795432D03*
D15*
X214984846Y-104695431D03*
D16*
X217784846Y-93715431D03*
X204084846Y-102495431D03*
X205284846Y-96255431D03*
D11*
X185872255Y-102968937D03*
D12*
X186277944Y-102860233D03*
D13*
X187312848Y-106413453D03*
X186847269Y-100078081D03*
D14*
X191184847Y-101545432D03*
D13*
X192711879Y-107244394D03*
X192323498Y-95981128D03*
D12*
X196091750Y-100230631D03*
D11*
X196497439Y-100121927D03*
D17*
X195416471Y-106519700D03*
D18*
X195279230Y-95189141D03*
X184318477Y-107215791D03*
X183862557Y-100877831D03*
D11*
X178184847Y-81545432D03*
D12*
X178604847Y-81545432D03*
D13*
X178684847Y-85245432D03*
X179874847Y-79005432D03*
D14*
X183684847Y-81545432D03*
D13*
X183684847Y-87445432D03*
X186224847Y-76465432D03*
D12*
X188764847Y-81545432D03*
D11*
X189184847Y-81545432D03*
D15*
X186484846Y-87445431D03*
D16*
X189284846Y-76465431D03*
X175584846Y-85245431D03*
X176784846Y-79005431D03*
D11*
X111687500Y-43545000D03*
D12*
X112107500Y-43545000D03*
D13*
X112187500Y-47245000D03*
X113377500Y-41005000D03*
D14*
X117187500Y-43545000D03*
D13*
X117187500Y-49445000D03*
X119727500Y-38465000D03*
D12*
X122267500Y-43545000D03*
D11*
X122687500Y-43545000D03*
D15*
X119987499Y-49444999D03*
D16*
X122787499Y-38464999D03*
X109087499Y-47244999D03*
X110287499Y-41004999D03*
D11*
X92687500Y-41170000D03*
D12*
X93107500Y-41170000D03*
D13*
X93187500Y-44870000D03*
X94377500Y-38630000D03*
D14*
X98187500Y-41170000D03*
D13*
X98187500Y-47070000D03*
X100727500Y-36090000D03*
D12*
X103267500Y-41170000D03*
D11*
X103687500Y-41170000D03*
D15*
X100987499Y-47069999D03*
D16*
X103787499Y-36089999D03*
X90087499Y-44869999D03*
X91287499Y-38629999D03*
D11*
X73687500Y-38795000D03*
D12*
X74107500Y-38795000D03*
D13*
X74187500Y-42495000D03*
X75377500Y-36255000D03*
D14*
X79187500Y-38795000D03*
D13*
X79187500Y-44695000D03*
X81727500Y-33715000D03*
D12*
X84267500Y-38795000D03*
D11*
X84687500Y-38795000D03*
D15*
X81987499Y-44694999D03*
D16*
X84787499Y-33714999D03*
X71087499Y-42494999D03*
X72287499Y-36254999D03*
D11*
X54687500Y-41170000D03*
D12*
X55107500Y-41170000D03*
D13*
X55187500Y-44870000D03*
X56377500Y-38630000D03*
D14*
X60187500Y-41170000D03*
D13*
X60187500Y-47070000D03*
X62727500Y-36090000D03*
D12*
X65267500Y-41170000D03*
D11*
X65687500Y-41170000D03*
D15*
X62987499Y-47069999D03*
D16*
X65787499Y-36089999D03*
X52087499Y-44869999D03*
X53287499Y-38629999D03*
D11*
X35687500Y-45920000D03*
D12*
X36107500Y-45920000D03*
D13*
X36187500Y-49620000D03*
X37377500Y-43380000D03*
D14*
X41187500Y-45920000D03*
D13*
X41187500Y-51820000D03*
X43727500Y-40840000D03*
D12*
X46267500Y-45920000D03*
D11*
X46687500Y-45920000D03*
D15*
X43987499Y-51819999D03*
D16*
X46787499Y-40839999D03*
X33087499Y-49619999D03*
X34287499Y-43379999D03*
D11*
X111687500Y-81545000D03*
D12*
X112107500Y-81545000D03*
D13*
X112187500Y-85245000D03*
X113377500Y-79005000D03*
D14*
X117187500Y-81545000D03*
D13*
X117187500Y-87445000D03*
X119727500Y-76465000D03*
D12*
X122267500Y-81545000D03*
D11*
X122687500Y-81545000D03*
D15*
X119987499Y-87444999D03*
D16*
X122787499Y-76464999D03*
X109087499Y-85244999D03*
X110287499Y-79004999D03*
D13*
X128808091Y-100555295D03*
D19*
X127790654Y-107317547D03*
D13*
X127832795Y-107324557D03*
D11*
X134687500Y-100531860D03*
D12*
X134477500Y-100895591D03*
D14*
X131937500Y-105295000D03*
D12*
X129397500Y-109694409D03*
D11*
X129187500Y-110058140D03*
D13*
X132641794Y-111475127D03*
X137047050Y-108245000D03*
D20*
X130288090Y-97991859D03*
X138547049Y-105646923D03*
X126337794Y-109913972D03*
X131141793Y-114073202D03*
D11*
X16687500Y-83920000D03*
D12*
X17107500Y-83920000D03*
D13*
X17187500Y-87620000D03*
X18377500Y-81380000D03*
D14*
X22187500Y-83920000D03*
D13*
X22187500Y-89820000D03*
X24727500Y-78840000D03*
D12*
X27267500Y-83920000D03*
D11*
X27687500Y-83920000D03*
D15*
X24987499Y-89819999D03*
D16*
X27787499Y-78839999D03*
X14087499Y-87619999D03*
X15287499Y-81379999D03*
D11*
X104374908Y-100121495D03*
D12*
X104780597Y-100230199D03*
D13*
X103900240Y-103824830D03*
X106664723Y-98105448D03*
D14*
X109687500Y-101545000D03*
D13*
X108160468Y-107243962D03*
X113455752Y-97295497D03*
D12*
X114594403Y-102859801D03*
D11*
X115000092Y-102968505D03*
D21*
X110865059Y-107968655D03*
D22*
X116411484Y-98087482D03*
X100905869Y-103022490D03*
X103680011Y-97305696D03*
D11*
X83187500Y-98795000D03*
D12*
X83607500Y-98795000D03*
D13*
X83687500Y-102495000D03*
X84877500Y-96255000D03*
D14*
X88687500Y-98795000D03*
D13*
X88687500Y-104695000D03*
X91227500Y-93715000D03*
D12*
X93767500Y-98795000D03*
D11*
X94187500Y-98795000D03*
D15*
X91487499Y-104694999D03*
D16*
X94287499Y-93714999D03*
X80587499Y-102494999D03*
X81787499Y-96254999D03*
D11*
X92687500Y-79170000D03*
D12*
X93107500Y-79170000D03*
D13*
X93187500Y-82870000D03*
X94377500Y-76630000D03*
D14*
X98187500Y-79170000D03*
D13*
X98187500Y-85070000D03*
X100727500Y-74090000D03*
D12*
X103267500Y-79170000D03*
D11*
X103687500Y-79170000D03*
D15*
X100987499Y-85069999D03*
D16*
X103787499Y-74089999D03*
X90087499Y-82869999D03*
X91287499Y-76629999D03*
D11*
X73687500Y-76795000D03*
D12*
X74107500Y-76795000D03*
D13*
X74187500Y-80495000D03*
X75377500Y-74255000D03*
D14*
X79187500Y-76795000D03*
D13*
X79187500Y-82695000D03*
X81727500Y-71715000D03*
D12*
X84267500Y-76795000D03*
D11*
X84687500Y-76795000D03*
D15*
X81987499Y-82694999D03*
D16*
X84787499Y-71714999D03*
X71087499Y-80494999D03*
X72287499Y-74254999D03*
D11*
X54687500Y-79170000D03*
D12*
X55107500Y-79170000D03*
D13*
X55187500Y-82870000D03*
X56377500Y-76630000D03*
D14*
X60187500Y-79170000D03*
D13*
X60187500Y-85070000D03*
X62727500Y-74090000D03*
D12*
X65267500Y-79170000D03*
D11*
X65687500Y-79170000D03*
D15*
X62987499Y-85069999D03*
D16*
X65787499Y-74089999D03*
X52087499Y-82869999D03*
X53287499Y-76629999D03*
D11*
X35687500Y-83920000D03*
D12*
X36107500Y-83920000D03*
D13*
X36187500Y-87620000D03*
X37377500Y-81380000D03*
D14*
X41187500Y-83920000D03*
D13*
X41187500Y-89820000D03*
X43727500Y-78840000D03*
D12*
X46267500Y-83920000D03*
D11*
X46687500Y-83920000D03*
D15*
X43987499Y-89819999D03*
D16*
X46787499Y-78839999D03*
X33087499Y-87619999D03*
X34287499Y-81379999D03*
D11*
X111687500Y-62545000D03*
D12*
X112107500Y-62545000D03*
D13*
X112187500Y-66245000D03*
X113377500Y-60005000D03*
D14*
X117187500Y-62545000D03*
D13*
X117187500Y-68445000D03*
X119727500Y-57465000D03*
D12*
X122267500Y-62545000D03*
D11*
X122687500Y-62545000D03*
D15*
X119987499Y-68444999D03*
D16*
X122787499Y-57464999D03*
X109087499Y-66244999D03*
X110287499Y-60004999D03*
D11*
X92687500Y-60170000D03*
D12*
X93107500Y-60170000D03*
D13*
X93187500Y-63870000D03*
X94377500Y-57630000D03*
D14*
X98187500Y-60170000D03*
D13*
X98187500Y-66070000D03*
X100727500Y-55090000D03*
D12*
X103267500Y-60170000D03*
D11*
X103687500Y-60170000D03*
D15*
X100987499Y-66069999D03*
D16*
X103787499Y-55089999D03*
X90087499Y-63869999D03*
X91287499Y-57629999D03*
D11*
X73687500Y-57795000D03*
D12*
X74107500Y-57795000D03*
D13*
X74187500Y-61495000D03*
X75377500Y-55255000D03*
D14*
X79187500Y-57795000D03*
D13*
X79187500Y-63695000D03*
X81727500Y-52715000D03*
D12*
X84267500Y-57795000D03*
D11*
X84687500Y-57795000D03*
D15*
X81987499Y-63694999D03*
D16*
X84787499Y-52714999D03*
X71087499Y-61494999D03*
X72287499Y-55254999D03*
D11*
X54687500Y-60170000D03*
D12*
X55107500Y-60170000D03*
D13*
X55187500Y-63870000D03*
X56377500Y-57630000D03*
D14*
X60187500Y-60170000D03*
D13*
X60187500Y-66070000D03*
X62727500Y-55090000D03*
D12*
X65267500Y-60170000D03*
D11*
X65687500Y-60170000D03*
D15*
X62987499Y-66069999D03*
D16*
X65787499Y-55089999D03*
X52087499Y-63869999D03*
X53287499Y-57629999D03*
D11*
X35687500Y-64920000D03*
D12*
X36107500Y-64920000D03*
D13*
X36187500Y-68620000D03*
X37377500Y-62380000D03*
D14*
X41187500Y-64920000D03*
D13*
X41187500Y-70820000D03*
X43727500Y-59840000D03*
D12*
X46267500Y-64920000D03*
D11*
X46687500Y-64920000D03*
D15*
X43987499Y-70819999D03*
D16*
X46787499Y-59839999D03*
X33087499Y-68619999D03*
X34287499Y-62379999D03*
D11*
X16687500Y-64920000D03*
D12*
X17107500Y-64920000D03*
D13*
X17187500Y-68620000D03*
X18377500Y-62380000D03*
D14*
X22187500Y-64920000D03*
D13*
X22187500Y-70820000D03*
X24727500Y-59840000D03*
D12*
X27267500Y-64920000D03*
D11*
X27687500Y-64920000D03*
D15*
X24987499Y-70819999D03*
D16*
X27787499Y-59839999D03*
X14087499Y-68619999D03*
X15287499Y-62379999D03*
D11*
X16687500Y-45920000D03*
D12*
X17107500Y-45920000D03*
D13*
X17187500Y-49620000D03*
X18377500Y-43380000D03*
D14*
X22187500Y-45920000D03*
D13*
X22187500Y-51820000D03*
X24727500Y-40840000D03*
D12*
X27267500Y-45920000D03*
D11*
X27687500Y-45920000D03*
D15*
X24987499Y-51819999D03*
D16*
X27787499Y-40839999D03*
X14087499Y-49619999D03*
X15287499Y-43379999D03*
D23*
X156330847Y-93085432D03*
X170889847Y-84542432D03*
D13*
X163265438Y-105635727D03*
D19*
X168613001Y-109897979D03*
D13*
X168640142Y-109864989D03*
D11*
X166184847Y-100532292D03*
D12*
X166394847Y-100896023D03*
D14*
X168934847Y-105295432D03*
D12*
X171474847Y-109694841D03*
D11*
X171684847Y-110058572D03*
D13*
X174639141Y-107775559D03*
X174044397Y-102345432D03*
D24*
X161785437Y-103072291D03*
X172544396Y-99747355D03*
X170135141Y-112454404D03*
X176139140Y-110373634D03*
D25*
X131758499Y-77167999D03*
X134298499Y-77167999D03*
X136838499Y-77167999D03*
X139378499Y-77167999D03*
X141918499Y-77167999D03*
D10*
X144862500Y-79921000D03*
X144862500Y-73421000D03*
D26*
X19821250Y-93380000D03*
X20415000Y-93380000D03*
X21008750Y-93380000D03*
X21602500Y-93380000D03*
X22196250Y-93380000D03*
X22790000Y-93380000D03*
X23383750Y-93380000D03*
X23977500Y-93380000D03*
X24571250Y-93380000D03*
X57809500Y-93380000D03*
X58403250Y-93380000D03*
X58997000Y-93380000D03*
X59590750Y-93380000D03*
X60184500Y-93380000D03*
X60778250Y-93380000D03*
X61372000Y-93380000D03*
X61965750Y-93380000D03*
X62559500Y-93380000D03*
X57912500Y-31970000D03*
X58506250Y-31970000D03*
X59100000Y-31970000D03*
X59693750Y-31970000D03*
X60287500Y-31970000D03*
X60881250Y-31970000D03*
X61475000Y-31970000D03*
X62068750Y-31970000D03*
X62662500Y-31970000D03*
X95882500Y-31970000D03*
X96476250Y-31970000D03*
X97070000Y-31970000D03*
X97663750Y-31970000D03*
X98257500Y-31970000D03*
X98851250Y-31970000D03*
X99445000Y-31970000D03*
X100038750Y-31970000D03*
X100632500Y-31970000D03*
X200402500Y-31980000D03*
X200996250Y-31980000D03*
X201590000Y-31980000D03*
X202183750Y-31980000D03*
X202777500Y-31980000D03*
X203371250Y-31980000D03*
X203965000Y-31980000D03*
X204558750Y-31980000D03*
X205152500Y-31980000D03*
X238422500Y-31970000D03*
X239016250Y-31970000D03*
X239610000Y-31970000D03*
X240203750Y-31970000D03*
X240797500Y-31970000D03*
X241391250Y-31970000D03*
X241985000Y-31970000D03*
X242578750Y-31970000D03*
X243172500Y-31970000D03*
X276452500Y-93390000D03*
X277046250Y-93390000D03*
X277640000Y-93390000D03*
X278233750Y-93390000D03*
X278827500Y-93390000D03*
X279421250Y-93390000D03*
X280015000Y-93390000D03*
X280608750Y-93390000D03*
X281202500Y-93390000D03*
X238452500Y-93390000D03*
X239046250Y-93390000D03*
X239640000Y-93390000D03*
X240233750Y-93390000D03*
X240827500Y-93390000D03*
X241421250Y-93390000D03*
X242015000Y-93390000D03*
X242608750Y-93390000D03*
X243202500Y-93390000D03*
D25*
X158987499Y-77309999D03*
X161527499Y-77309999D03*
X164067499Y-77309999D03*
X166607499Y-77309999D03*
X169147499Y-77309999D03*
D27*
X155802500Y-84245000D03*
X155802500Y-87245000D03*
D28*
X128798899Y-42085399D03*
X128798899Y-44625399D03*
X128798899Y-47165399D03*
X128798899Y-49705399D03*
X128798899Y-52245399D03*
X128798899Y-54785399D03*
X128798899Y-57325399D03*
X144988899Y-57325399D03*
X144988899Y-54785399D03*
X144988899Y-52245399D03*
X144988899Y-49705399D03*
X144988899Y-47165399D03*
X144988899Y-44625399D03*
X144988899Y-42085399D03*
D29*
X135623900Y-41133400D03*
X138163900Y-41133400D03*
X135623900Y-43673400D03*
X138163900Y-43673400D03*
X132448900Y-49388400D03*
X132448900Y-47483400D03*
X140703900Y-58913400D03*
X142608900Y-58913400D03*
D28*
X155951499Y-42212399D03*
X155951499Y-44752399D03*
X155951499Y-47292399D03*
X155951499Y-49832399D03*
X155951499Y-52372399D03*
X155951499Y-54912399D03*
X155951499Y-57452399D03*
X172141499Y-57452399D03*
X172141499Y-54912399D03*
X172141499Y-52372399D03*
X172141499Y-49832399D03*
X172141499Y-47292399D03*
X172141499Y-44752399D03*
X172141499Y-42212399D03*
D29*
X162776500Y-41260400D03*
X165316500Y-41260400D03*
X162776500Y-43800400D03*
X165316500Y-43800400D03*
X159601500Y-49515400D03*
X159601500Y-47610400D03*
X167856500Y-59040400D03*
X169761500Y-59040400D03*
D30*
X160537500Y-83045000D03*
D31*
X160537499Y-81044999D03*
D32*
X165512499Y-72594999D03*
D33*
X162972499Y-72594999D03*
D32*
X135472499Y-72594999D03*
D33*
X138012499Y-72594999D03*
D27*
X145117500Y-87245000D03*
X145117500Y-84245000D03*
D34*
X140387500Y-80845000D03*
D31*
X140387499Y-82844999D03*
D35*
X286347499Y-87014999D03*
X286347499Y-83464999D03*
X248882499Y-83839999D03*
X248882499Y-80289999D03*
X229832499Y-79394999D03*
X229832499Y-75844999D03*
X210782499Y-80945431D03*
X210782499Y-77395431D03*
X191732499Y-83320431D03*
X191732499Y-79770431D03*
X221831499Y-98317999D03*
X221831499Y-94767999D03*
X202527499Y-97174999D03*
X202527499Y-93624999D03*
D36*
X189637017Y-91130595D03*
X186207981Y-92049403D03*
D35*
X286184846Y-48395431D03*
X286184846Y-44845431D03*
X267297499Y-48279999D03*
X267297499Y-44729999D03*
X248882499Y-43199999D03*
X248882499Y-39649999D03*
X229582499Y-41044999D03*
X229582499Y-37494999D03*
X210782499Y-43199999D03*
X210782499Y-39649999D03*
X192367499Y-44469999D03*
X192367499Y-40919999D03*
X286347499Y-66564999D03*
X286347499Y-63014999D03*
X267297499Y-66684999D03*
X267297499Y-63134999D03*
X248882499Y-64154999D03*
X248882499Y-60604999D03*
X229697499Y-60270431D03*
X229697499Y-56720431D03*
X210782499Y-61215431D03*
X210782499Y-57665431D03*
X50000499Y-84093999D03*
X50000499Y-80543999D03*
X50000499Y-65297999D03*
X50000499Y-61747999D03*
X49746499Y-45485999D03*
X49746499Y-41935999D03*
X192367499Y-62884999D03*
X192367499Y-59334999D03*
D37*
X115835095Y-108925517D03*
X116753903Y-105496481D03*
D35*
X96687499Y-100679999D03*
X96687499Y-97129999D03*
X77940499Y-100349999D03*
X77940499Y-96799999D03*
D38*
X115783499Y-73682999D03*
X112233499Y-73682999D03*
D35*
X106187499Y-80694999D03*
X106187499Y-77144999D03*
X87592499Y-77235999D03*
X87592499Y-73685999D03*
X68187499Y-80694999D03*
X68187499Y-77144999D03*
X30187499Y-85691874D03*
X30187499Y-82141874D03*
D38*
X115529499Y-54378999D03*
X111979499Y-54378999D03*
D35*
X106187499Y-61694999D03*
X106187499Y-58144999D03*
X87592499Y-58185999D03*
X87592499Y-54635999D03*
X68187499Y-61694999D03*
X68187499Y-58144999D03*
X30187499Y-66691874D03*
X30187499Y-63141874D03*
D38*
X115275499Y-35582999D03*
X111725499Y-35582999D03*
D35*
X106187499Y-42694999D03*
X106187499Y-39144999D03*
X87084499Y-39135999D03*
X87084499Y-35585999D03*
X68187499Y-42694999D03*
X68187499Y-39144999D03*
X30187499Y-47691874D03*
X30187499Y-44141874D03*
X267297499Y-86684999D03*
X267297499Y-83134999D03*
D39*
X31695500Y-74420500D03*
X107650500Y-51930500D03*
X31695500Y-55420500D03*
X74839500Y-91685500D03*
X121405500Y-99300000D03*
D23*
X129944500Y-84419000D03*
X144376500Y-92940000D03*
D39*
X193235847Y-51936932D03*
X179485847Y-99446932D03*
X226055847Y-91696932D03*
X269195847Y-55426932D03*
X269195847Y-74426932D03*
X50712500Y-74445000D03*
X50712500Y-55445000D03*
X250212500Y-74426932D03*
X250212500Y-55426932D03*
D40*
X140399100Y-97178000D03*
X162522500Y-96035000D03*
X166332500Y-94130000D03*
X136944700Y-95755600D03*
M02*
