M48
; DRILL file {KiCad (7.0.0-0)} date Saturday, March 11, 2023 at 08:20:33 PM
; FORMAT={-:-/ absolute / inch / decimal}
; #@! TF.CreationDate,2023-03-11T20:20:33-05:00
; #@! TF.GenerationSoftware,Kicad,Pcbnew,(7.0.0-0)
; #@! TF.FileFunction,Plated,1,2,PTH
FMAT,2
INCH
; #@! TA.AperFunction,Plated,PTH,ViaDrill
T1C0.0157
; #@! TA.AperFunction,Plated,PTH,ComponentDrill
T2C0.0295
; #@! TA.AperFunction,Plated,PTH,ComponentDrill
T3C0.0320
; #@! TA.AperFunction,Plated,PTH,ComponentDrill
T4C0.0394
; #@! TA.AperFunction,Plated,PTH,ComponentDrill
T5C0.0400
; #@! TA.AperFunction,Plated,PTH,ComponentDrill
T6C0.0512
%
G90
G05
T1
X1.0485Y-2.0409
X1.0585Y-2.7909
X1.0585Y-3.4809
X1.0885Y-3.0309
X1.0985Y-1.6809
X1.0985Y-2.4209
X1.0985Y-3.1709
X1.3385Y-2.6309
X1.4685Y-2.7809
X1.5785Y-2.7109
X1.7985Y-2.7909
X1.7985Y-3.4929
X1.8085Y-2.0609
X1.8385Y-2.4309
X1.8485Y-1.6909
X1.8592Y-2.8719
X1.8985Y-3.1309
X2.4847Y-2.7425
X2.5385Y-3.3409
X2.5485Y-1.8309
X2.5485Y-2.5409
X2.5885Y-2.1109
X2.5885Y-2.8509
X2.5985Y-1.4909
X3.2385Y-1.7009
X3.2785Y-2.4409
X3.2785Y-3.2009
X3.3185Y-2.8909
X3.3385Y-2.1509
X3.3485Y-1.4009
X3.4785Y-1.7209
X3.4785Y-3.2609
X3.4885Y-2.6009
X3.5785Y-1.5809
X3.5785Y-2.3409
X3.5785Y-3.1009
X3.6685Y-4.1409
X3.6985Y-3.7609
X4.0285Y-3.3409
X4.0385Y-2.5909
X4.0485Y-1.8509
X4.0585Y-2.7809
X4.0885Y-2.2509
X4.0985Y-1.4909
X4.2785Y-3.2809
X4.2885Y-1.7809
X4.3385Y-3.1909
X4.4085Y-4.1909
X4.4684Y-1.7946
X4.4785Y-3.9509
X4.7347Y-2.8743
X4.7885Y-2.6409
X4.7885Y-3.4409
X4.7985Y-1.9509
X4.8185Y-3.1009
X4.8385Y-2.2009
X4.8485Y-1.5809
X4.8578Y-2.8419
X4.8795Y-3.2679
X4.9335Y-2.8329
X4.9625Y-2.6938
X5.0014Y-2.5078
X5.041Y-2.4934
X5.0755Y-2.5808
X5.0828Y-2.783
X5.102Y-2.5543
X5.1143Y-2.7814
X5.1285Y-3.7909
X5.1456Y-2.784
X5.1895Y-2.7749
X5.2235Y-2.8659
X5.253Y-2.42
X5.253Y-2.4638
X5.2539Y-2.4985
X5.3195Y-2.5769
X5.4625Y-3.3709
X5.5549Y-2.4405
X5.5585Y-3.3409
X5.5677Y-2.9161
X5.599Y-2.2447
X5.7215Y-2.6259
X6.1825Y-2.4419
X6.2125Y-2.5459
X6.2455Y-3.1859
X6.2915Y-2.5459
X6.2975Y-2.4229
X6.3135Y-1.8239
X6.3145Y-3.4033
X6.3655Y-2.2289
X6.3765Y-2.3839
X6.3895Y-1.8919
X6.3955Y-2.2629
X6.3985Y-3.2559
X6.3995Y-2.3199
X6.6558Y-2.4808
X6.6704Y-2.4529
X7.0485Y-3.4559
X7.1485Y-3.5809
X7.1735Y-2.7559
X7.2235Y-2.9809
X7.3178Y-2.1571
X7.3735Y-2.0809
X7.3735Y-3.3559
X7.3985Y-2.3809
X7.4235Y-2.7309
X7.4485Y-2.883
X7.4735Y-2.1559
X7.5735Y-1.9059
X7.7485Y-2.9559
X8.1235Y-1.7559
X8.1485Y-2.6059
X8.1985Y-2.8059
X8.2985Y-2.5559
X8.3735Y-1.7559
X8.742Y-2.0707
X8.8735Y-1.6809
X8.8735Y-3.3606
X8.8985Y-2.2059
X8.9235Y-3.1309
X8.9485Y-3.2809
X8.9735Y-2.5309
X9.0235Y-2.8059
X9.0985Y-1.6309
X9.5485Y-2.2559
X9.589Y-2.7577
X9.6485Y-1.7559
X9.6485Y-2.6309
X9.6735Y-2.2809
X9.7235Y-2.8309
X9.8485Y-1.7309
X9.8485Y-2.5309
X9.8485Y-2.6809
X9.8985Y-2.5809
X9.9985Y-3.1309
X10.3485Y-2.4517
X10.3735Y-2.7059
X10.3985Y-1.9059
X10.4235Y-2.9809
X10.4485Y-2.6559
X10.5235Y-2.0809
X10.766Y-2.3949
X10.9985Y-3.2059
X11.1485Y-2.1559
X11.1485Y-2.2309
X11.1485Y-3.2309
X11.1735Y-2.7309
T2
X5.5271Y-3.1829
X5.5271Y-3.2616
X6.3204Y-3.1907
X6.3204Y-3.2695
T3
X1.1885Y-1.6896
X1.1885Y-1.9259
X1.1885Y-2.4377
X1.1885Y-2.6739
X1.1885Y-3.1857
X1.1885Y-3.4219
X1.9585Y-1.6028
X1.9585Y-1.839
X1.9685Y-2.3828
X1.9685Y-2.619
X1.9685Y-3.1228
X1.9685Y-3.359
X2.6845Y-1.4929
X2.6845Y-1.7291
X2.6845Y-2.2409
X2.6845Y-2.4772
X2.6845Y-2.989
X2.6845Y-3.2252
X3.0685Y-3.7628
X3.0685Y-3.999
X3.4285Y-1.3528
X3.4285Y-1.589
X3.4485Y-2.1028
X3.4485Y-2.339
X3.4485Y-2.8528
X3.4485Y-3.089
X3.8066Y-3.7758
X3.8066Y-4.012
X4.1806Y-1.4929
X4.1806Y-1.7291
X4.1806Y-2.2409
X4.1806Y-2.4772
X4.1806Y-2.989
X4.1806Y-3.2252
X4.3504Y-1.4009
X4.3604Y-2.1409
X4.3704Y-2.9009
X4.548Y-4.335
X4.5866Y-1.4009
X4.5966Y-2.1409
X4.6066Y-2.9009
X4.6091Y-4.1068
X5.1873Y-3.0381
X5.2873Y-3.0381
X5.3873Y-3.0381
X5.4873Y-3.0381
X5.5873Y-3.0381
X6.2594Y-3.0437
X6.3594Y-3.0437
X6.4594Y-3.0437
X6.5594Y-3.0437
X6.6594Y-3.0437
X7.2844Y-3.6365
X7.5126Y-3.5753
X7.5485Y-3.0923
X7.5485Y-3.3286
X7.5735Y-1.5628
X7.5735Y-1.799
X7.5735Y-2.2878
X7.5735Y-2.524
X7.9735Y-3.6378
X7.9735Y-3.874
X8.2985Y-1.5128
X8.2985Y-1.749
X8.2985Y-2.2221
X8.2985Y-2.4583
X8.2985Y-2.9988
X8.2985Y-3.2351
X8.7335Y-3.6828
X8.7335Y-3.919
X9.0387Y-1.428
X9.0387Y-1.6642
X9.0432Y-2.1849
X9.0432Y-2.4211
X9.0485Y-2.9378
X9.0485Y-3.174
X9.7985Y-1.5128
X9.7985Y-1.749
X9.7985Y-2.3378
X9.7985Y-2.574
X9.7985Y-3.1128
X9.7985Y-3.349
X10.5235Y-1.7128
X10.5235Y-1.949
X10.5235Y-2.4374
X10.5235Y-2.6736
X10.5235Y-3.2248
X10.5235Y-3.461
X11.2671Y-1.7173
X11.2671Y-1.9536
X11.2735Y-2.4327
X11.2735Y-2.6689
X11.2735Y-3.2378
X11.2735Y-3.474
T4
X5.0895Y-1.6569
X5.0895Y-1.7569
X5.0895Y-1.8569
X5.0895Y-1.9569
X5.0895Y-2.0569
X5.0895Y-2.1569
X5.0895Y-2.2569
X5.3336Y-2.8581
X5.4336Y-2.8581
X5.6895Y-1.6569
X5.6895Y-1.7569
X5.6895Y-1.8569
X5.6895Y-1.9569
X5.6895Y-2.0569
X5.6895Y-2.1569
X5.6895Y-2.2569
X6.1585Y-1.6619
X6.1585Y-1.7619
X6.1585Y-1.8619
X6.1585Y-1.9619
X6.1585Y-2.0619
X6.1585Y-2.1619
X6.1585Y-2.2619
X6.4162Y-2.8581
X6.5162Y-2.8581
X6.7585Y-1.6619
X6.7585Y-1.7619
X6.7585Y-1.8619
X6.7585Y-1.9619
X6.7585Y-2.0619
X6.7585Y-2.1619
X6.7585Y-2.2619
T5
X5.2145Y-1.8694
X5.2145Y-1.9444
X5.3395Y-1.6194
X5.3395Y-1.7194
X5.4395Y-1.6194
X5.4395Y-1.7194
X5.5395Y-2.3194
X5.6145Y-2.3194
X6.2835Y-1.8744
X6.2835Y-1.9494
X6.4085Y-1.6244
X6.4085Y-1.7244
X6.5085Y-1.6244
X6.5085Y-1.7244
X6.6085Y-2.3244
X6.6835Y-2.3244
T6
X5.7032Y-2.8906
X5.7032Y-3.1465
X6.1422Y-2.8964
X6.1422Y-3.1523
T0
M30
