G04 #@! TF.GenerationSoftware,KiCad,Pcbnew,(7.0.0-0)*
G04 #@! TF.CreationDate,2023-03-11T20:23:52-05:00*
G04 #@! TF.ProjectId,corne-ultralight,636f726e-652d-4756-9c74-72616c696768,2.0*
G04 #@! TF.SameCoordinates,Original*
G04 #@! TF.FileFunction,AssemblyDrawing,Top*
%FSLAX46Y46*%
G04 Gerber Fmt 4.6, Leading zero omitted, Abs format (unit mm)*
G04 Created by KiCad (PCBNEW (7.0.0-0)) date 2023-03-11 20:23:52*
%MOMM*%
%LPD*%
G01*
G04 APERTURE LIST*
%ADD10C,0.150000*%
%ADD11C,0.100000*%
G04 APERTURE END LIST*
D10*
X158882261Y-80079336D02*
X158929880Y-79936479D01*
X158929880Y-79936479D02*
X158929880Y-79698384D01*
X158929880Y-79698384D02*
X158882261Y-79603146D01*
X158882261Y-79603146D02*
X158834642Y-79555527D01*
X158834642Y-79555527D02*
X158739404Y-79507908D01*
X158739404Y-79507908D02*
X158644166Y-79507908D01*
X158644166Y-79507908D02*
X158548928Y-79555527D01*
X158548928Y-79555527D02*
X158501309Y-79603146D01*
X158501309Y-79603146D02*
X158453690Y-79698384D01*
X158453690Y-79698384D02*
X158406071Y-79888860D01*
X158406071Y-79888860D02*
X158358452Y-79984098D01*
X158358452Y-79984098D02*
X158310833Y-80031717D01*
X158310833Y-80031717D02*
X158215595Y-80079336D01*
X158215595Y-80079336D02*
X158120357Y-80079336D01*
X158120357Y-80079336D02*
X158025119Y-80031717D01*
X158025119Y-80031717D02*
X157977500Y-79984098D01*
X157977500Y-79984098D02*
X157929880Y-79888860D01*
X157929880Y-79888860D02*
X157929880Y-79650765D01*
X157929880Y-79650765D02*
X157977500Y-79507908D01*
X157929880Y-79174574D02*
X158929880Y-78936479D01*
X158929880Y-78936479D02*
X158215595Y-78746003D01*
X158215595Y-78746003D02*
X158929880Y-78555527D01*
X158929880Y-78555527D02*
X157929880Y-78317432D01*
X159025119Y-78174575D02*
X159025119Y-77412670D01*
X158929880Y-77174574D02*
X157929880Y-77174574D01*
X157929880Y-77174574D02*
X157929880Y-76793622D01*
X157929880Y-76793622D02*
X157977500Y-76698384D01*
X157977500Y-76698384D02*
X158025119Y-76650765D01*
X158025119Y-76650765D02*
X158120357Y-76603146D01*
X158120357Y-76603146D02*
X158263214Y-76603146D01*
X158263214Y-76603146D02*
X158358452Y-76650765D01*
X158358452Y-76650765D02*
X158406071Y-76698384D01*
X158406071Y-76698384D02*
X158453690Y-76793622D01*
X158453690Y-76793622D02*
X158453690Y-77174574D01*
X157929880Y-76174574D02*
X158739404Y-76174574D01*
X158739404Y-76174574D02*
X158834642Y-76126955D01*
X158834642Y-76126955D02*
X158882261Y-76079336D01*
X158882261Y-76079336D02*
X158929880Y-75984098D01*
X158929880Y-75984098D02*
X158929880Y-75793622D01*
X158929880Y-75793622D02*
X158882261Y-75698384D01*
X158882261Y-75698384D02*
X158834642Y-75650765D01*
X158834642Y-75650765D02*
X158739404Y-75603146D01*
X158739404Y-75603146D02*
X157929880Y-75603146D01*
X158882261Y-75174574D02*
X158929880Y-75031717D01*
X158929880Y-75031717D02*
X158929880Y-74793622D01*
X158929880Y-74793622D02*
X158882261Y-74698384D01*
X158882261Y-74698384D02*
X158834642Y-74650765D01*
X158834642Y-74650765D02*
X158739404Y-74603146D01*
X158739404Y-74603146D02*
X158644166Y-74603146D01*
X158644166Y-74603146D02*
X158548928Y-74650765D01*
X158548928Y-74650765D02*
X158501309Y-74698384D01*
X158501309Y-74698384D02*
X158453690Y-74793622D01*
X158453690Y-74793622D02*
X158406071Y-74984098D01*
X158406071Y-74984098D02*
X158358452Y-75079336D01*
X158358452Y-75079336D02*
X158310833Y-75126955D01*
X158310833Y-75126955D02*
X158215595Y-75174574D01*
X158215595Y-75174574D02*
X158120357Y-75174574D01*
X158120357Y-75174574D02*
X158025119Y-75126955D01*
X158025119Y-75126955D02*
X157977500Y-75079336D01*
X157977500Y-75079336D02*
X157929880Y-74984098D01*
X157929880Y-74984098D02*
X157929880Y-74746003D01*
X157929880Y-74746003D02*
X157977500Y-74603146D01*
X158929880Y-74174574D02*
X157929880Y-74174574D01*
X158406071Y-74174574D02*
X158406071Y-73603146D01*
X158929880Y-73603146D02*
X157929880Y-73603146D01*
X135187567Y-78753807D02*
X135187567Y-79334378D01*
X135187567Y-79334378D02*
X135148862Y-79450492D01*
X135148862Y-79450492D02*
X135071453Y-79527902D01*
X135071453Y-79527902D02*
X134955338Y-79566607D01*
X134955338Y-79566607D02*
X134877929Y-79566607D01*
X135535910Y-78831216D02*
X135574614Y-78792512D01*
X135574614Y-78792512D02*
X135652024Y-78753807D01*
X135652024Y-78753807D02*
X135845548Y-78753807D01*
X135845548Y-78753807D02*
X135922957Y-78792512D01*
X135922957Y-78792512D02*
X135961662Y-78831216D01*
X135961662Y-78831216D02*
X136000367Y-78908626D01*
X136000367Y-78908626D02*
X136000367Y-78986035D01*
X136000367Y-78986035D02*
X135961662Y-79102150D01*
X135961662Y-79102150D02*
X135497205Y-79566607D01*
X135497205Y-79566607D02*
X136000367Y-79566607D01*
X147732261Y-79932904D02*
X147779880Y-79790047D01*
X147779880Y-79790047D02*
X147779880Y-79551952D01*
X147779880Y-79551952D02*
X147732261Y-79456714D01*
X147732261Y-79456714D02*
X147684642Y-79409095D01*
X147684642Y-79409095D02*
X147589404Y-79361476D01*
X147589404Y-79361476D02*
X147494166Y-79361476D01*
X147494166Y-79361476D02*
X147398928Y-79409095D01*
X147398928Y-79409095D02*
X147351309Y-79456714D01*
X147351309Y-79456714D02*
X147303690Y-79551952D01*
X147303690Y-79551952D02*
X147256071Y-79742428D01*
X147256071Y-79742428D02*
X147208452Y-79837666D01*
X147208452Y-79837666D02*
X147160833Y-79885285D01*
X147160833Y-79885285D02*
X147065595Y-79932904D01*
X147065595Y-79932904D02*
X146970357Y-79932904D01*
X146970357Y-79932904D02*
X146875119Y-79885285D01*
X146875119Y-79885285D02*
X146827500Y-79837666D01*
X146827500Y-79837666D02*
X146779880Y-79742428D01*
X146779880Y-79742428D02*
X146779880Y-79504333D01*
X146779880Y-79504333D02*
X146827500Y-79361476D01*
X146779880Y-79028142D02*
X147779880Y-78790047D01*
X147779880Y-78790047D02*
X147065595Y-78599571D01*
X147065595Y-78599571D02*
X147779880Y-78409095D01*
X147779880Y-78409095D02*
X146779880Y-78171000D01*
X147875119Y-78028143D02*
X147875119Y-77266238D01*
X147779880Y-77028142D02*
X146779880Y-77028142D01*
X146779880Y-77028142D02*
X146779880Y-76647190D01*
X146779880Y-76647190D02*
X146827500Y-76551952D01*
X146827500Y-76551952D02*
X146875119Y-76504333D01*
X146875119Y-76504333D02*
X146970357Y-76456714D01*
X146970357Y-76456714D02*
X147113214Y-76456714D01*
X147113214Y-76456714D02*
X147208452Y-76504333D01*
X147208452Y-76504333D02*
X147256071Y-76551952D01*
X147256071Y-76551952D02*
X147303690Y-76647190D01*
X147303690Y-76647190D02*
X147303690Y-77028142D01*
X146779880Y-76028142D02*
X147589404Y-76028142D01*
X147589404Y-76028142D02*
X147684642Y-75980523D01*
X147684642Y-75980523D02*
X147732261Y-75932904D01*
X147732261Y-75932904D02*
X147779880Y-75837666D01*
X147779880Y-75837666D02*
X147779880Y-75647190D01*
X147779880Y-75647190D02*
X147732261Y-75551952D01*
X147732261Y-75551952D02*
X147684642Y-75504333D01*
X147684642Y-75504333D02*
X147589404Y-75456714D01*
X147589404Y-75456714D02*
X146779880Y-75456714D01*
X147732261Y-75028142D02*
X147779880Y-74885285D01*
X147779880Y-74885285D02*
X147779880Y-74647190D01*
X147779880Y-74647190D02*
X147732261Y-74551952D01*
X147732261Y-74551952D02*
X147684642Y-74504333D01*
X147684642Y-74504333D02*
X147589404Y-74456714D01*
X147589404Y-74456714D02*
X147494166Y-74456714D01*
X147494166Y-74456714D02*
X147398928Y-74504333D01*
X147398928Y-74504333D02*
X147351309Y-74551952D01*
X147351309Y-74551952D02*
X147303690Y-74647190D01*
X147303690Y-74647190D02*
X147256071Y-74837666D01*
X147256071Y-74837666D02*
X147208452Y-74932904D01*
X147208452Y-74932904D02*
X147160833Y-74980523D01*
X147160833Y-74980523D02*
X147065595Y-75028142D01*
X147065595Y-75028142D02*
X146970357Y-75028142D01*
X146970357Y-75028142D02*
X146875119Y-74980523D01*
X146875119Y-74980523D02*
X146827500Y-74932904D01*
X146827500Y-74932904D02*
X146779880Y-74837666D01*
X146779880Y-74837666D02*
X146779880Y-74599571D01*
X146779880Y-74599571D02*
X146827500Y-74456714D01*
X147779880Y-74028142D02*
X146779880Y-74028142D01*
X147256071Y-74028142D02*
X147256071Y-73456714D01*
X147779880Y-73456714D02*
X146779880Y-73456714D01*
X162416567Y-78895807D02*
X162416567Y-79476378D01*
X162416567Y-79476378D02*
X162377862Y-79592492D01*
X162377862Y-79592492D02*
X162300453Y-79669902D01*
X162300453Y-79669902D02*
X162184338Y-79708607D01*
X162184338Y-79708607D02*
X162106929Y-79708607D01*
X162726205Y-78895807D02*
X163268071Y-78895807D01*
X163268071Y-78895807D02*
X162919729Y-79708607D01*
X152202261Y-88816428D02*
X152249880Y-88673571D01*
X152249880Y-88673571D02*
X152249880Y-88435476D01*
X152249880Y-88435476D02*
X152202261Y-88340238D01*
X152202261Y-88340238D02*
X152154642Y-88292619D01*
X152154642Y-88292619D02*
X152059404Y-88245000D01*
X152059404Y-88245000D02*
X151964166Y-88245000D01*
X151964166Y-88245000D02*
X151868928Y-88292619D01*
X151868928Y-88292619D02*
X151821309Y-88340238D01*
X151821309Y-88340238D02*
X151773690Y-88435476D01*
X151773690Y-88435476D02*
X151726071Y-88625952D01*
X151726071Y-88625952D02*
X151678452Y-88721190D01*
X151678452Y-88721190D02*
X151630833Y-88768809D01*
X151630833Y-88768809D02*
X151535595Y-88816428D01*
X151535595Y-88816428D02*
X151440357Y-88816428D01*
X151440357Y-88816428D02*
X151345119Y-88768809D01*
X151345119Y-88768809D02*
X151297500Y-88721190D01*
X151297500Y-88721190D02*
X151249880Y-88625952D01*
X151249880Y-88625952D02*
X151249880Y-88387857D01*
X151249880Y-88387857D02*
X151297500Y-88245000D01*
X151249880Y-87911666D02*
X152249880Y-87673571D01*
X152249880Y-87673571D02*
X151535595Y-87483095D01*
X151535595Y-87483095D02*
X152249880Y-87292619D01*
X152249880Y-87292619D02*
X151249880Y-87054524D01*
X152345119Y-86911667D02*
X152345119Y-86149762D01*
X152202261Y-85959285D02*
X152249880Y-85816428D01*
X152249880Y-85816428D02*
X152249880Y-85578333D01*
X152249880Y-85578333D02*
X152202261Y-85483095D01*
X152202261Y-85483095D02*
X152154642Y-85435476D01*
X152154642Y-85435476D02*
X152059404Y-85387857D01*
X152059404Y-85387857D02*
X151964166Y-85387857D01*
X151964166Y-85387857D02*
X151868928Y-85435476D01*
X151868928Y-85435476D02*
X151821309Y-85483095D01*
X151821309Y-85483095D02*
X151773690Y-85578333D01*
X151773690Y-85578333D02*
X151726071Y-85768809D01*
X151726071Y-85768809D02*
X151678452Y-85864047D01*
X151678452Y-85864047D02*
X151630833Y-85911666D01*
X151630833Y-85911666D02*
X151535595Y-85959285D01*
X151535595Y-85959285D02*
X151440357Y-85959285D01*
X151440357Y-85959285D02*
X151345119Y-85911666D01*
X151345119Y-85911666D02*
X151297500Y-85864047D01*
X151297500Y-85864047D02*
X151249880Y-85768809D01*
X151249880Y-85768809D02*
X151249880Y-85530714D01*
X151249880Y-85530714D02*
X151297500Y-85387857D01*
X152249880Y-84959285D02*
X151249880Y-84959285D01*
X151249880Y-84959285D02*
X151249880Y-84578333D01*
X151249880Y-84578333D02*
X151297500Y-84483095D01*
X151297500Y-84483095D02*
X151345119Y-84435476D01*
X151345119Y-84435476D02*
X151440357Y-84387857D01*
X151440357Y-84387857D02*
X151583214Y-84387857D01*
X151583214Y-84387857D02*
X151678452Y-84435476D01*
X151678452Y-84435476D02*
X151726071Y-84483095D01*
X151726071Y-84483095D02*
X151773690Y-84578333D01*
X151773690Y-84578333D02*
X151773690Y-84959285D01*
X152202261Y-84006904D02*
X152249880Y-83864047D01*
X152249880Y-83864047D02*
X152249880Y-83625952D01*
X152249880Y-83625952D02*
X152202261Y-83530714D01*
X152202261Y-83530714D02*
X152154642Y-83483095D01*
X152154642Y-83483095D02*
X152059404Y-83435476D01*
X152059404Y-83435476D02*
X151964166Y-83435476D01*
X151964166Y-83435476D02*
X151868928Y-83483095D01*
X151868928Y-83483095D02*
X151821309Y-83530714D01*
X151821309Y-83530714D02*
X151773690Y-83625952D01*
X151773690Y-83625952D02*
X151726071Y-83816428D01*
X151726071Y-83816428D02*
X151678452Y-83911666D01*
X151678452Y-83911666D02*
X151630833Y-83959285D01*
X151630833Y-83959285D02*
X151535595Y-84006904D01*
X151535595Y-84006904D02*
X151440357Y-84006904D01*
X151440357Y-84006904D02*
X151345119Y-83959285D01*
X151345119Y-83959285D02*
X151297500Y-83911666D01*
X151297500Y-83911666D02*
X151249880Y-83816428D01*
X151249880Y-83816428D02*
X151249880Y-83578333D01*
X151249880Y-83578333D02*
X151297500Y-83435476D01*
X151249880Y-83149761D02*
X151249880Y-82578333D01*
X152249880Y-82864047D02*
X151249880Y-82864047D01*
X159699880Y-87530713D02*
X158699880Y-87530713D01*
X158699880Y-87530713D02*
X158699880Y-87149761D01*
X158699880Y-87149761D02*
X158747500Y-87054523D01*
X158747500Y-87054523D02*
X158795119Y-87006904D01*
X158795119Y-87006904D02*
X158890357Y-86959285D01*
X158890357Y-86959285D02*
X159033214Y-86959285D01*
X159033214Y-86959285D02*
X159128452Y-87006904D01*
X159128452Y-87006904D02*
X159176071Y-87054523D01*
X159176071Y-87054523D02*
X159223690Y-87149761D01*
X159223690Y-87149761D02*
X159223690Y-87530713D01*
X159652261Y-86578332D02*
X159699880Y-86435475D01*
X159699880Y-86435475D02*
X159699880Y-86197380D01*
X159699880Y-86197380D02*
X159652261Y-86102142D01*
X159652261Y-86102142D02*
X159604642Y-86054523D01*
X159604642Y-86054523D02*
X159509404Y-86006904D01*
X159509404Y-86006904D02*
X159414166Y-86006904D01*
X159414166Y-86006904D02*
X159318928Y-86054523D01*
X159318928Y-86054523D02*
X159271309Y-86102142D01*
X159271309Y-86102142D02*
X159223690Y-86197380D01*
X159223690Y-86197380D02*
X159176071Y-86387856D01*
X159176071Y-86387856D02*
X159128452Y-86483094D01*
X159128452Y-86483094D02*
X159080833Y-86530713D01*
X159080833Y-86530713D02*
X158985595Y-86578332D01*
X158985595Y-86578332D02*
X158890357Y-86578332D01*
X158890357Y-86578332D02*
X158795119Y-86530713D01*
X158795119Y-86530713D02*
X158747500Y-86483094D01*
X158747500Y-86483094D02*
X158699880Y-86387856D01*
X158699880Y-86387856D02*
X158699880Y-86149761D01*
X158699880Y-86149761D02*
X158747500Y-86006904D01*
X158699880Y-85673570D02*
X159699880Y-85435475D01*
X159699880Y-85435475D02*
X158985595Y-85244999D01*
X158985595Y-85244999D02*
X159699880Y-85054523D01*
X159699880Y-85054523D02*
X158699880Y-84816428D01*
X158795119Y-84483094D02*
X158747500Y-84435475D01*
X158747500Y-84435475D02*
X158699880Y-84340237D01*
X158699880Y-84340237D02*
X158699880Y-84102142D01*
X158699880Y-84102142D02*
X158747500Y-84006904D01*
X158747500Y-84006904D02*
X158795119Y-83959285D01*
X158795119Y-83959285D02*
X158890357Y-83911666D01*
X158890357Y-83911666D02*
X158985595Y-83911666D01*
X158985595Y-83911666D02*
X159128452Y-83959285D01*
X159128452Y-83959285D02*
X159699880Y-84530713D01*
X159699880Y-84530713D02*
X159699880Y-83911666D01*
X584523Y-3392380D02*
X251190Y-2916190D01*
X13095Y-3392380D02*
X13095Y-2392380D01*
X13095Y-2392380D02*
X394047Y-2392380D01*
X394047Y-2392380D02*
X489285Y-2440000D01*
X489285Y-2440000D02*
X536904Y-2487619D01*
X536904Y-2487619D02*
X584523Y-2582857D01*
X584523Y-2582857D02*
X584523Y-2725714D01*
X584523Y-2725714D02*
X536904Y-2820952D01*
X536904Y-2820952D02*
X489285Y-2868571D01*
X489285Y-2868571D02*
X394047Y-2916190D01*
X394047Y-2916190D02*
X13095Y-2916190D01*
X1536904Y-2440000D02*
X1441666Y-2392380D01*
X1441666Y-2392380D02*
X1298809Y-2392380D01*
X1298809Y-2392380D02*
X1155952Y-2440000D01*
X1155952Y-2440000D02*
X1060714Y-2535238D01*
X1060714Y-2535238D02*
X1013095Y-2630476D01*
X1013095Y-2630476D02*
X965476Y-2820952D01*
X965476Y-2820952D02*
X965476Y-2963809D01*
X965476Y-2963809D02*
X1013095Y-3154285D01*
X1013095Y-3154285D02*
X1060714Y-3249523D01*
X1060714Y-3249523D02*
X1155952Y-3344761D01*
X1155952Y-3344761D02*
X1298809Y-3392380D01*
X1298809Y-3392380D02*
X1394047Y-3392380D01*
X1394047Y-3392380D02*
X1536904Y-3344761D01*
X1536904Y-3344761D02*
X1584523Y-3297142D01*
X1584523Y-3297142D02*
X1584523Y-2963809D01*
X1584523Y-2963809D02*
X1394047Y-2963809D01*
X2346428Y-2868571D02*
X2489285Y-2916190D01*
X2489285Y-2916190D02*
X2536904Y-2963809D01*
X2536904Y-2963809D02*
X2584523Y-3059047D01*
X2584523Y-3059047D02*
X2584523Y-3201904D01*
X2584523Y-3201904D02*
X2536904Y-3297142D01*
X2536904Y-3297142D02*
X2489285Y-3344761D01*
X2489285Y-3344761D02*
X2394047Y-3392380D01*
X2394047Y-3392380D02*
X2013095Y-3392380D01*
X2013095Y-3392380D02*
X2013095Y-2392380D01*
X2013095Y-2392380D02*
X2346428Y-2392380D01*
X2346428Y-2392380D02*
X2441666Y-2440000D01*
X2441666Y-2440000D02*
X2489285Y-2487619D01*
X2489285Y-2487619D02*
X2536904Y-2582857D01*
X2536904Y-2582857D02*
X2536904Y-2678095D01*
X2536904Y-2678095D02*
X2489285Y-2773333D01*
X2489285Y-2773333D02*
X2441666Y-2820952D01*
X2441666Y-2820952D02*
X2346428Y-2868571D01*
X2346428Y-2868571D02*
X2013095Y-2868571D01*
X13095Y1007619D02*
X584523Y1007619D01*
X298809Y7619D02*
X298809Y1007619D01*
X917857Y7619D02*
X917857Y1007619D01*
X917857Y1007619D02*
X1298809Y1007619D01*
X1298809Y1007619D02*
X1394047Y960000D01*
X1394047Y960000D02*
X1441666Y912380D01*
X1441666Y912380D02*
X1489285Y817142D01*
X1489285Y817142D02*
X1489285Y674285D01*
X1489285Y674285D02*
X1441666Y579047D01*
X1441666Y579047D02*
X1394047Y531428D01*
X1394047Y531428D02*
X1298809Y483809D01*
X1298809Y483809D02*
X917857Y483809D01*
X2346428Y674285D02*
X2346428Y7619D01*
X2108333Y1055238D02*
X1870238Y340952D01*
X1870238Y340952D02*
X2489285Y340952D01*
X168259642Y-88830715D02*
X168307261Y-88878334D01*
X168307261Y-88878334D02*
X168354880Y-89021191D01*
X168354880Y-89021191D02*
X168354880Y-89116429D01*
X168354880Y-89116429D02*
X168307261Y-89259286D01*
X168307261Y-89259286D02*
X168212023Y-89354524D01*
X168212023Y-89354524D02*
X168116785Y-89402143D01*
X168116785Y-89402143D02*
X167926309Y-89449762D01*
X167926309Y-89449762D02*
X167783452Y-89449762D01*
X167783452Y-89449762D02*
X167592976Y-89402143D01*
X167592976Y-89402143D02*
X167497738Y-89354524D01*
X167497738Y-89354524D02*
X167402500Y-89259286D01*
X167402500Y-89259286D02*
X167354880Y-89116429D01*
X167354880Y-89116429D02*
X167354880Y-89021191D01*
X167354880Y-89021191D02*
X167402500Y-88878334D01*
X167402500Y-88878334D02*
X167450119Y-88830715D01*
X168354880Y-88259286D02*
X168307261Y-88354524D01*
X168307261Y-88354524D02*
X168259642Y-88402143D01*
X168259642Y-88402143D02*
X168164404Y-88449762D01*
X168164404Y-88449762D02*
X167878690Y-88449762D01*
X167878690Y-88449762D02*
X167783452Y-88402143D01*
X167783452Y-88402143D02*
X167735833Y-88354524D01*
X167735833Y-88354524D02*
X167688214Y-88259286D01*
X167688214Y-88259286D02*
X167688214Y-88116429D01*
X167688214Y-88116429D02*
X167735833Y-88021191D01*
X167735833Y-88021191D02*
X167783452Y-87973572D01*
X167783452Y-87973572D02*
X167878690Y-87925953D01*
X167878690Y-87925953D02*
X168164404Y-87925953D01*
X168164404Y-87925953D02*
X168259642Y-87973572D01*
X168259642Y-87973572D02*
X168307261Y-88021191D01*
X168307261Y-88021191D02*
X168354880Y-88116429D01*
X168354880Y-88116429D02*
X168354880Y-88259286D01*
X167688214Y-87497381D02*
X168354880Y-87497381D01*
X167783452Y-87497381D02*
X167735833Y-87449762D01*
X167735833Y-87449762D02*
X167688214Y-87354524D01*
X167688214Y-87354524D02*
X167688214Y-87211667D01*
X167688214Y-87211667D02*
X167735833Y-87116429D01*
X167735833Y-87116429D02*
X167831071Y-87068810D01*
X167831071Y-87068810D02*
X168354880Y-87068810D01*
X167688214Y-86592619D02*
X168354880Y-86592619D01*
X167783452Y-86592619D02*
X167735833Y-86545000D01*
X167735833Y-86545000D02*
X167688214Y-86449762D01*
X167688214Y-86449762D02*
X167688214Y-86306905D01*
X167688214Y-86306905D02*
X167735833Y-86211667D01*
X167735833Y-86211667D02*
X167831071Y-86164048D01*
X167831071Y-86164048D02*
X168354880Y-86164048D01*
X168450119Y-85925953D02*
X168450119Y-85164048D01*
X167354880Y-84735476D02*
X167354880Y-84640238D01*
X167354880Y-84640238D02*
X167402500Y-84545000D01*
X167402500Y-84545000D02*
X167450119Y-84497381D01*
X167450119Y-84497381D02*
X167545357Y-84449762D01*
X167545357Y-84449762D02*
X167735833Y-84402143D01*
X167735833Y-84402143D02*
X167973928Y-84402143D01*
X167973928Y-84402143D02*
X168164404Y-84449762D01*
X168164404Y-84449762D02*
X168259642Y-84497381D01*
X168259642Y-84497381D02*
X168307261Y-84545000D01*
X168307261Y-84545000D02*
X168354880Y-84640238D01*
X168354880Y-84640238D02*
X168354880Y-84735476D01*
X168354880Y-84735476D02*
X168307261Y-84830714D01*
X168307261Y-84830714D02*
X168259642Y-84878333D01*
X168259642Y-84878333D02*
X168164404Y-84925952D01*
X168164404Y-84925952D02*
X167973928Y-84973571D01*
X167973928Y-84973571D02*
X167735833Y-84973571D01*
X167735833Y-84973571D02*
X167545357Y-84925952D01*
X167545357Y-84925952D02*
X167450119Y-84878333D01*
X167450119Y-84878333D02*
X167402500Y-84830714D01*
X167402500Y-84830714D02*
X167354880Y-84735476D01*
X168354880Y-83449762D02*
X168354880Y-84021190D01*
X168354880Y-83735476D02*
X167354880Y-83735476D01*
X167354880Y-83735476D02*
X167497738Y-83830714D01*
X167497738Y-83830714D02*
X167592976Y-83925952D01*
X167592976Y-83925952D02*
X167640595Y-84021190D01*
X168354880Y-83116428D02*
X167688214Y-82592619D01*
X167688214Y-83116428D02*
X168354880Y-82592619D01*
X167354880Y-82021190D02*
X167354880Y-81925952D01*
X167354880Y-81925952D02*
X167402500Y-81830714D01*
X167402500Y-81830714D02*
X167450119Y-81783095D01*
X167450119Y-81783095D02*
X167545357Y-81735476D01*
X167545357Y-81735476D02*
X167735833Y-81687857D01*
X167735833Y-81687857D02*
X167973928Y-81687857D01*
X167973928Y-81687857D02*
X168164404Y-81735476D01*
X168164404Y-81735476D02*
X168259642Y-81783095D01*
X168259642Y-81783095D02*
X168307261Y-81830714D01*
X168307261Y-81830714D02*
X168354880Y-81925952D01*
X168354880Y-81925952D02*
X168354880Y-82021190D01*
X168354880Y-82021190D02*
X168307261Y-82116428D01*
X168307261Y-82116428D02*
X168259642Y-82164047D01*
X168259642Y-82164047D02*
X168164404Y-82211666D01*
X168164404Y-82211666D02*
X167973928Y-82259285D01*
X167973928Y-82259285D02*
X167735833Y-82259285D01*
X167735833Y-82259285D02*
X167545357Y-82211666D01*
X167545357Y-82211666D02*
X167450119Y-82164047D01*
X167450119Y-82164047D02*
X167402500Y-82116428D01*
X167402500Y-82116428D02*
X167354880Y-82021190D01*
X167450119Y-81306904D02*
X167402500Y-81259285D01*
X167402500Y-81259285D02*
X167354880Y-81164047D01*
X167354880Y-81164047D02*
X167354880Y-80925952D01*
X167354880Y-80925952D02*
X167402500Y-80830714D01*
X167402500Y-80830714D02*
X167450119Y-80783095D01*
X167450119Y-80783095D02*
X167545357Y-80735476D01*
X167545357Y-80735476D02*
X167640595Y-80735476D01*
X167640595Y-80735476D02*
X167783452Y-80783095D01*
X167783452Y-80783095D02*
X168354880Y-81354523D01*
X168354880Y-81354523D02*
X168354880Y-80735476D01*
X168450119Y-80545000D02*
X168450119Y-79783095D01*
X167831071Y-79211666D02*
X167831071Y-79544999D01*
X168354880Y-79544999D02*
X167354880Y-79544999D01*
X167354880Y-79544999D02*
X167354880Y-79068809D01*
X168307261Y-78306904D02*
X168354880Y-78402142D01*
X168354880Y-78402142D02*
X168354880Y-78592618D01*
X168354880Y-78592618D02*
X168307261Y-78687856D01*
X168307261Y-78687856D02*
X168212023Y-78735475D01*
X168212023Y-78735475D02*
X167831071Y-78735475D01*
X167831071Y-78735475D02*
X167735833Y-78687856D01*
X167735833Y-78687856D02*
X167688214Y-78592618D01*
X167688214Y-78592618D02*
X167688214Y-78402142D01*
X167688214Y-78402142D02*
X167735833Y-78306904D01*
X167735833Y-78306904D02*
X167831071Y-78259285D01*
X167831071Y-78259285D02*
X167926309Y-78259285D01*
X167926309Y-78259285D02*
X168021547Y-78735475D01*
X168354880Y-77830713D02*
X167688214Y-77830713D01*
X167783452Y-77830713D02*
X167735833Y-77783094D01*
X167735833Y-77783094D02*
X167688214Y-77687856D01*
X167688214Y-77687856D02*
X167688214Y-77544999D01*
X167688214Y-77544999D02*
X167735833Y-77449761D01*
X167735833Y-77449761D02*
X167831071Y-77402142D01*
X167831071Y-77402142D02*
X168354880Y-77402142D01*
X167831071Y-77402142D02*
X167735833Y-77354523D01*
X167735833Y-77354523D02*
X167688214Y-77259285D01*
X167688214Y-77259285D02*
X167688214Y-77116428D01*
X167688214Y-77116428D02*
X167735833Y-77021189D01*
X167735833Y-77021189D02*
X167831071Y-76973570D01*
X167831071Y-76973570D02*
X168354880Y-76973570D01*
X168354880Y-76068809D02*
X167831071Y-76068809D01*
X167831071Y-76068809D02*
X167735833Y-76116428D01*
X167735833Y-76116428D02*
X167688214Y-76211666D01*
X167688214Y-76211666D02*
X167688214Y-76402142D01*
X167688214Y-76402142D02*
X167735833Y-76497380D01*
X168307261Y-76068809D02*
X168354880Y-76164047D01*
X168354880Y-76164047D02*
X168354880Y-76402142D01*
X168354880Y-76402142D02*
X168307261Y-76497380D01*
X168307261Y-76497380D02*
X168212023Y-76544999D01*
X168212023Y-76544999D02*
X168116785Y-76544999D01*
X168116785Y-76544999D02*
X168021547Y-76497380D01*
X168021547Y-76497380D02*
X167973928Y-76402142D01*
X167973928Y-76402142D02*
X167973928Y-76164047D01*
X167973928Y-76164047D02*
X167926309Y-76068809D01*
X168354880Y-75449761D02*
X168307261Y-75544999D01*
X168307261Y-75544999D02*
X168212023Y-75592618D01*
X168212023Y-75592618D02*
X167354880Y-75592618D01*
X168307261Y-74687856D02*
X168354880Y-74783094D01*
X168354880Y-74783094D02*
X168354880Y-74973570D01*
X168354880Y-74973570D02*
X168307261Y-75068808D01*
X168307261Y-75068808D02*
X168212023Y-75116427D01*
X168212023Y-75116427D02*
X167831071Y-75116427D01*
X167831071Y-75116427D02*
X167735833Y-75068808D01*
X167735833Y-75068808D02*
X167688214Y-74973570D01*
X167688214Y-74973570D02*
X167688214Y-74783094D01*
X167688214Y-74783094D02*
X167735833Y-74687856D01*
X167735833Y-74687856D02*
X167831071Y-74640237D01*
X167831071Y-74640237D02*
X167926309Y-74640237D01*
X167926309Y-74640237D02*
X168021547Y-75116427D01*
X162881071Y-83640238D02*
X162928690Y-83497381D01*
X162928690Y-83497381D02*
X162976309Y-83449762D01*
X162976309Y-83449762D02*
X163071547Y-83402143D01*
X163071547Y-83402143D02*
X163214404Y-83402143D01*
X163214404Y-83402143D02*
X163309642Y-83449762D01*
X163309642Y-83449762D02*
X163357261Y-83497381D01*
X163357261Y-83497381D02*
X163404880Y-83592619D01*
X163404880Y-83592619D02*
X163404880Y-83973571D01*
X163404880Y-83973571D02*
X162404880Y-83973571D01*
X162404880Y-83973571D02*
X162404880Y-83640238D01*
X162404880Y-83640238D02*
X162452500Y-83545000D01*
X162452500Y-83545000D02*
X162500119Y-83497381D01*
X162500119Y-83497381D02*
X162595357Y-83449762D01*
X162595357Y-83449762D02*
X162690595Y-83449762D01*
X162690595Y-83449762D02*
X162785833Y-83497381D01*
X162785833Y-83497381D02*
X162833452Y-83545000D01*
X162833452Y-83545000D02*
X162881071Y-83640238D01*
X162881071Y-83640238D02*
X162881071Y-83973571D01*
X163119166Y-83021190D02*
X163119166Y-82545000D01*
X163404880Y-83116428D02*
X162404880Y-82783095D01*
X162404880Y-82783095D02*
X163404880Y-82449762D01*
X162404880Y-82259285D02*
X162404880Y-81687857D01*
X163404880Y-81973571D02*
X162404880Y-81973571D01*
X162404880Y-81068809D02*
X163119166Y-81068809D01*
X163119166Y-81068809D02*
X163262023Y-81116428D01*
X163262023Y-81116428D02*
X163357261Y-81211666D01*
X163357261Y-81211666D02*
X163404880Y-81354523D01*
X163404880Y-81354523D02*
X163404880Y-81449761D01*
X162738214Y-80164047D02*
X163404880Y-80164047D01*
X162357261Y-80402142D02*
X163071547Y-80640237D01*
X163071547Y-80640237D02*
X163071547Y-80021190D01*
X167686071Y-74190238D02*
X167733690Y-74047381D01*
X167733690Y-74047381D02*
X167781309Y-73999762D01*
X167781309Y-73999762D02*
X167876547Y-73952143D01*
X167876547Y-73952143D02*
X168019404Y-73952143D01*
X168019404Y-73952143D02*
X168114642Y-73999762D01*
X168114642Y-73999762D02*
X168162261Y-74047381D01*
X168162261Y-74047381D02*
X168209880Y-74142619D01*
X168209880Y-74142619D02*
X168209880Y-74523571D01*
X168209880Y-74523571D02*
X167209880Y-74523571D01*
X167209880Y-74523571D02*
X167209880Y-74190238D01*
X167209880Y-74190238D02*
X167257500Y-74095000D01*
X167257500Y-74095000D02*
X167305119Y-74047381D01*
X167305119Y-74047381D02*
X167400357Y-73999762D01*
X167400357Y-73999762D02*
X167495595Y-73999762D01*
X167495595Y-73999762D02*
X167590833Y-74047381D01*
X167590833Y-74047381D02*
X167638452Y-74095000D01*
X167638452Y-74095000D02*
X167686071Y-74190238D01*
X167686071Y-74190238D02*
X167686071Y-74523571D01*
X167924166Y-73571190D02*
X167924166Y-73095000D01*
X168209880Y-73666428D02*
X167209880Y-73333095D01*
X167209880Y-73333095D02*
X168209880Y-72999762D01*
X167209880Y-72809285D02*
X167209880Y-72237857D01*
X168209880Y-72523571D02*
X167209880Y-72523571D01*
X167209880Y-71618809D02*
X167924166Y-71618809D01*
X167924166Y-71618809D02*
X168067023Y-71666428D01*
X168067023Y-71666428D02*
X168162261Y-71761666D01*
X168162261Y-71761666D02*
X168209880Y-71904523D01*
X168209880Y-71904523D02*
X168209880Y-71999761D01*
X167209880Y-71237856D02*
X167209880Y-70618809D01*
X167209880Y-70618809D02*
X167590833Y-70952142D01*
X167590833Y-70952142D02*
X167590833Y-70809285D01*
X167590833Y-70809285D02*
X167638452Y-70714047D01*
X167638452Y-70714047D02*
X167686071Y-70666428D01*
X167686071Y-70666428D02*
X167781309Y-70618809D01*
X167781309Y-70618809D02*
X168019404Y-70618809D01*
X168019404Y-70618809D02*
X168114642Y-70666428D01*
X168114642Y-70666428D02*
X168162261Y-70714047D01*
X168162261Y-70714047D02*
X168209880Y-70809285D01*
X168209880Y-70809285D02*
X168209880Y-71094999D01*
X168209880Y-71094999D02*
X168162261Y-71190237D01*
X168162261Y-71190237D02*
X168114642Y-71237856D01*
X160914642Y-79380715D02*
X160962261Y-79428334D01*
X160962261Y-79428334D02*
X161009880Y-79571191D01*
X161009880Y-79571191D02*
X161009880Y-79666429D01*
X161009880Y-79666429D02*
X160962261Y-79809286D01*
X160962261Y-79809286D02*
X160867023Y-79904524D01*
X160867023Y-79904524D02*
X160771785Y-79952143D01*
X160771785Y-79952143D02*
X160581309Y-79999762D01*
X160581309Y-79999762D02*
X160438452Y-79999762D01*
X160438452Y-79999762D02*
X160247976Y-79952143D01*
X160247976Y-79952143D02*
X160152738Y-79904524D01*
X160152738Y-79904524D02*
X160057500Y-79809286D01*
X160057500Y-79809286D02*
X160009880Y-79666429D01*
X160009880Y-79666429D02*
X160009880Y-79571191D01*
X160009880Y-79571191D02*
X160057500Y-79428334D01*
X160057500Y-79428334D02*
X160105119Y-79380715D01*
X161009880Y-78809286D02*
X160962261Y-78904524D01*
X160962261Y-78904524D02*
X160914642Y-78952143D01*
X160914642Y-78952143D02*
X160819404Y-78999762D01*
X160819404Y-78999762D02*
X160533690Y-78999762D01*
X160533690Y-78999762D02*
X160438452Y-78952143D01*
X160438452Y-78952143D02*
X160390833Y-78904524D01*
X160390833Y-78904524D02*
X160343214Y-78809286D01*
X160343214Y-78809286D02*
X160343214Y-78666429D01*
X160343214Y-78666429D02*
X160390833Y-78571191D01*
X160390833Y-78571191D02*
X160438452Y-78523572D01*
X160438452Y-78523572D02*
X160533690Y-78475953D01*
X160533690Y-78475953D02*
X160819404Y-78475953D01*
X160819404Y-78475953D02*
X160914642Y-78523572D01*
X160914642Y-78523572D02*
X160962261Y-78571191D01*
X160962261Y-78571191D02*
X161009880Y-78666429D01*
X161009880Y-78666429D02*
X161009880Y-78809286D01*
X160343214Y-78047381D02*
X161009880Y-78047381D01*
X160438452Y-78047381D02*
X160390833Y-77999762D01*
X160390833Y-77999762D02*
X160343214Y-77904524D01*
X160343214Y-77904524D02*
X160343214Y-77761667D01*
X160343214Y-77761667D02*
X160390833Y-77666429D01*
X160390833Y-77666429D02*
X160486071Y-77618810D01*
X160486071Y-77618810D02*
X161009880Y-77618810D01*
X160343214Y-77142619D02*
X161009880Y-77142619D01*
X160438452Y-77142619D02*
X160390833Y-77095000D01*
X160390833Y-77095000D02*
X160343214Y-76999762D01*
X160343214Y-76999762D02*
X160343214Y-76856905D01*
X160343214Y-76856905D02*
X160390833Y-76761667D01*
X160390833Y-76761667D02*
X160486071Y-76714048D01*
X160486071Y-76714048D02*
X161009880Y-76714048D01*
X161105119Y-76475953D02*
X161105119Y-75714048D01*
X160009880Y-75285476D02*
X160009880Y-75190238D01*
X160009880Y-75190238D02*
X160057500Y-75095000D01*
X160057500Y-75095000D02*
X160105119Y-75047381D01*
X160105119Y-75047381D02*
X160200357Y-74999762D01*
X160200357Y-74999762D02*
X160390833Y-74952143D01*
X160390833Y-74952143D02*
X160628928Y-74952143D01*
X160628928Y-74952143D02*
X160819404Y-74999762D01*
X160819404Y-74999762D02*
X160914642Y-75047381D01*
X160914642Y-75047381D02*
X160962261Y-75095000D01*
X160962261Y-75095000D02*
X161009880Y-75190238D01*
X161009880Y-75190238D02*
X161009880Y-75285476D01*
X161009880Y-75285476D02*
X160962261Y-75380714D01*
X160962261Y-75380714D02*
X160914642Y-75428333D01*
X160914642Y-75428333D02*
X160819404Y-75475952D01*
X160819404Y-75475952D02*
X160628928Y-75523571D01*
X160628928Y-75523571D02*
X160390833Y-75523571D01*
X160390833Y-75523571D02*
X160200357Y-75475952D01*
X160200357Y-75475952D02*
X160105119Y-75428333D01*
X160105119Y-75428333D02*
X160057500Y-75380714D01*
X160057500Y-75380714D02*
X160009880Y-75285476D01*
X161009880Y-73999762D02*
X161009880Y-74571190D01*
X161009880Y-74285476D02*
X160009880Y-74285476D01*
X160009880Y-74285476D02*
X160152738Y-74380714D01*
X160152738Y-74380714D02*
X160247976Y-74475952D01*
X160247976Y-74475952D02*
X160295595Y-74571190D01*
X161009880Y-73666428D02*
X160343214Y-73142619D01*
X160343214Y-73666428D02*
X161009880Y-73142619D01*
X160009880Y-72571190D02*
X160009880Y-72475952D01*
X160009880Y-72475952D02*
X160057500Y-72380714D01*
X160057500Y-72380714D02*
X160105119Y-72333095D01*
X160105119Y-72333095D02*
X160200357Y-72285476D01*
X160200357Y-72285476D02*
X160390833Y-72237857D01*
X160390833Y-72237857D02*
X160628928Y-72237857D01*
X160628928Y-72237857D02*
X160819404Y-72285476D01*
X160819404Y-72285476D02*
X160914642Y-72333095D01*
X160914642Y-72333095D02*
X160962261Y-72380714D01*
X160962261Y-72380714D02*
X161009880Y-72475952D01*
X161009880Y-72475952D02*
X161009880Y-72571190D01*
X161009880Y-72571190D02*
X160962261Y-72666428D01*
X160962261Y-72666428D02*
X160914642Y-72714047D01*
X160914642Y-72714047D02*
X160819404Y-72761666D01*
X160819404Y-72761666D02*
X160628928Y-72809285D01*
X160628928Y-72809285D02*
X160390833Y-72809285D01*
X160390833Y-72809285D02*
X160200357Y-72761666D01*
X160200357Y-72761666D02*
X160105119Y-72714047D01*
X160105119Y-72714047D02*
X160057500Y-72666428D01*
X160057500Y-72666428D02*
X160009880Y-72571190D01*
X160105119Y-71856904D02*
X160057500Y-71809285D01*
X160057500Y-71809285D02*
X160009880Y-71714047D01*
X160009880Y-71714047D02*
X160009880Y-71475952D01*
X160009880Y-71475952D02*
X160057500Y-71380714D01*
X160057500Y-71380714D02*
X160105119Y-71333095D01*
X160105119Y-71333095D02*
X160200357Y-71285476D01*
X160200357Y-71285476D02*
X160295595Y-71285476D01*
X160295595Y-71285476D02*
X160438452Y-71333095D01*
X160438452Y-71333095D02*
X161009880Y-71904523D01*
X161009880Y-71904523D02*
X161009880Y-71285476D01*
X161105119Y-71095000D02*
X161105119Y-70333095D01*
X160486071Y-69761666D02*
X160486071Y-70094999D01*
X161009880Y-70094999D02*
X160009880Y-70094999D01*
X160009880Y-70094999D02*
X160009880Y-69618809D01*
X160962261Y-68856904D02*
X161009880Y-68952142D01*
X161009880Y-68952142D02*
X161009880Y-69142618D01*
X161009880Y-69142618D02*
X160962261Y-69237856D01*
X160962261Y-69237856D02*
X160867023Y-69285475D01*
X160867023Y-69285475D02*
X160486071Y-69285475D01*
X160486071Y-69285475D02*
X160390833Y-69237856D01*
X160390833Y-69237856D02*
X160343214Y-69142618D01*
X160343214Y-69142618D02*
X160343214Y-68952142D01*
X160343214Y-68952142D02*
X160390833Y-68856904D01*
X160390833Y-68856904D02*
X160486071Y-68809285D01*
X160486071Y-68809285D02*
X160581309Y-68809285D01*
X160581309Y-68809285D02*
X160676547Y-69285475D01*
X161009880Y-68380713D02*
X160343214Y-68380713D01*
X160438452Y-68380713D02*
X160390833Y-68333094D01*
X160390833Y-68333094D02*
X160343214Y-68237856D01*
X160343214Y-68237856D02*
X160343214Y-68094999D01*
X160343214Y-68094999D02*
X160390833Y-67999761D01*
X160390833Y-67999761D02*
X160486071Y-67952142D01*
X160486071Y-67952142D02*
X161009880Y-67952142D01*
X160486071Y-67952142D02*
X160390833Y-67904523D01*
X160390833Y-67904523D02*
X160343214Y-67809285D01*
X160343214Y-67809285D02*
X160343214Y-67666428D01*
X160343214Y-67666428D02*
X160390833Y-67571189D01*
X160390833Y-67571189D02*
X160486071Y-67523570D01*
X160486071Y-67523570D02*
X161009880Y-67523570D01*
X161009880Y-66618809D02*
X160486071Y-66618809D01*
X160486071Y-66618809D02*
X160390833Y-66666428D01*
X160390833Y-66666428D02*
X160343214Y-66761666D01*
X160343214Y-66761666D02*
X160343214Y-66952142D01*
X160343214Y-66952142D02*
X160390833Y-67047380D01*
X160962261Y-66618809D02*
X161009880Y-66714047D01*
X161009880Y-66714047D02*
X161009880Y-66952142D01*
X161009880Y-66952142D02*
X160962261Y-67047380D01*
X160962261Y-67047380D02*
X160867023Y-67094999D01*
X160867023Y-67094999D02*
X160771785Y-67094999D01*
X160771785Y-67094999D02*
X160676547Y-67047380D01*
X160676547Y-67047380D02*
X160628928Y-66952142D01*
X160628928Y-66952142D02*
X160628928Y-66714047D01*
X160628928Y-66714047D02*
X160581309Y-66618809D01*
X161009880Y-65999761D02*
X160962261Y-66094999D01*
X160962261Y-66094999D02*
X160867023Y-66142618D01*
X160867023Y-66142618D02*
X160009880Y-66142618D01*
X160962261Y-65237856D02*
X161009880Y-65333094D01*
X161009880Y-65333094D02*
X161009880Y-65523570D01*
X161009880Y-65523570D02*
X160962261Y-65618808D01*
X160962261Y-65618808D02*
X160867023Y-65666427D01*
X160867023Y-65666427D02*
X160486071Y-65666427D01*
X160486071Y-65666427D02*
X160390833Y-65618808D01*
X160390833Y-65618808D02*
X160343214Y-65523570D01*
X160343214Y-65523570D02*
X160343214Y-65333094D01*
X160343214Y-65333094D02*
X160390833Y-65237856D01*
X160390833Y-65237856D02*
X160486071Y-65190237D01*
X160486071Y-65190237D02*
X160581309Y-65190237D01*
X160581309Y-65190237D02*
X160676547Y-65666427D01*
X162647261Y-72438571D02*
X162790118Y-72486190D01*
X162790118Y-72486190D02*
X162837737Y-72533809D01*
X162837737Y-72533809D02*
X162885356Y-72629047D01*
X162885356Y-72629047D02*
X162885356Y-72771904D01*
X162885356Y-72771904D02*
X162837737Y-72867142D01*
X162837737Y-72867142D02*
X162790118Y-72914761D01*
X162790118Y-72914761D02*
X162694880Y-72962380D01*
X162694880Y-72962380D02*
X162313928Y-72962380D01*
X162313928Y-72962380D02*
X162313928Y-71962380D01*
X162313928Y-71962380D02*
X162647261Y-71962380D01*
X162647261Y-71962380D02*
X162742499Y-72010000D01*
X162742499Y-72010000D02*
X162790118Y-72057619D01*
X162790118Y-72057619D02*
X162837737Y-72152857D01*
X162837737Y-72152857D02*
X162837737Y-72248095D01*
X162837737Y-72248095D02*
X162790118Y-72343333D01*
X162790118Y-72343333D02*
X162742499Y-72390952D01*
X162742499Y-72390952D02*
X162647261Y-72438571D01*
X162647261Y-72438571D02*
X162313928Y-72438571D01*
X163266309Y-72676666D02*
X163742499Y-72676666D01*
X163171071Y-72962380D02*
X163504404Y-71962380D01*
X163504404Y-71962380D02*
X163837737Y-72962380D01*
X164028214Y-71962380D02*
X164599642Y-71962380D01*
X164313928Y-72962380D02*
X164313928Y-71962380D01*
X165218690Y-71962380D02*
X165218690Y-72676666D01*
X165218690Y-72676666D02*
X165171071Y-72819523D01*
X165171071Y-72819523D02*
X165075833Y-72914761D01*
X165075833Y-72914761D02*
X164932976Y-72962380D01*
X164932976Y-72962380D02*
X164837738Y-72962380D01*
X165599643Y-71962380D02*
X166218690Y-71962380D01*
X166218690Y-71962380D02*
X165885357Y-72343333D01*
X165885357Y-72343333D02*
X166028214Y-72343333D01*
X166028214Y-72343333D02*
X166123452Y-72390952D01*
X166123452Y-72390952D02*
X166171071Y-72438571D01*
X166171071Y-72438571D02*
X166218690Y-72533809D01*
X166218690Y-72533809D02*
X166218690Y-72771904D01*
X166218690Y-72771904D02*
X166171071Y-72867142D01*
X166171071Y-72867142D02*
X166123452Y-72914761D01*
X166123452Y-72914761D02*
X166028214Y-72962380D01*
X166028214Y-72962380D02*
X165742500Y-72962380D01*
X165742500Y-72962380D02*
X165647262Y-72914761D01*
X165647262Y-72914761D02*
X165599643Y-72867142D01*
X132986071Y-74190238D02*
X133033690Y-74047381D01*
X133033690Y-74047381D02*
X133081309Y-73999762D01*
X133081309Y-73999762D02*
X133176547Y-73952143D01*
X133176547Y-73952143D02*
X133319404Y-73952143D01*
X133319404Y-73952143D02*
X133414642Y-73999762D01*
X133414642Y-73999762D02*
X133462261Y-74047381D01*
X133462261Y-74047381D02*
X133509880Y-74142619D01*
X133509880Y-74142619D02*
X133509880Y-74523571D01*
X133509880Y-74523571D02*
X132509880Y-74523571D01*
X132509880Y-74523571D02*
X132509880Y-74190238D01*
X132509880Y-74190238D02*
X132557500Y-74095000D01*
X132557500Y-74095000D02*
X132605119Y-74047381D01*
X132605119Y-74047381D02*
X132700357Y-73999762D01*
X132700357Y-73999762D02*
X132795595Y-73999762D01*
X132795595Y-73999762D02*
X132890833Y-74047381D01*
X132890833Y-74047381D02*
X132938452Y-74095000D01*
X132938452Y-74095000D02*
X132986071Y-74190238D01*
X132986071Y-74190238D02*
X132986071Y-74523571D01*
X133224166Y-73571190D02*
X133224166Y-73095000D01*
X133509880Y-73666428D02*
X132509880Y-73333095D01*
X132509880Y-73333095D02*
X133509880Y-72999762D01*
X132509880Y-72809285D02*
X132509880Y-72237857D01*
X133509880Y-72523571D02*
X132509880Y-72523571D01*
X132509880Y-71618809D02*
X133224166Y-71618809D01*
X133224166Y-71618809D02*
X133367023Y-71666428D01*
X133367023Y-71666428D02*
X133462261Y-71761666D01*
X133462261Y-71761666D02*
X133509880Y-71904523D01*
X133509880Y-71904523D02*
X133509880Y-71999761D01*
X133509880Y-70618809D02*
X133509880Y-71190237D01*
X133509880Y-70904523D02*
X132509880Y-70904523D01*
X132509880Y-70904523D02*
X132652738Y-70999761D01*
X132652738Y-70999761D02*
X132747976Y-71094999D01*
X132747976Y-71094999D02*
X132795595Y-71190237D01*
X140614642Y-79380715D02*
X140662261Y-79428334D01*
X140662261Y-79428334D02*
X140709880Y-79571191D01*
X140709880Y-79571191D02*
X140709880Y-79666429D01*
X140709880Y-79666429D02*
X140662261Y-79809286D01*
X140662261Y-79809286D02*
X140567023Y-79904524D01*
X140567023Y-79904524D02*
X140471785Y-79952143D01*
X140471785Y-79952143D02*
X140281309Y-79999762D01*
X140281309Y-79999762D02*
X140138452Y-79999762D01*
X140138452Y-79999762D02*
X139947976Y-79952143D01*
X139947976Y-79952143D02*
X139852738Y-79904524D01*
X139852738Y-79904524D02*
X139757500Y-79809286D01*
X139757500Y-79809286D02*
X139709880Y-79666429D01*
X139709880Y-79666429D02*
X139709880Y-79571191D01*
X139709880Y-79571191D02*
X139757500Y-79428334D01*
X139757500Y-79428334D02*
X139805119Y-79380715D01*
X140709880Y-78809286D02*
X140662261Y-78904524D01*
X140662261Y-78904524D02*
X140614642Y-78952143D01*
X140614642Y-78952143D02*
X140519404Y-78999762D01*
X140519404Y-78999762D02*
X140233690Y-78999762D01*
X140233690Y-78999762D02*
X140138452Y-78952143D01*
X140138452Y-78952143D02*
X140090833Y-78904524D01*
X140090833Y-78904524D02*
X140043214Y-78809286D01*
X140043214Y-78809286D02*
X140043214Y-78666429D01*
X140043214Y-78666429D02*
X140090833Y-78571191D01*
X140090833Y-78571191D02*
X140138452Y-78523572D01*
X140138452Y-78523572D02*
X140233690Y-78475953D01*
X140233690Y-78475953D02*
X140519404Y-78475953D01*
X140519404Y-78475953D02*
X140614642Y-78523572D01*
X140614642Y-78523572D02*
X140662261Y-78571191D01*
X140662261Y-78571191D02*
X140709880Y-78666429D01*
X140709880Y-78666429D02*
X140709880Y-78809286D01*
X140043214Y-78047381D02*
X140709880Y-78047381D01*
X140138452Y-78047381D02*
X140090833Y-77999762D01*
X140090833Y-77999762D02*
X140043214Y-77904524D01*
X140043214Y-77904524D02*
X140043214Y-77761667D01*
X140043214Y-77761667D02*
X140090833Y-77666429D01*
X140090833Y-77666429D02*
X140186071Y-77618810D01*
X140186071Y-77618810D02*
X140709880Y-77618810D01*
X140043214Y-77142619D02*
X140709880Y-77142619D01*
X140138452Y-77142619D02*
X140090833Y-77095000D01*
X140090833Y-77095000D02*
X140043214Y-76999762D01*
X140043214Y-76999762D02*
X140043214Y-76856905D01*
X140043214Y-76856905D02*
X140090833Y-76761667D01*
X140090833Y-76761667D02*
X140186071Y-76714048D01*
X140186071Y-76714048D02*
X140709880Y-76714048D01*
X140805119Y-76475953D02*
X140805119Y-75714048D01*
X139709880Y-75285476D02*
X139709880Y-75190238D01*
X139709880Y-75190238D02*
X139757500Y-75095000D01*
X139757500Y-75095000D02*
X139805119Y-75047381D01*
X139805119Y-75047381D02*
X139900357Y-74999762D01*
X139900357Y-74999762D02*
X140090833Y-74952143D01*
X140090833Y-74952143D02*
X140328928Y-74952143D01*
X140328928Y-74952143D02*
X140519404Y-74999762D01*
X140519404Y-74999762D02*
X140614642Y-75047381D01*
X140614642Y-75047381D02*
X140662261Y-75095000D01*
X140662261Y-75095000D02*
X140709880Y-75190238D01*
X140709880Y-75190238D02*
X140709880Y-75285476D01*
X140709880Y-75285476D02*
X140662261Y-75380714D01*
X140662261Y-75380714D02*
X140614642Y-75428333D01*
X140614642Y-75428333D02*
X140519404Y-75475952D01*
X140519404Y-75475952D02*
X140328928Y-75523571D01*
X140328928Y-75523571D02*
X140090833Y-75523571D01*
X140090833Y-75523571D02*
X139900357Y-75475952D01*
X139900357Y-75475952D02*
X139805119Y-75428333D01*
X139805119Y-75428333D02*
X139757500Y-75380714D01*
X139757500Y-75380714D02*
X139709880Y-75285476D01*
X140709880Y-73999762D02*
X140709880Y-74571190D01*
X140709880Y-74285476D02*
X139709880Y-74285476D01*
X139709880Y-74285476D02*
X139852738Y-74380714D01*
X139852738Y-74380714D02*
X139947976Y-74475952D01*
X139947976Y-74475952D02*
X139995595Y-74571190D01*
X140709880Y-73666428D02*
X140043214Y-73142619D01*
X140043214Y-73666428D02*
X140709880Y-73142619D01*
X139709880Y-72571190D02*
X139709880Y-72475952D01*
X139709880Y-72475952D02*
X139757500Y-72380714D01*
X139757500Y-72380714D02*
X139805119Y-72333095D01*
X139805119Y-72333095D02*
X139900357Y-72285476D01*
X139900357Y-72285476D02*
X140090833Y-72237857D01*
X140090833Y-72237857D02*
X140328928Y-72237857D01*
X140328928Y-72237857D02*
X140519404Y-72285476D01*
X140519404Y-72285476D02*
X140614642Y-72333095D01*
X140614642Y-72333095D02*
X140662261Y-72380714D01*
X140662261Y-72380714D02*
X140709880Y-72475952D01*
X140709880Y-72475952D02*
X140709880Y-72571190D01*
X140709880Y-72571190D02*
X140662261Y-72666428D01*
X140662261Y-72666428D02*
X140614642Y-72714047D01*
X140614642Y-72714047D02*
X140519404Y-72761666D01*
X140519404Y-72761666D02*
X140328928Y-72809285D01*
X140328928Y-72809285D02*
X140090833Y-72809285D01*
X140090833Y-72809285D02*
X139900357Y-72761666D01*
X139900357Y-72761666D02*
X139805119Y-72714047D01*
X139805119Y-72714047D02*
X139757500Y-72666428D01*
X139757500Y-72666428D02*
X139709880Y-72571190D01*
X139805119Y-71856904D02*
X139757500Y-71809285D01*
X139757500Y-71809285D02*
X139709880Y-71714047D01*
X139709880Y-71714047D02*
X139709880Y-71475952D01*
X139709880Y-71475952D02*
X139757500Y-71380714D01*
X139757500Y-71380714D02*
X139805119Y-71333095D01*
X139805119Y-71333095D02*
X139900357Y-71285476D01*
X139900357Y-71285476D02*
X139995595Y-71285476D01*
X139995595Y-71285476D02*
X140138452Y-71333095D01*
X140138452Y-71333095D02*
X140709880Y-71904523D01*
X140709880Y-71904523D02*
X140709880Y-71285476D01*
X140805119Y-71095000D02*
X140805119Y-70333095D01*
X140186071Y-69761666D02*
X140186071Y-70094999D01*
X140709880Y-70094999D02*
X139709880Y-70094999D01*
X139709880Y-70094999D02*
X139709880Y-69618809D01*
X140662261Y-68856904D02*
X140709880Y-68952142D01*
X140709880Y-68952142D02*
X140709880Y-69142618D01*
X140709880Y-69142618D02*
X140662261Y-69237856D01*
X140662261Y-69237856D02*
X140567023Y-69285475D01*
X140567023Y-69285475D02*
X140186071Y-69285475D01*
X140186071Y-69285475D02*
X140090833Y-69237856D01*
X140090833Y-69237856D02*
X140043214Y-69142618D01*
X140043214Y-69142618D02*
X140043214Y-68952142D01*
X140043214Y-68952142D02*
X140090833Y-68856904D01*
X140090833Y-68856904D02*
X140186071Y-68809285D01*
X140186071Y-68809285D02*
X140281309Y-68809285D01*
X140281309Y-68809285D02*
X140376547Y-69285475D01*
X140709880Y-68380713D02*
X140043214Y-68380713D01*
X140138452Y-68380713D02*
X140090833Y-68333094D01*
X140090833Y-68333094D02*
X140043214Y-68237856D01*
X140043214Y-68237856D02*
X140043214Y-68094999D01*
X140043214Y-68094999D02*
X140090833Y-67999761D01*
X140090833Y-67999761D02*
X140186071Y-67952142D01*
X140186071Y-67952142D02*
X140709880Y-67952142D01*
X140186071Y-67952142D02*
X140090833Y-67904523D01*
X140090833Y-67904523D02*
X140043214Y-67809285D01*
X140043214Y-67809285D02*
X140043214Y-67666428D01*
X140043214Y-67666428D02*
X140090833Y-67571189D01*
X140090833Y-67571189D02*
X140186071Y-67523570D01*
X140186071Y-67523570D02*
X140709880Y-67523570D01*
X140709880Y-66618809D02*
X140186071Y-66618809D01*
X140186071Y-66618809D02*
X140090833Y-66666428D01*
X140090833Y-66666428D02*
X140043214Y-66761666D01*
X140043214Y-66761666D02*
X140043214Y-66952142D01*
X140043214Y-66952142D02*
X140090833Y-67047380D01*
X140662261Y-66618809D02*
X140709880Y-66714047D01*
X140709880Y-66714047D02*
X140709880Y-66952142D01*
X140709880Y-66952142D02*
X140662261Y-67047380D01*
X140662261Y-67047380D02*
X140567023Y-67094999D01*
X140567023Y-67094999D02*
X140471785Y-67094999D01*
X140471785Y-67094999D02*
X140376547Y-67047380D01*
X140376547Y-67047380D02*
X140328928Y-66952142D01*
X140328928Y-66952142D02*
X140328928Y-66714047D01*
X140328928Y-66714047D02*
X140281309Y-66618809D01*
X140709880Y-65999761D02*
X140662261Y-66094999D01*
X140662261Y-66094999D02*
X140567023Y-66142618D01*
X140567023Y-66142618D02*
X139709880Y-66142618D01*
X140662261Y-65237856D02*
X140709880Y-65333094D01*
X140709880Y-65333094D02*
X140709880Y-65523570D01*
X140709880Y-65523570D02*
X140662261Y-65618808D01*
X140662261Y-65618808D02*
X140567023Y-65666427D01*
X140567023Y-65666427D02*
X140186071Y-65666427D01*
X140186071Y-65666427D02*
X140090833Y-65618808D01*
X140090833Y-65618808D02*
X140043214Y-65523570D01*
X140043214Y-65523570D02*
X140043214Y-65333094D01*
X140043214Y-65333094D02*
X140090833Y-65237856D01*
X140090833Y-65237856D02*
X140186071Y-65190237D01*
X140186071Y-65190237D02*
X140281309Y-65190237D01*
X140281309Y-65190237D02*
X140376547Y-65666427D01*
X135147261Y-72438571D02*
X135290118Y-72486190D01*
X135290118Y-72486190D02*
X135337737Y-72533809D01*
X135337737Y-72533809D02*
X135385356Y-72629047D01*
X135385356Y-72629047D02*
X135385356Y-72771904D01*
X135385356Y-72771904D02*
X135337737Y-72867142D01*
X135337737Y-72867142D02*
X135290118Y-72914761D01*
X135290118Y-72914761D02*
X135194880Y-72962380D01*
X135194880Y-72962380D02*
X134813928Y-72962380D01*
X134813928Y-72962380D02*
X134813928Y-71962380D01*
X134813928Y-71962380D02*
X135147261Y-71962380D01*
X135147261Y-71962380D02*
X135242499Y-72010000D01*
X135242499Y-72010000D02*
X135290118Y-72057619D01*
X135290118Y-72057619D02*
X135337737Y-72152857D01*
X135337737Y-72152857D02*
X135337737Y-72248095D01*
X135337737Y-72248095D02*
X135290118Y-72343333D01*
X135290118Y-72343333D02*
X135242499Y-72390952D01*
X135242499Y-72390952D02*
X135147261Y-72438571D01*
X135147261Y-72438571D02*
X134813928Y-72438571D01*
X135766309Y-72676666D02*
X136242499Y-72676666D01*
X135671071Y-72962380D02*
X136004404Y-71962380D01*
X136004404Y-71962380D02*
X136337737Y-72962380D01*
X136528214Y-71962380D02*
X137099642Y-71962380D01*
X136813928Y-72962380D02*
X136813928Y-71962380D01*
X137718690Y-71962380D02*
X137718690Y-72676666D01*
X137718690Y-72676666D02*
X137671071Y-72819523D01*
X137671071Y-72819523D02*
X137575833Y-72914761D01*
X137575833Y-72914761D02*
X137432976Y-72962380D01*
X137432976Y-72962380D02*
X137337738Y-72962380D01*
X138718690Y-72962380D02*
X138147262Y-72962380D01*
X138432976Y-72962380D02*
X138432976Y-71962380D01*
X138432976Y-71962380D02*
X138337738Y-72105238D01*
X138337738Y-72105238D02*
X138242500Y-72200476D01*
X138242500Y-72200476D02*
X138147262Y-72248095D01*
X149357261Y-88816428D02*
X149404880Y-88673571D01*
X149404880Y-88673571D02*
X149404880Y-88435476D01*
X149404880Y-88435476D02*
X149357261Y-88340238D01*
X149357261Y-88340238D02*
X149309642Y-88292619D01*
X149309642Y-88292619D02*
X149214404Y-88245000D01*
X149214404Y-88245000D02*
X149119166Y-88245000D01*
X149119166Y-88245000D02*
X149023928Y-88292619D01*
X149023928Y-88292619D02*
X148976309Y-88340238D01*
X148976309Y-88340238D02*
X148928690Y-88435476D01*
X148928690Y-88435476D02*
X148881071Y-88625952D01*
X148881071Y-88625952D02*
X148833452Y-88721190D01*
X148833452Y-88721190D02*
X148785833Y-88768809D01*
X148785833Y-88768809D02*
X148690595Y-88816428D01*
X148690595Y-88816428D02*
X148595357Y-88816428D01*
X148595357Y-88816428D02*
X148500119Y-88768809D01*
X148500119Y-88768809D02*
X148452500Y-88721190D01*
X148452500Y-88721190D02*
X148404880Y-88625952D01*
X148404880Y-88625952D02*
X148404880Y-88387857D01*
X148404880Y-88387857D02*
X148452500Y-88245000D01*
X148404880Y-87911666D02*
X149404880Y-87673571D01*
X149404880Y-87673571D02*
X148690595Y-87483095D01*
X148690595Y-87483095D02*
X149404880Y-87292619D01*
X149404880Y-87292619D02*
X148404880Y-87054524D01*
X149500119Y-86911667D02*
X149500119Y-86149762D01*
X149357261Y-85959285D02*
X149404880Y-85816428D01*
X149404880Y-85816428D02*
X149404880Y-85578333D01*
X149404880Y-85578333D02*
X149357261Y-85483095D01*
X149357261Y-85483095D02*
X149309642Y-85435476D01*
X149309642Y-85435476D02*
X149214404Y-85387857D01*
X149214404Y-85387857D02*
X149119166Y-85387857D01*
X149119166Y-85387857D02*
X149023928Y-85435476D01*
X149023928Y-85435476D02*
X148976309Y-85483095D01*
X148976309Y-85483095D02*
X148928690Y-85578333D01*
X148928690Y-85578333D02*
X148881071Y-85768809D01*
X148881071Y-85768809D02*
X148833452Y-85864047D01*
X148833452Y-85864047D02*
X148785833Y-85911666D01*
X148785833Y-85911666D02*
X148690595Y-85959285D01*
X148690595Y-85959285D02*
X148595357Y-85959285D01*
X148595357Y-85959285D02*
X148500119Y-85911666D01*
X148500119Y-85911666D02*
X148452500Y-85864047D01*
X148452500Y-85864047D02*
X148404880Y-85768809D01*
X148404880Y-85768809D02*
X148404880Y-85530714D01*
X148404880Y-85530714D02*
X148452500Y-85387857D01*
X149404880Y-84959285D02*
X148404880Y-84959285D01*
X148404880Y-84959285D02*
X148404880Y-84578333D01*
X148404880Y-84578333D02*
X148452500Y-84483095D01*
X148452500Y-84483095D02*
X148500119Y-84435476D01*
X148500119Y-84435476D02*
X148595357Y-84387857D01*
X148595357Y-84387857D02*
X148738214Y-84387857D01*
X148738214Y-84387857D02*
X148833452Y-84435476D01*
X148833452Y-84435476D02*
X148881071Y-84483095D01*
X148881071Y-84483095D02*
X148928690Y-84578333D01*
X148928690Y-84578333D02*
X148928690Y-84959285D01*
X149357261Y-84006904D02*
X149404880Y-83864047D01*
X149404880Y-83864047D02*
X149404880Y-83625952D01*
X149404880Y-83625952D02*
X149357261Y-83530714D01*
X149357261Y-83530714D02*
X149309642Y-83483095D01*
X149309642Y-83483095D02*
X149214404Y-83435476D01*
X149214404Y-83435476D02*
X149119166Y-83435476D01*
X149119166Y-83435476D02*
X149023928Y-83483095D01*
X149023928Y-83483095D02*
X148976309Y-83530714D01*
X148976309Y-83530714D02*
X148928690Y-83625952D01*
X148928690Y-83625952D02*
X148881071Y-83816428D01*
X148881071Y-83816428D02*
X148833452Y-83911666D01*
X148833452Y-83911666D02*
X148785833Y-83959285D01*
X148785833Y-83959285D02*
X148690595Y-84006904D01*
X148690595Y-84006904D02*
X148595357Y-84006904D01*
X148595357Y-84006904D02*
X148500119Y-83959285D01*
X148500119Y-83959285D02*
X148452500Y-83911666D01*
X148452500Y-83911666D02*
X148404880Y-83816428D01*
X148404880Y-83816428D02*
X148404880Y-83578333D01*
X148404880Y-83578333D02*
X148452500Y-83435476D01*
X148404880Y-83149761D02*
X148404880Y-82578333D01*
X149404880Y-82864047D02*
X148404880Y-82864047D01*
X141954880Y-87530713D02*
X140954880Y-87530713D01*
X140954880Y-87530713D02*
X140954880Y-87149761D01*
X140954880Y-87149761D02*
X141002500Y-87054523D01*
X141002500Y-87054523D02*
X141050119Y-87006904D01*
X141050119Y-87006904D02*
X141145357Y-86959285D01*
X141145357Y-86959285D02*
X141288214Y-86959285D01*
X141288214Y-86959285D02*
X141383452Y-87006904D01*
X141383452Y-87006904D02*
X141431071Y-87054523D01*
X141431071Y-87054523D02*
X141478690Y-87149761D01*
X141478690Y-87149761D02*
X141478690Y-87530713D01*
X141907261Y-86578332D02*
X141954880Y-86435475D01*
X141954880Y-86435475D02*
X141954880Y-86197380D01*
X141954880Y-86197380D02*
X141907261Y-86102142D01*
X141907261Y-86102142D02*
X141859642Y-86054523D01*
X141859642Y-86054523D02*
X141764404Y-86006904D01*
X141764404Y-86006904D02*
X141669166Y-86006904D01*
X141669166Y-86006904D02*
X141573928Y-86054523D01*
X141573928Y-86054523D02*
X141526309Y-86102142D01*
X141526309Y-86102142D02*
X141478690Y-86197380D01*
X141478690Y-86197380D02*
X141431071Y-86387856D01*
X141431071Y-86387856D02*
X141383452Y-86483094D01*
X141383452Y-86483094D02*
X141335833Y-86530713D01*
X141335833Y-86530713D02*
X141240595Y-86578332D01*
X141240595Y-86578332D02*
X141145357Y-86578332D01*
X141145357Y-86578332D02*
X141050119Y-86530713D01*
X141050119Y-86530713D02*
X141002500Y-86483094D01*
X141002500Y-86483094D02*
X140954880Y-86387856D01*
X140954880Y-86387856D02*
X140954880Y-86149761D01*
X140954880Y-86149761D02*
X141002500Y-86006904D01*
X140954880Y-85673570D02*
X141954880Y-85435475D01*
X141954880Y-85435475D02*
X141240595Y-85244999D01*
X141240595Y-85244999D02*
X141954880Y-85054523D01*
X141954880Y-85054523D02*
X140954880Y-84816428D01*
X141954880Y-83911666D02*
X141954880Y-84483094D01*
X141954880Y-84197380D02*
X140954880Y-84197380D01*
X140954880Y-84197380D02*
X141097738Y-84292618D01*
X141097738Y-84292618D02*
X141192976Y-84387856D01*
X141192976Y-84387856D02*
X141240595Y-84483094D01*
X133209642Y-88630715D02*
X133257261Y-88678334D01*
X133257261Y-88678334D02*
X133304880Y-88821191D01*
X133304880Y-88821191D02*
X133304880Y-88916429D01*
X133304880Y-88916429D02*
X133257261Y-89059286D01*
X133257261Y-89059286D02*
X133162023Y-89154524D01*
X133162023Y-89154524D02*
X133066785Y-89202143D01*
X133066785Y-89202143D02*
X132876309Y-89249762D01*
X132876309Y-89249762D02*
X132733452Y-89249762D01*
X132733452Y-89249762D02*
X132542976Y-89202143D01*
X132542976Y-89202143D02*
X132447738Y-89154524D01*
X132447738Y-89154524D02*
X132352500Y-89059286D01*
X132352500Y-89059286D02*
X132304880Y-88916429D01*
X132304880Y-88916429D02*
X132304880Y-88821191D01*
X132304880Y-88821191D02*
X132352500Y-88678334D01*
X132352500Y-88678334D02*
X132400119Y-88630715D01*
X133304880Y-88059286D02*
X133257261Y-88154524D01*
X133257261Y-88154524D02*
X133209642Y-88202143D01*
X133209642Y-88202143D02*
X133114404Y-88249762D01*
X133114404Y-88249762D02*
X132828690Y-88249762D01*
X132828690Y-88249762D02*
X132733452Y-88202143D01*
X132733452Y-88202143D02*
X132685833Y-88154524D01*
X132685833Y-88154524D02*
X132638214Y-88059286D01*
X132638214Y-88059286D02*
X132638214Y-87916429D01*
X132638214Y-87916429D02*
X132685833Y-87821191D01*
X132685833Y-87821191D02*
X132733452Y-87773572D01*
X132733452Y-87773572D02*
X132828690Y-87725953D01*
X132828690Y-87725953D02*
X133114404Y-87725953D01*
X133114404Y-87725953D02*
X133209642Y-87773572D01*
X133209642Y-87773572D02*
X133257261Y-87821191D01*
X133257261Y-87821191D02*
X133304880Y-87916429D01*
X133304880Y-87916429D02*
X133304880Y-88059286D01*
X132638214Y-87297381D02*
X133304880Y-87297381D01*
X132733452Y-87297381D02*
X132685833Y-87249762D01*
X132685833Y-87249762D02*
X132638214Y-87154524D01*
X132638214Y-87154524D02*
X132638214Y-87011667D01*
X132638214Y-87011667D02*
X132685833Y-86916429D01*
X132685833Y-86916429D02*
X132781071Y-86868810D01*
X132781071Y-86868810D02*
X133304880Y-86868810D01*
X132638214Y-86392619D02*
X133304880Y-86392619D01*
X132733452Y-86392619D02*
X132685833Y-86345000D01*
X132685833Y-86345000D02*
X132638214Y-86249762D01*
X132638214Y-86249762D02*
X132638214Y-86106905D01*
X132638214Y-86106905D02*
X132685833Y-86011667D01*
X132685833Y-86011667D02*
X132781071Y-85964048D01*
X132781071Y-85964048D02*
X133304880Y-85964048D01*
X133400119Y-85725953D02*
X133400119Y-84964048D01*
X132304880Y-84535476D02*
X132304880Y-84440238D01*
X132304880Y-84440238D02*
X132352500Y-84345000D01*
X132352500Y-84345000D02*
X132400119Y-84297381D01*
X132400119Y-84297381D02*
X132495357Y-84249762D01*
X132495357Y-84249762D02*
X132685833Y-84202143D01*
X132685833Y-84202143D02*
X132923928Y-84202143D01*
X132923928Y-84202143D02*
X133114404Y-84249762D01*
X133114404Y-84249762D02*
X133209642Y-84297381D01*
X133209642Y-84297381D02*
X133257261Y-84345000D01*
X133257261Y-84345000D02*
X133304880Y-84440238D01*
X133304880Y-84440238D02*
X133304880Y-84535476D01*
X133304880Y-84535476D02*
X133257261Y-84630714D01*
X133257261Y-84630714D02*
X133209642Y-84678333D01*
X133209642Y-84678333D02*
X133114404Y-84725952D01*
X133114404Y-84725952D02*
X132923928Y-84773571D01*
X132923928Y-84773571D02*
X132685833Y-84773571D01*
X132685833Y-84773571D02*
X132495357Y-84725952D01*
X132495357Y-84725952D02*
X132400119Y-84678333D01*
X132400119Y-84678333D02*
X132352500Y-84630714D01*
X132352500Y-84630714D02*
X132304880Y-84535476D01*
X133304880Y-83249762D02*
X133304880Y-83821190D01*
X133304880Y-83535476D02*
X132304880Y-83535476D01*
X132304880Y-83535476D02*
X132447738Y-83630714D01*
X132447738Y-83630714D02*
X132542976Y-83725952D01*
X132542976Y-83725952D02*
X132590595Y-83821190D01*
X133304880Y-82916428D02*
X132638214Y-82392619D01*
X132638214Y-82916428D02*
X133304880Y-82392619D01*
X132304880Y-81821190D02*
X132304880Y-81725952D01*
X132304880Y-81725952D02*
X132352500Y-81630714D01*
X132352500Y-81630714D02*
X132400119Y-81583095D01*
X132400119Y-81583095D02*
X132495357Y-81535476D01*
X132495357Y-81535476D02*
X132685833Y-81487857D01*
X132685833Y-81487857D02*
X132923928Y-81487857D01*
X132923928Y-81487857D02*
X133114404Y-81535476D01*
X133114404Y-81535476D02*
X133209642Y-81583095D01*
X133209642Y-81583095D02*
X133257261Y-81630714D01*
X133257261Y-81630714D02*
X133304880Y-81725952D01*
X133304880Y-81725952D02*
X133304880Y-81821190D01*
X133304880Y-81821190D02*
X133257261Y-81916428D01*
X133257261Y-81916428D02*
X133209642Y-81964047D01*
X133209642Y-81964047D02*
X133114404Y-82011666D01*
X133114404Y-82011666D02*
X132923928Y-82059285D01*
X132923928Y-82059285D02*
X132685833Y-82059285D01*
X132685833Y-82059285D02*
X132495357Y-82011666D01*
X132495357Y-82011666D02*
X132400119Y-81964047D01*
X132400119Y-81964047D02*
X132352500Y-81916428D01*
X132352500Y-81916428D02*
X132304880Y-81821190D01*
X132400119Y-81106904D02*
X132352500Y-81059285D01*
X132352500Y-81059285D02*
X132304880Y-80964047D01*
X132304880Y-80964047D02*
X132304880Y-80725952D01*
X132304880Y-80725952D02*
X132352500Y-80630714D01*
X132352500Y-80630714D02*
X132400119Y-80583095D01*
X132400119Y-80583095D02*
X132495357Y-80535476D01*
X132495357Y-80535476D02*
X132590595Y-80535476D01*
X132590595Y-80535476D02*
X132733452Y-80583095D01*
X132733452Y-80583095D02*
X133304880Y-81154523D01*
X133304880Y-81154523D02*
X133304880Y-80535476D01*
X133400119Y-80345000D02*
X133400119Y-79583095D01*
X132781071Y-79011666D02*
X132781071Y-79344999D01*
X133304880Y-79344999D02*
X132304880Y-79344999D01*
X132304880Y-79344999D02*
X132304880Y-78868809D01*
X133257261Y-78106904D02*
X133304880Y-78202142D01*
X133304880Y-78202142D02*
X133304880Y-78392618D01*
X133304880Y-78392618D02*
X133257261Y-78487856D01*
X133257261Y-78487856D02*
X133162023Y-78535475D01*
X133162023Y-78535475D02*
X132781071Y-78535475D01*
X132781071Y-78535475D02*
X132685833Y-78487856D01*
X132685833Y-78487856D02*
X132638214Y-78392618D01*
X132638214Y-78392618D02*
X132638214Y-78202142D01*
X132638214Y-78202142D02*
X132685833Y-78106904D01*
X132685833Y-78106904D02*
X132781071Y-78059285D01*
X132781071Y-78059285D02*
X132876309Y-78059285D01*
X132876309Y-78059285D02*
X132971547Y-78535475D01*
X133304880Y-77630713D02*
X132638214Y-77630713D01*
X132733452Y-77630713D02*
X132685833Y-77583094D01*
X132685833Y-77583094D02*
X132638214Y-77487856D01*
X132638214Y-77487856D02*
X132638214Y-77344999D01*
X132638214Y-77344999D02*
X132685833Y-77249761D01*
X132685833Y-77249761D02*
X132781071Y-77202142D01*
X132781071Y-77202142D02*
X133304880Y-77202142D01*
X132781071Y-77202142D02*
X132685833Y-77154523D01*
X132685833Y-77154523D02*
X132638214Y-77059285D01*
X132638214Y-77059285D02*
X132638214Y-76916428D01*
X132638214Y-76916428D02*
X132685833Y-76821189D01*
X132685833Y-76821189D02*
X132781071Y-76773570D01*
X132781071Y-76773570D02*
X133304880Y-76773570D01*
X133304880Y-75868809D02*
X132781071Y-75868809D01*
X132781071Y-75868809D02*
X132685833Y-75916428D01*
X132685833Y-75916428D02*
X132638214Y-76011666D01*
X132638214Y-76011666D02*
X132638214Y-76202142D01*
X132638214Y-76202142D02*
X132685833Y-76297380D01*
X133257261Y-75868809D02*
X133304880Y-75964047D01*
X133304880Y-75964047D02*
X133304880Y-76202142D01*
X133304880Y-76202142D02*
X133257261Y-76297380D01*
X133257261Y-76297380D02*
X133162023Y-76344999D01*
X133162023Y-76344999D02*
X133066785Y-76344999D01*
X133066785Y-76344999D02*
X132971547Y-76297380D01*
X132971547Y-76297380D02*
X132923928Y-76202142D01*
X132923928Y-76202142D02*
X132923928Y-75964047D01*
X132923928Y-75964047D02*
X132876309Y-75868809D01*
X133304880Y-75249761D02*
X133257261Y-75344999D01*
X133257261Y-75344999D02*
X133162023Y-75392618D01*
X133162023Y-75392618D02*
X132304880Y-75392618D01*
X133257261Y-74487856D02*
X133304880Y-74583094D01*
X133304880Y-74583094D02*
X133304880Y-74773570D01*
X133304880Y-74773570D02*
X133257261Y-74868808D01*
X133257261Y-74868808D02*
X133162023Y-74916427D01*
X133162023Y-74916427D02*
X132781071Y-74916427D01*
X132781071Y-74916427D02*
X132685833Y-74868808D01*
X132685833Y-74868808D02*
X132638214Y-74773570D01*
X132638214Y-74773570D02*
X132638214Y-74583094D01*
X132638214Y-74583094D02*
X132685833Y-74487856D01*
X132685833Y-74487856D02*
X132781071Y-74440237D01*
X132781071Y-74440237D02*
X132876309Y-74440237D01*
X132876309Y-74440237D02*
X132971547Y-74916427D01*
X137731071Y-83440238D02*
X137778690Y-83297381D01*
X137778690Y-83297381D02*
X137826309Y-83249762D01*
X137826309Y-83249762D02*
X137921547Y-83202143D01*
X137921547Y-83202143D02*
X138064404Y-83202143D01*
X138064404Y-83202143D02*
X138159642Y-83249762D01*
X138159642Y-83249762D02*
X138207261Y-83297381D01*
X138207261Y-83297381D02*
X138254880Y-83392619D01*
X138254880Y-83392619D02*
X138254880Y-83773571D01*
X138254880Y-83773571D02*
X137254880Y-83773571D01*
X137254880Y-83773571D02*
X137254880Y-83440238D01*
X137254880Y-83440238D02*
X137302500Y-83345000D01*
X137302500Y-83345000D02*
X137350119Y-83297381D01*
X137350119Y-83297381D02*
X137445357Y-83249762D01*
X137445357Y-83249762D02*
X137540595Y-83249762D01*
X137540595Y-83249762D02*
X137635833Y-83297381D01*
X137635833Y-83297381D02*
X137683452Y-83345000D01*
X137683452Y-83345000D02*
X137731071Y-83440238D01*
X137731071Y-83440238D02*
X137731071Y-83773571D01*
X137969166Y-82821190D02*
X137969166Y-82345000D01*
X138254880Y-82916428D02*
X137254880Y-82583095D01*
X137254880Y-82583095D02*
X138254880Y-82249762D01*
X137254880Y-82059285D02*
X137254880Y-81487857D01*
X138254880Y-81773571D02*
X137254880Y-81773571D01*
X137254880Y-80868809D02*
X137969166Y-80868809D01*
X137969166Y-80868809D02*
X138112023Y-80916428D01*
X138112023Y-80916428D02*
X138207261Y-81011666D01*
X138207261Y-81011666D02*
X138254880Y-81154523D01*
X138254880Y-81154523D02*
X138254880Y-81249761D01*
X137350119Y-80440237D02*
X137302500Y-80392618D01*
X137302500Y-80392618D02*
X137254880Y-80297380D01*
X137254880Y-80297380D02*
X137254880Y-80059285D01*
X137254880Y-80059285D02*
X137302500Y-79964047D01*
X137302500Y-79964047D02*
X137350119Y-79916428D01*
X137350119Y-79916428D02*
X137445357Y-79868809D01*
X137445357Y-79868809D02*
X137540595Y-79868809D01*
X137540595Y-79868809D02*
X137683452Y-79916428D01*
X137683452Y-79916428D02*
X138254880Y-80487856D01*
X138254880Y-80487856D02*
X138254880Y-79868809D01*
X267684847Y-34920432D02*
X267684847Y-56920432D01*
X267684847Y-56920432D02*
X289684847Y-56920432D01*
X289684847Y-34920432D02*
X267684847Y-34920432D01*
X289684847Y-56920432D02*
X289684847Y-34920432D01*
X248684847Y-34920432D02*
X248684847Y-56920432D01*
X248684847Y-56920432D02*
X270684847Y-56920432D01*
X270684847Y-34920432D02*
X248684847Y-34920432D01*
X270684847Y-56920432D02*
X270684847Y-34920432D01*
X229684847Y-30170432D02*
X229684847Y-52170432D01*
X229684847Y-52170432D02*
X251684847Y-52170432D01*
X251684847Y-30170432D02*
X229684847Y-30170432D01*
X251684847Y-52170432D02*
X251684847Y-30170432D01*
X210684847Y-27795432D02*
X210684847Y-49795432D01*
X210684847Y-49795432D02*
X232684847Y-49795432D01*
X232684847Y-27795432D02*
X210684847Y-27795432D01*
X232684847Y-49795432D02*
X232684847Y-27795432D01*
X191684847Y-30170432D02*
X191684847Y-52170432D01*
X191684847Y-52170432D02*
X213684847Y-52170432D01*
X213684847Y-30170432D02*
X191684847Y-30170432D01*
X213684847Y-52170432D02*
X213684847Y-30170432D01*
X172684847Y-32545432D02*
X172684847Y-54545432D01*
X172684847Y-54545432D02*
X194684847Y-54545432D01*
X194684847Y-32545432D02*
X172684847Y-32545432D01*
X194684847Y-54545432D02*
X194684847Y-32545432D01*
X267684847Y-53920432D02*
X267684847Y-75920432D01*
X267684847Y-75920432D02*
X289684847Y-75920432D01*
X289684847Y-53920432D02*
X267684847Y-53920432D01*
X289684847Y-75920432D02*
X289684847Y-53920432D01*
X248684847Y-53920432D02*
X248684847Y-75920432D01*
X248684847Y-75920432D02*
X270684847Y-75920432D01*
X270684847Y-53920432D02*
X248684847Y-53920432D01*
X270684847Y-75920432D02*
X270684847Y-53920432D01*
X229684847Y-49170432D02*
X229684847Y-71170432D01*
X229684847Y-71170432D02*
X251684847Y-71170432D01*
X251684847Y-49170432D02*
X229684847Y-49170432D01*
X251684847Y-71170432D02*
X251684847Y-49170432D01*
X210684847Y-46795432D02*
X210684847Y-68795432D01*
X210684847Y-68795432D02*
X232684847Y-68795432D01*
X232684847Y-46795432D02*
X210684847Y-46795432D01*
X232684847Y-68795432D02*
X232684847Y-46795432D01*
X191684847Y-49170432D02*
X191684847Y-71170432D01*
X191684847Y-71170432D02*
X213684847Y-71170432D01*
X213684847Y-49170432D02*
X191684847Y-49170432D01*
X213684847Y-71170432D02*
X213684847Y-49170432D01*
X172684847Y-51545432D02*
X172684847Y-73545432D01*
X172684847Y-73545432D02*
X194684847Y-73545432D01*
X194684847Y-51545432D02*
X172684847Y-51545432D01*
X194684847Y-73545432D02*
X194684847Y-51545432D01*
X267684847Y-72920432D02*
X267684847Y-94920432D01*
X267684847Y-94920432D02*
X289684847Y-94920432D01*
X289684847Y-72920432D02*
X267684847Y-72920432D01*
X289684847Y-94920432D02*
X289684847Y-72920432D01*
X248684847Y-72920432D02*
X248684847Y-94920432D01*
X248684847Y-94920432D02*
X270684847Y-94920432D01*
X270684847Y-72920432D02*
X248684847Y-72920432D01*
X270684847Y-94920432D02*
X270684847Y-72920432D01*
X229684847Y-68170432D02*
X229684847Y-90170432D01*
X229684847Y-90170432D02*
X251684847Y-90170432D01*
X251684847Y-68170432D02*
X229684847Y-68170432D01*
X251684847Y-90170432D02*
X251684847Y-68170432D01*
X210684847Y-65795432D02*
X210684847Y-87795432D01*
X210684847Y-87795432D02*
X232684847Y-87795432D01*
X232684847Y-65795432D02*
X210684847Y-65795432D01*
X232684847Y-87795432D02*
X232684847Y-65795432D01*
X191684847Y-68170432D02*
X191684847Y-90170432D01*
X191684847Y-90170432D02*
X213684847Y-90170432D01*
X213684847Y-68170432D02*
X191684847Y-68170432D01*
X213684847Y-90170432D02*
X213684847Y-68170432D01*
X201184847Y-87795432D02*
X201184847Y-109795432D01*
X201184847Y-109795432D02*
X223184847Y-109795432D01*
X223184847Y-87795432D02*
X201184847Y-87795432D01*
X223184847Y-109795432D02*
X223184847Y-87795432D01*
X177712653Y-93767257D02*
X183406672Y-115017626D01*
X183406672Y-115017626D02*
X204657041Y-109323607D01*
X198963022Y-88073238D02*
X177712653Y-93767257D01*
X204657041Y-109323607D02*
X198963022Y-88073238D01*
X172684847Y-70545432D02*
X172684847Y-92545432D01*
X172684847Y-92545432D02*
X194684847Y-92545432D01*
X194684847Y-70545432D02*
X172684847Y-70545432D01*
X194684847Y-92545432D02*
X194684847Y-70545432D01*
X106187500Y-32545000D02*
X106187500Y-54545000D01*
X106187500Y-54545000D02*
X128187500Y-54545000D01*
X128187500Y-32545000D02*
X106187500Y-32545000D01*
X128187500Y-54545000D02*
X128187500Y-32545000D01*
X87187500Y-30170000D02*
X87187500Y-52170000D01*
X87187500Y-52170000D02*
X109187500Y-52170000D01*
X109187500Y-30170000D02*
X87187500Y-30170000D01*
X109187500Y-52170000D02*
X109187500Y-30170000D01*
X68187500Y-27795000D02*
X68187500Y-49795000D01*
X68187500Y-49795000D02*
X90187500Y-49795000D01*
X90187500Y-27795000D02*
X68187500Y-27795000D01*
X90187500Y-49795000D02*
X90187500Y-27795000D01*
X49187500Y-30170000D02*
X49187500Y-52170000D01*
X49187500Y-52170000D02*
X71187500Y-52170000D01*
X71187500Y-30170000D02*
X49187500Y-30170000D01*
X71187500Y-52170000D02*
X71187500Y-30170000D01*
X30187500Y-34920000D02*
X30187500Y-56920000D01*
X30187500Y-56920000D02*
X52187500Y-56920000D01*
X52187500Y-34920000D02*
X30187500Y-34920000D01*
X52187500Y-56920000D02*
X52187500Y-34920000D01*
X106187500Y-70545000D02*
X106187500Y-92545000D01*
X106187500Y-92545000D02*
X128187500Y-92545000D01*
X128187500Y-70545000D02*
X106187500Y-70545000D01*
X128187500Y-92545000D02*
X128187500Y-70545000D01*
X129375322Y-95732822D02*
X122375322Y-107857178D01*
X122375322Y-107857178D02*
X134499678Y-114857178D01*
X141499678Y-102732822D02*
X129375322Y-95732822D01*
X134499678Y-114857178D02*
X141499678Y-102732822D01*
X11187500Y-72920000D02*
X11187500Y-94920000D01*
X11187500Y-94920000D02*
X33187500Y-94920000D01*
X33187500Y-72920000D02*
X11187500Y-72920000D01*
X33187500Y-94920000D02*
X33187500Y-72920000D01*
X101909325Y-88072806D02*
X96215306Y-109323175D01*
X96215306Y-109323175D02*
X117465675Y-115017194D01*
X123159694Y-93766825D02*
X101909325Y-88072806D01*
X117465675Y-115017194D02*
X123159694Y-93766825D01*
X77687500Y-87795000D02*
X77687500Y-109795000D01*
X77687500Y-109795000D02*
X99687500Y-109795000D01*
X99687500Y-87795000D02*
X77687500Y-87795000D01*
X99687500Y-109795000D02*
X99687500Y-87795000D01*
X87187500Y-68170000D02*
X87187500Y-90170000D01*
X87187500Y-90170000D02*
X109187500Y-90170000D01*
X109187500Y-68170000D02*
X87187500Y-68170000D01*
X109187500Y-90170000D02*
X109187500Y-68170000D01*
X68187500Y-65795000D02*
X68187500Y-87795000D01*
X68187500Y-87795000D02*
X90187500Y-87795000D01*
X90187500Y-65795000D02*
X68187500Y-65795000D01*
X90187500Y-87795000D02*
X90187500Y-65795000D01*
X49187500Y-68170000D02*
X49187500Y-90170000D01*
X49187500Y-90170000D02*
X71187500Y-90170000D01*
X71187500Y-68170000D02*
X49187500Y-68170000D01*
X71187500Y-90170000D02*
X71187500Y-68170000D01*
X30187500Y-72920000D02*
X30187500Y-94920000D01*
X30187500Y-94920000D02*
X52187500Y-94920000D01*
X52187500Y-72920000D02*
X30187500Y-72920000D01*
X52187500Y-94920000D02*
X52187500Y-72920000D01*
X106187500Y-51545000D02*
X106187500Y-73545000D01*
X106187500Y-73545000D02*
X128187500Y-73545000D01*
X128187500Y-51545000D02*
X106187500Y-51545000D01*
X128187500Y-73545000D02*
X128187500Y-51545000D01*
X87187500Y-49170000D02*
X87187500Y-71170000D01*
X87187500Y-71170000D02*
X109187500Y-71170000D01*
X109187500Y-49170000D02*
X87187500Y-49170000D01*
X109187500Y-71170000D02*
X109187500Y-49170000D01*
X68187500Y-46795000D02*
X68187500Y-68795000D01*
X68187500Y-68795000D02*
X90187500Y-68795000D01*
X90187500Y-46795000D02*
X68187500Y-46795000D01*
X90187500Y-68795000D02*
X90187500Y-46795000D01*
X49187500Y-49170000D02*
X49187500Y-71170000D01*
X49187500Y-71170000D02*
X71187500Y-71170000D01*
X71187500Y-49170000D02*
X49187500Y-49170000D01*
X71187500Y-71170000D02*
X71187500Y-49170000D01*
X30187500Y-53920000D02*
X30187500Y-75920000D01*
X30187500Y-75920000D02*
X52187500Y-75920000D01*
X52187500Y-53920000D02*
X30187500Y-53920000D01*
X52187500Y-75920000D02*
X52187500Y-53920000D01*
X11187500Y-53920000D02*
X11187500Y-75920000D01*
X11187500Y-75920000D02*
X33187500Y-75920000D01*
X33187500Y-53920000D02*
X11187500Y-53920000D01*
X33187500Y-75920000D02*
X33187500Y-53920000D01*
X11187500Y-34920000D02*
X11187500Y-56920000D01*
X11187500Y-56920000D02*
X33187500Y-56920000D01*
X33187500Y-34920000D02*
X11187500Y-34920000D01*
X33187500Y-56920000D02*
X33187500Y-34920000D01*
X159372669Y-102733254D02*
X166372669Y-114857610D01*
X166372669Y-114857610D02*
X178497025Y-107857610D01*
X171497025Y-95733254D02*
X159372669Y-102733254D01*
X178497025Y-107857610D02*
X171497025Y-95733254D01*
D11*
X157132500Y-82395000D02*
X154532500Y-82395000D01*
X154532500Y-82395000D02*
X154532500Y-89095000D01*
X154482500Y-84345000D02*
X153182500Y-84345000D01*
X153182500Y-84345000D02*
X152982500Y-84545000D01*
X152982500Y-84545000D02*
X152982500Y-85395000D01*
X152982500Y-85395000D02*
X153182500Y-85595000D01*
X153182500Y-85595000D02*
X153232500Y-85645000D01*
X153232500Y-85645000D02*
X154532500Y-85645000D01*
X157132500Y-89095000D02*
X157132500Y-82395000D01*
X154532500Y-89095000D02*
X157132500Y-89095000D01*
X159187500Y-84995000D02*
X166787500Y-84995000D01*
X166787500Y-84995000D02*
X166787500Y-79095000D01*
X159187500Y-84295000D02*
X159187500Y-84995000D01*
X160787500Y-84295000D02*
X159187500Y-84295000D01*
X161912500Y-83545000D02*
X161912500Y-82545000D01*
X161412500Y-83045000D02*
X161912500Y-83545000D01*
X161912500Y-82545000D02*
X161412500Y-83045000D01*
X159187500Y-79795000D02*
X160787500Y-79795000D01*
X160787500Y-79795000D02*
X160787500Y-84295000D01*
X159187500Y-79095000D02*
X159187500Y-79795000D01*
X166787500Y-79095000D02*
X159187500Y-79095000D01*
X166147500Y-71325000D02*
X166782500Y-71960000D01*
X161702500Y-71325000D02*
X166147500Y-71325000D01*
X166782500Y-71960000D02*
X166782500Y-73865000D01*
X166782500Y-73865000D02*
X161702500Y-73865000D01*
X161702500Y-73865000D02*
X161702500Y-71325000D01*
X134837500Y-73865000D02*
X134202500Y-73230000D01*
X139282500Y-73865000D02*
X134837500Y-73865000D01*
X134202500Y-73230000D02*
X134202500Y-71325000D01*
X134202500Y-71325000D02*
X139282500Y-71325000D01*
X139282500Y-71325000D02*
X139282500Y-73865000D01*
X143787500Y-89095000D02*
X146387500Y-89095000D01*
X146387500Y-89095000D02*
X146387500Y-82395000D01*
X146437500Y-87145000D02*
X147737500Y-87145000D01*
X147737500Y-87145000D02*
X147937500Y-86945000D01*
X147937500Y-86945000D02*
X147937500Y-86095000D01*
X147937500Y-86095000D02*
X147737500Y-85895000D01*
X147737500Y-85895000D02*
X147687500Y-85845000D01*
X147687500Y-85845000D02*
X146387500Y-85845000D01*
X143787500Y-82395000D02*
X143787500Y-89095000D01*
X146387500Y-82395000D02*
X143787500Y-82395000D01*
X141737500Y-78895000D02*
X134137500Y-78895000D01*
X134137500Y-78895000D02*
X134137500Y-84795000D01*
X141737500Y-79595000D02*
X141737500Y-78895000D01*
X140137500Y-79595000D02*
X141737500Y-79595000D01*
X139012500Y-80345000D02*
X139012500Y-81345000D01*
X139512500Y-80845000D02*
X139012500Y-80345000D01*
X139012500Y-81345000D02*
X139512500Y-80845000D01*
X141737500Y-84095000D02*
X140137500Y-84095000D01*
X140137500Y-84095000D02*
X140137500Y-79595000D01*
X141737500Y-84795000D02*
X141737500Y-84095000D01*
X134137500Y-84795000D02*
X141737500Y-84795000D01*
M02*
